<svg width="61" height="61" viewBox="0 0 61 61" fill="none" xmlns="http://www.w3.org/2000/svg">
<path fill-rule="evenodd" clip-rule="evenodd" d="M40.6663 30.4999C40.6663 36.1147 36.1145 40.6666 30.4997 40.6666C24.8848 40.6666 20.333 36.1147 20.333 30.4999C20.333 24.885 24.8848 20.3333 30.4997 20.3333C36.1145 20.3333 40.6663 24.885 40.6663 30.4999ZM35.583 30.4999C35.583 33.3074 33.3072 35.5833 30.4997 35.5833C27.6921 35.5833 25.4163 33.3074 25.4163 30.4999C25.4163 27.6924 27.6921 25.4166 30.4997 25.4166C33.3072 25.4166 35.583 27.6924 35.583 30.4999Z" fill="#29E5F5"/>
<path fill-rule="evenodd" clip-rule="evenodd" d="M30.5001 7.625C44.7118 7.625 56.6533 17.3451 60.0391 30.5C56.6533 43.6549 44.7118 53.375 30.5001 53.375C16.2883 53.375 4.34676 43.6549 0.960938 30.5C4.34676 17.3451 16.2883 7.625 30.5001 7.625ZM30.5001 48.2917C19.1246 48.2917 9.48383 40.8143 6.24552 30.5C9.48383 20.1856 19.1246 12.7083 30.5001 12.7083C41.8755 12.7083 51.5163 20.1856 54.7547 30.5C51.5163 40.8143 41.8755 48.2917 30.5001 48.2917Z" fill="#29E5F5"/>
</svg>
