<svg width="100" height="100" viewBox="0 0 100 100" fill="none" xmlns="http://www.w3.org/2000/svg">
<path d="M49.2122 61.0818C49.4619 61.3302 49.66 61.6253 49.7952 61.9503C49.9304 62.2752 50 62.6236 50 62.9754C50 63.3273 49.9304 63.6757 49.7952 64.0006C49.66 64.3256 49.4619 64.6207 49.2122 64.869L43.8556 70.2156C43.3524 70.7179 42.67 71 41.9584 71C41.2468 71 40.5644 70.7179 40.0612 70.2156C39.5581 69.7134 39.2754 69.0323 39.2754 68.3221C39.2754 67.6118 39.5581 66.9307 40.0612 66.4285L40.8447 65.6465H40.3782C37.6784 65.6435 35.0181 64.9988 32.6176 63.7657C30.217 62.5327 28.1452 60.7467 26.5736 58.5556L17.2708 45.5477C16.1957 44.0482 14.7782 42.8259 13.1356 41.9822C11.493 41.1384 9.67259 40.6974 7.82521 40.6956H2.67834C1.968 40.6956 1.28675 40.414 0.784467 39.9126C0.282181 39.4113 0 38.7313 0 38.0223C0 37.3133 0.282181 36.6334 0.784467 36.132C1.28675 35.6307 1.968 35.349 2.67834 35.349H7.82521C10.525 35.352 13.1853 35.9967 15.5858 37.2298C17.9864 38.4629 20.0582 40.2489 21.6298 42.44L30.9393 55.4478C32.0144 56.9473 33.4319 58.1696 35.0745 59.0134C36.7171 59.8572 38.5375 60.2982 40.3849 60.2999H40.8447L40.059 59.518C39.5559 59.0157 39.2732 58.3346 39.2732 57.6244C39.2732 56.9141 39.5559 56.233 40.059 55.7308C40.5622 55.2286 41.2446 54.9464 41.9562 54.9464C42.6677 54.9464 43.3502 55.2286 43.8533 55.7308L49.2122 61.0818ZM27.8703 44.9039C28.4049 45.3705 29.1033 45.6061 29.8119 45.5589C30.5205 45.5117 31.1813 45.1856 31.649 44.6521C32.7385 43.4093 34.0816 42.4132 35.5882 41.7309C37.0949 41.0485 38.7304 40.6955 40.3849 40.6956H40.8447L40.059 41.4776C39.5559 41.9798 39.2732 42.6609 39.2732 43.3712C39.2732 44.0814 39.5559 44.7626 40.059 45.2648C40.5622 45.767 41.2446 46.0491 41.9562 46.0491C42.6677 46.0491 43.3502 45.767 43.8533 45.2648L49.21 39.9182C49.4597 39.6698 49.6578 39.3747 49.793 39.0497C49.9282 38.7248 49.9978 38.3764 49.9978 38.0246C49.9978 37.6727 49.9282 37.3243 49.793 36.9994C49.6578 36.6744 49.4597 36.3793 49.21 36.131L43.8533 30.7844C43.3502 30.2821 42.6677 30 41.9562 30C41.2446 30 40.5622 30.2821 40.059 30.7844C39.5559 31.2866 39.2732 31.9677 39.2732 32.6779C39.2732 33.3882 39.5559 34.0693 40.059 34.5715L40.8447 35.349H40.3782C37.9595 35.3502 35.569 35.8676 33.367 36.8666C31.1651 37.8656 29.2027 39.3231 27.6114 41.1412C27.1475 41.6751 26.9143 42.3707 26.9628 43.0759C27.0113 43.781 27.3376 44.4382 27.8703 44.9039ZM20.3397 56.0917C19.8052 55.625 19.1068 55.3894 18.3982 55.4366C17.6896 55.4838 17.0288 55.81 16.5611 56.3434C15.4716 57.5863 14.1285 58.5823 12.6219 59.2647C11.1152 59.9471 9.47974 60.3 7.82521 60.2999H2.67834C1.968 60.2999 1.28675 60.5816 0.784467 61.0829C0.282181 61.5842 0 62.2642 0 62.9732C0 63.6822 0.282181 64.3622 0.784467 64.8635C1.28675 65.3649 1.968 65.6465 2.67834 65.6465H7.82521C10.2439 65.6454 12.6344 65.1279 14.8364 64.1289C17.0383 63.1299 19.0007 61.6725 20.592 59.8543C21.0567 59.3212 21.2911 58.6262 21.2438 57.9211C21.1966 57.216 20.8715 56.5582 20.3397 56.0917Z" fill="white"/>
</svg>
