<svg width="100" height="100" viewBox="0 0 100 100" fill="none" xmlns="http://www.w3.org/2000/svg">
<path d="M49.2895 39.1423L42.8384 32.7079C42.384 32.2547 41.7676 32 41.1249 32C40.4822 32 39.8658 32.2547 39.4113 32.7079C38.9569 33.1612 38.7015 33.776 38.7015 34.4171C38.7015 35.0581 38.9569 35.6729 39.4113 36.1262L41.7317 38.4365H41.1269C30.644 38.4365 28.0635 44.6114 25.9912 49.5719C24.2131 53.8286 22.8765 57.0217 17.373 57.6329C16.7634 55.5867 15.4326 53.8292 13.626 52.6847C11.8194 51.5402 9.65881 51.0857 7.54268 51.4052C5.42656 51.7247 3.4976 52.7965 2.11152 54.423C0.725441 56.0496 -0.0242845 58.1211 0.000600148 60.2556C0.0254848 62.3902 0.823301 64.4438 2.24693 66.0377C3.67055 67.6317 5.62398 68.6585 7.74697 68.9288C9.86997 69.1991 12.0194 68.6947 13.7988 67.5085C15.5782 66.3224 16.8677 64.5346 17.4294 62.4748C26.1665 61.6966 28.5312 56.0404 30.4585 51.4298C32.4382 46.6805 33.8695 43.2622 41.1269 43.2622H41.7317L39.4093 45.5766C38.9548 46.0299 38.6995 46.6447 38.6995 47.2857C38.6995 47.9268 38.9548 48.5415 39.4093 48.9948C39.8638 49.4481 40.4802 49.7028 41.1229 49.7028C41.7656 49.7028 42.382 49.4481 42.8364 48.9948L49.2875 42.5605C49.5131 42.3365 49.6922 42.0702 49.8145 41.777C49.9368 41.4838 49.9998 41.1694 50 40.8518C50.0002 40.5342 49.9375 40.2198 49.8156 39.9264C49.6937 39.633 49.5149 39.3666 49.2895 39.1423ZM8.87171 64.1738C8.07427 64.1738 7.29475 63.938 6.6317 63.4961C5.96866 63.0542 5.45188 62.4261 5.14672 61.6913C4.84155 60.9565 4.76171 60.1479 4.91728 59.3678C5.07285 58.5877 5.45685 57.8712 6.02072 57.3088C6.58459 56.7464 7.30301 56.3633 8.08512 56.2082C8.86723 56.053 9.67791 56.1326 10.4146 56.437C11.1514 56.7414 11.7811 57.2568 12.2241 57.9182C12.6671 58.5795 12.9036 59.357 12.9036 60.1524C12.9036 61.2189 12.4788 62.2418 11.7227 62.996C10.9666 63.7501 9.94103 64.1738 8.87171 64.1738Z" fill="white"/>
</svg>
