<svg width="228" height="228" viewBox="0 0 228 228" fill="none" xmlns="http://www.w3.org/2000/svg">
<path d="M103.031 17.7644V10.6587C103.031 7.8318 104.154 5.12073 106.153 3.12185C108.152 1.12296 110.863 0 113.69 0C116.516 0 119.228 1.12296 121.226 3.12185C123.225 5.12073 124.348 7.8318 124.348 10.6587V17.7644C124.348 20.5913 123.225 23.3023 121.226 25.3012C119.228 27.3001 116.516 28.4231 113.69 28.4231C110.863 28.4231 108.152 27.3001 106.153 25.3012C104.154 23.3023 103.031 20.5913 103.031 17.7644ZM177.642 49.7404C179.042 49.7415 180.428 49.4667 181.722 48.9318C183.016 48.3968 184.192 47.6122 185.183 46.6227L192.288 39.517C193.28 38.5255 194.066 37.3485 194.603 36.053C195.139 34.7576 195.416 33.3692 195.416 31.9671C195.416 30.5649 195.139 29.1765 194.603 27.8811C194.066 26.5857 193.28 25.4087 192.288 24.4172C191.297 23.4257 190.12 22.6393 188.824 22.1027C187.529 21.5661 186.141 21.2899 184.738 21.2899C183.336 21.2899 181.948 21.5661 180.652 22.1027C179.357 22.6393 178.18 23.4257 177.189 24.4172L170.083 31.523C168.583 33.0138 167.561 34.9169 167.146 36.9903C166.731 39.0636 166.942 41.2136 167.753 43.1666C168.563 45.1197 169.936 46.7876 171.697 47.9582C173.458 49.1288 175.527 49.7491 177.642 49.7404ZM42.1967 46.6227C44.199 48.6251 46.9148 49.75 49.7466 49.75C52.5783 49.75 55.2941 48.6251 57.2964 46.6227C59.2988 44.6204 60.4237 41.9046 60.4237 39.0729C60.4237 36.2411 59.2988 33.5253 57.2964 31.523L50.1907 24.4172C48.1883 22.4148 45.4725 21.2899 42.6408 21.2899C39.809 21.2899 37.0933 22.4148 35.0909 24.4172C33.0886 26.4196 31.9637 29.1353 31.9637 31.9671C31.9637 34.7988 33.0886 37.5146 35.0909 39.517L42.1967 46.6227ZM209.617 156.327V177.644C209.617 182.356 207.746 186.874 204.414 190.206C201.083 193.537 196.564 195.409 191.853 195.409H35.5261C30.8147 195.409 26.2963 193.537 22.9648 190.206C19.6333 186.874 17.7617 182.356 17.7617 177.644V156.327C17.7609 152.232 19.175 148.262 21.7647 145.09C24.3545 141.917 27.9608 139.737 31.9733 138.918V124.351C31.9733 102.678 40.5826 81.8936 55.9074 66.5688C71.2322 51.244 92.0171 42.6346 113.69 42.6346H114.32C158.989 42.9721 195.406 80.0287 195.406 125.239V138.918C199.418 139.737 203.025 141.917 205.614 145.09C208.204 148.262 209.618 152.232 209.617 156.327ZM53.2906 124.351V138.563H174.089V125.239C174.089 91.6911 147.202 64.2006 114.151 63.9519H113.69C97.6708 63.9519 82.3081 70.3154 70.981 81.6424C59.654 92.9694 53.2906 108.332 53.2906 124.351ZM188.3 159.88H39.079V174.091H188.3V159.88ZM121.151 100.618C124.973 101.819 128.449 103.925 131.282 106.759C134.115 109.592 136.222 113.067 137.423 116.89C138.271 119.587 140.156 121.837 142.663 123.145C145.17 124.452 148.093 124.711 150.791 123.862C153.488 123.014 155.738 121.13 157.045 118.623C158.353 116.116 158.611 113.192 157.763 110.495C155.532 103.402 151.621 96.9525 146.364 91.6947C141.106 86.437 134.657 82.5264 127.564 80.2952C124.866 79.4471 121.943 79.7053 119.436 81.0129C116.929 82.3205 115.044 84.5704 114.196 87.2677C113.348 89.965 113.606 92.8887 114.914 95.3957C116.221 97.9026 118.471 99.7874 121.168 100.635L121.151 100.618Z" fill="#C3D500"/>
</svg>
