<svg width="61" height="61" viewBox="0 0 61 61" fill="none" xmlns="http://www.w3.org/2000/svg">
<path d="M54.3281 11.4375V22.875C54.3281 23.6333 54.0269 24.3606 53.4906 24.8968C52.9544 25.4331 52.2271 25.7343 51.4688 25.7343H40.0312C39.2729 25.7343 38.5456 25.4331 38.0094 24.8968C37.4731 24.3606 37.1719 23.6333 37.1719 22.875C37.1719 22.1166 37.4731 21.3893 38.0094 20.8531C38.5456 20.3168 39.2729 20.0156 40.0312 20.0156H44.5586L42.7 18.157C39.335 14.7753 34.7654 12.8676 29.9948 12.8529H29.8924C25.1644 12.8425 20.6225 14.694 17.2492 18.0069C16.707 18.5371 15.9763 18.8302 15.218 18.8217C14.4597 18.8132 13.7358 18.5038 13.2055 17.9616C12.6753 17.4194 12.3822 16.6887 12.3907 15.9304C12.3992 15.1721 12.7086 14.4482 13.2508 13.918C17.6929 9.55612 23.674 7.11901 29.8995 7.1341H30.0234C36.3039 7.15123 42.3206 9.6616 46.7508 14.1134L48.6094 15.9648V11.4375C48.6094 10.6791 48.9106 9.95182 49.4469 9.41558C49.9831 8.87934 50.7104 8.57809 51.4688 8.57809C52.2271 8.57809 52.9544 8.87934 53.4906 9.41558C54.0269 9.95182 54.3281 10.6791 54.3281 11.4375ZM43.7508 42.993C40.3758 46.3076 35.8309 48.1593 31.1005 48.1471H30.998C26.2274 48.1323 21.6578 46.2246 18.2929 42.8429L16.4414 40.9843H20.9688C21.7271 40.9843 22.4544 40.6831 22.9906 40.1468C23.5269 39.6106 23.8281 38.8833 23.8281 38.125C23.8281 37.3666 23.5269 36.6393 22.9906 36.1031C22.4544 35.5668 21.7271 35.2656 20.9688 35.2656H9.53125C8.7729 35.2656 8.0456 35.5668 7.50937 36.1031C6.97313 36.6393 6.67188 37.3666 6.67188 38.125V49.5625C6.67188 50.3208 6.97313 51.0481 7.50937 51.5843C8.0456 52.1206 8.7729 52.4218 9.53125 52.4218C10.2896 52.4218 11.0169 52.1206 11.5531 51.5843C12.0894 51.0481 12.3906 50.3208 12.3906 49.5625V45.0351L14.2492 46.8937C18.6806 51.3429 24.6971 53.8506 30.9766 53.8658H31.11C37.3356 53.8809 43.3166 51.4438 47.7587 47.082C48.0272 46.8194 48.2413 46.5066 48.3889 46.1613C48.5365 45.816 48.6146 45.445 48.6188 45.0695C48.623 44.694 48.5532 44.3214 48.4134 43.9729C48.2736 43.6244 48.0665 43.3068 47.804 43.0383C47.5414 42.7698 47.2286 42.5557 46.8833 42.4081C46.538 42.2605 46.167 42.1824 45.7915 42.1782C45.4161 42.174 45.0434 42.2438 44.6949 42.3836C44.3464 42.5234 44.0288 42.7305 43.7604 42.993H43.7508Z" fill="#FF6363"/>
</svg>
