<svg width="96" height="96" viewBox="0 0 96 96" fill="none" xmlns="http://www.w3.org/2000/svg">
<circle cx="47.7685" cy="47.7685" r="47.7685" fill="#F2FFE2"/>
<path d="M70.5198 34.7989C70.1179 35.009 69.6711 35.1184 69.2177 35.1179C68.6976 35.1188 68.1874 34.9766 67.7427 34.7069C67.298 34.4373 66.936 34.0505 66.6963 33.589C64.9727 30.1734 62.3605 27.2853 59.1345 25.2285C58.8081 25.0354 58.5237 24.7789 58.2982 24.474C58.0726 24.169 57.9105 23.822 57.8215 23.4534C57.7325 23.0847 57.7183 22.7019 57.7798 22.3277C57.8413 21.9535 57.9773 21.5954 58.1796 21.2747C58.382 20.9539 58.6466 20.677 58.9579 20.4603C59.2691 20.2437 59.6207 20.0916 59.9917 20.0132C60.3628 19.9348 60.7458 19.9317 61.1181 20.0039C61.4904 20.0761 61.8444 20.2223 62.1592 20.4338C66.2315 23.0362 69.5379 26.6754 71.7391 30.9778C71.91 31.3087 72.014 31.6701 72.0452 32.0413C72.0764 32.4124 72.0342 32.7861 71.921 33.1409C71.8077 33.4958 71.6257 33.8248 71.3853 34.1093C71.1449 34.3938 70.8508 34.6281 70.5198 34.7989ZM28.117 33.589C29.8406 30.1734 32.4528 27.2853 35.6788 25.2285C36.0124 25.0395 36.3043 24.7848 36.5368 24.4798C36.7692 24.1748 36.9374 23.8258 37.0311 23.454C37.1248 23.0821 37.1422 22.6951 37.082 22.3164C37.0219 21.9377 36.8856 21.5751 36.6813 21.2505C36.4771 20.926 36.2091 20.6462 35.8936 20.4282C35.5782 20.2102 35.2218 20.0584 34.846 19.9821C34.4702 19.9057 34.0828 19.9064 33.7073 19.984C33.3317 20.0617 32.9758 20.2147 32.6611 20.4338C28.5889 23.0362 25.2825 26.6754 23.0813 30.9778C22.7356 31.6453 22.6691 32.4228 22.8964 33.1393C23.1238 33.8558 23.6263 34.4527 24.2935 34.7989C24.6953 35.009 25.1421 35.1184 25.5956 35.1179C26.1156 35.1188 26.6259 34.9766 27.0706 34.7069C27.5153 34.4373 27.8773 34.0505 28.117 33.589ZM69.1185 56.8297C69.6518 57.5298 69.9791 58.365 70.0634 59.241C70.1477 60.1171 69.9857 60.9993 69.5956 61.7883C69.2056 62.5773 68.6029 63.2417 67.8556 63.7066C67.1083 64.1715 66.246 64.4186 65.3659 64.4199H57.7592C57.5187 66.9992 56.3241 69.3958 54.4092 71.1405C52.4943 72.8851 49.9971 73.8521 47.4066 73.8521C44.8162 73.8521 42.319 72.8851 40.4041 71.1405C38.4892 69.3958 37.2945 66.9992 37.0541 64.4199H29.4474C28.5666 64.4199 27.7034 64.1738 26.9551 63.7094C26.2067 63.245 25.6031 62.5807 25.2121 61.7915C24.8212 61.0023 24.6586 60.1195 24.7426 59.2428C24.8267 58.3661 25.154 57.5303 25.6877 56.8297C27.382 54.625 29.4048 50.5392 29.4403 43.6107C29.4422 38.8467 31.3365 34.2785 34.7065 30.9112C38.0765 27.5438 42.6461 25.6531 47.4102 25.655C52.1742 25.6569 56.7424 27.5512 60.1097 30.9212C63.4771 34.2912 65.3678 38.8609 65.3659 43.6249C65.4014 50.5392 67.4241 54.625 69.1185 56.8297ZM52.0382 64.4199H42.775C42.992 65.4882 43.5716 66.4488 44.4157 67.1387C45.2598 67.8286 46.3165 68.2055 47.4066 68.2055C48.4968 68.2055 49.5535 67.8286 50.3976 67.1387C51.2417 66.4488 51.8213 65.4882 52.0382 64.4199ZM63.5558 58.7485C61.6275 55.6765 59.73 50.8157 59.6946 43.6391C59.6955 42.0254 59.3786 40.4274 58.7619 38.9362C58.1452 37.445 57.2409 36.0898 56.1005 34.9481C54.9601 33.8064 53.6061 32.9005 52.1156 32.2821C50.6251 31.6638 49.0274 31.345 47.4137 31.3441C45.8001 31.3431 44.202 31.6601 42.7108 32.2767C41.2196 32.8934 39.8645 33.7977 38.7228 34.9381C37.5811 36.0785 36.6752 37.4326 36.0568 38.9231C35.4384 40.4135 35.1196 42.0112 35.1187 43.6249C35.0833 50.8133 33.1857 55.6765 31.2575 58.7485H63.5558Z" fill="#006838"/>
</svg>
