<svg width="100" height="100" viewBox="0 0 100 100" fill="none" xmlns="http://www.w3.org/2000/svg">
<path d="M48.5923 37.151L37.8517 26.4088C37.4053 25.9621 36.8752 25.6078 36.2917 25.3661C35.7083 25.1244 35.083 25 34.4514 25C33.8199 25 33.1946 25.1244 32.6111 25.3661C32.0277 25.6078 31.4976 25.9621 31.0511 26.4088L1.4087 56.0514C0.960621 56.4966 0.605373 57.0262 0.363559 57.6096C0.121745 58.1931 -0.00182289 58.8187 2.03206e-05 59.4503V70.1925C2.03206e-05 71.4676 0.506554 72.6903 1.40819 73.5919C2.30982 74.4935 3.5327 75 4.80781 75H15.5508C16.1824 75.0017 16.8081 74.8781 17.3915 74.6363C17.975 74.3945 18.5047 74.0393 18.9499 73.5914L48.5923 43.9487C49.4937 43.0472 50 41.8246 50 40.5498C50 39.2751 49.4937 38.0525 48.5923 37.151ZM15.6253 63.4621L32.693 46.3957L35.3373 49.0398L18.2696 66.1062L15.6253 63.4621ZM11.5387 59.3758L8.89443 56.7317L25.9621 39.6653L28.6064 42.3094L11.5387 59.3758ZM5.76937 61.7795L9.49781 65.5077L13.2214 69.2311H5.76937V61.7795ZM39.4239 44.9535L30.0487 35.579L34.4574 31.1705L43.8326 40.545L39.4239 44.9535Z" fill="white"/>
</svg>
