<svg width="63" height="63" viewBox="0 0 63 63" fill="none" xmlns="http://www.w3.org/2000/svg">
<path d="M26.8869 42.8234L15.75 31.6865L19.4623 27.9742L26.8869 35.3988L41.7362 20.5496L45.4485 24.2619L26.8869 42.8234Z" fill="#1240D4"/>
<path fill-rule="evenodd" clip-rule="evenodd" d="M2.625 31.5C2.625 15.5528 15.5528 2.625 31.5 2.625C47.4472 2.625 60.375 15.5528 60.375 31.5C60.375 47.4472 47.4472 60.375 31.5 60.375C15.5528 60.375 2.625 47.4472 2.625 31.5ZM31.5 55.125C18.4523 55.125 7.875 44.5477 7.875 31.5C7.875 18.4523 18.4523 7.875 31.5 7.875C44.5477 7.875 55.125 18.4523 55.125 31.5C55.125 44.5477 44.5477 55.125 31.5 55.125Z" fill="#1240D4"/>
</svg>
