<svg width="43" height="43" viewBox="0 0 43 43" fill="none" xmlns="http://www.w3.org/2000/svg">
<path d="M18.3517 29.2285L10.7503 21.6271L13.2841 19.0933L18.3517 24.1609L28.4869 14.0257L31.0207 16.5595L18.3517 29.2285Z" fill="#FF8E92"/>
<path fill-rule="evenodd" clip-rule="evenodd" d="M1.79199 21.4998C1.79199 10.6152 10.6157 1.7915 21.5003 1.7915C32.3849 1.7915 41.2087 10.6152 41.2087 21.4998C41.2087 32.3845 32.3849 41.2082 21.5003 41.2082C10.6157 41.2082 1.79199 32.3845 1.79199 21.4998ZM21.5003 37.6248C12.5947 37.6248 5.37533 30.4054 5.37533 21.4998C5.37533 12.5942 12.5947 5.37484 21.5003 5.37484C30.4059 5.37484 37.6253 12.5942 37.6253 21.4998C37.6253 30.4054 30.4059 37.6248 21.5003 37.6248Z" fill="#FF8E92"/>
</svg>
