<svg width="61" height="61" viewBox="0 0 61 61" fill="none" xmlns="http://www.w3.org/2000/svg">
<path d="M41.5293 23.6945C42.5561 22.7374 42.6128 21.1292 41.6556 20.1023C40.6987 19.0754 39.0903 19.0188 38.0635 19.9759L30.6263 26.9076L23.6945 19.4704C22.7374 18.4435 21.1292 18.3869 20.1023 19.344C19.0754 20.3011 19.0188 21.9093 19.9759 22.9362L26.9076 30.3734L19.4704 37.3053C18.4435 38.2622 18.3869 39.8706 19.344 40.8974C20.3011 41.9243 21.9093 41.9809 22.9362 41.0237L30.3734 34.0921L37.3053 41.5293C38.2622 42.5561 39.8706 42.6128 40.8974 41.6556C41.9243 40.6987 41.9809 39.0903 41.0237 38.0635L34.0921 30.6263L41.5293 23.6945Z" fill="#2743B2"/>
<path fill-rule="evenodd" clip-rule="evenodd" d="M2.5415 30.5001C2.5415 15.0591 15.0589 2.54175 30.4998 2.54175C45.9407 2.54175 58.4582 15.0591 58.4582 30.5001C58.4582 45.941 45.9407 58.4584 30.4998 58.4584C15.0589 58.4584 2.5415 45.941 2.5415 30.5001ZM30.4998 53.3751C17.8663 53.3751 7.62484 43.1337 7.62484 30.5001C7.62484 17.8666 17.8663 7.62508 30.4998 7.62508C43.1334 7.62508 53.3748 17.8666 53.3748 30.5001C53.3748 43.1337 43.1334 53.3751 30.4998 53.3751Z" fill="#2743B2"/>
</svg>
