<svg width="61" height="61" viewBox="0 0 61 61" fill="none" xmlns="http://www.w3.org/2000/svg">
<path d="M41.5298 23.6945C42.5566 22.7374 42.6133 21.1292 41.6561 20.1023C40.6991 19.0754 39.0908 19.0188 38.0639 19.9759L30.6268 26.9076L23.695 19.4704C22.7379 18.4435 21.1296 18.3869 20.1028 19.344C19.0759 20.3011 19.0193 21.9093 19.9764 22.9362L26.9081 30.3734L19.4708 37.3053C18.444 38.2622 18.3874 39.8706 19.3445 40.8974C20.3015 41.9243 21.9098 41.9809 22.9367 41.0237L30.3739 34.0921L37.3058 41.5293C38.2627 42.5561 39.8711 42.6128 40.8979 41.6556C41.9247 40.6987 41.9814 39.0903 41.0242 38.0635L34.0926 30.6263L41.5298 23.6945Z" fill="#BFF7FC"/>
<path fill-rule="evenodd" clip-rule="evenodd" d="M2.54199 30.4998C2.54199 15.0589 15.0594 2.5415 30.5003 2.5415C45.9412 2.5415 58.4587 15.0589 58.4587 30.4998C58.4587 45.9407 45.9412 58.4582 30.5003 58.4582C15.0594 58.4582 2.54199 45.9407 2.54199 30.4998ZM30.5003 53.3748C17.8668 53.3748 7.62533 43.1334 7.62533 30.4998C7.62533 17.8663 17.8668 7.62484 30.5003 7.62484C43.1339 7.62484 53.3753 17.8663 53.3753 30.4998C53.3753 43.1334 43.1339 53.3748 30.5003 53.3748Z" fill="#BFF7FC"/>
</svg>
