<svg width="100" height="100" viewBox="0 0 100 100" fill="none" xmlns="http://www.w3.org/2000/svg">
<path d="M13.6451 43.8443L6.19749 50.0003L13.6451 56.1562C13.8921 56.357 14.0966 56.6043 14.2468 56.8839C14.3969 57.1634 14.4898 57.4697 14.5201 57.7851C14.5503 58.1004 14.5173 58.4186 14.423 58.7213C14.3287 59.0239 14.1749 59.3051 13.9705 59.5485C13.7661 59.7919 13.5152 59.9927 13.2322 60.1394C12.9491 60.2862 12.6396 60.3759 12.3215 60.4033C12.0034 60.4308 11.6829 60.3956 11.3785 60.2996C11.0742 60.2036 10.792 60.0488 10.5483 59.8441L0.870851 51.8442C0.598292 51.619 0.378997 51.3371 0.228504 51.0184C0.0780101 50.6997 0 50.3522 0 50.0003C0 49.6484 0.0780101 49.3008 0.228504 48.9821C0.378997 48.6634 0.598292 48.3815 0.870851 48.1563L10.5483 40.1564C11.042 39.755 11.6756 39.5635 12.311 39.6235C12.9465 39.6834 13.5323 39.9901 13.9408 40.4766C14.3493 40.9631 14.5475 41.5901 14.4921 42.2209C14.4367 42.8517 14.1323 43.4352 13.6451 43.8443ZM49.1291 48.1563L39.4517 40.1564C39.208 39.9517 38.9258 39.7969 38.6215 39.7009C38.3171 39.6049 37.9966 39.5697 37.6785 39.5972C37.3604 39.6247 37.0509 39.7143 36.7678 39.8611C36.4848 40.0078 36.2339 40.2087 36.0295 40.4521C35.8251 40.6955 35.6713 40.9766 35.577 41.2792C35.4827 41.5819 35.4497 41.9001 35.4799 42.2154C35.5102 42.5308 35.6031 42.8371 35.7533 43.1167C35.9034 43.3962 36.1079 43.6435 36.3549 43.8443L43.8025 50.0003L36.3549 56.1562C36.1079 56.357 35.9034 56.6043 35.7533 56.8839C35.6031 57.1634 35.5102 57.4697 35.4799 57.7851C35.4497 58.1004 35.4827 58.4186 35.577 58.7213C35.6713 59.0239 35.8251 59.3051 36.0295 59.5485C36.2339 59.7919 36.4848 59.9927 36.7678 60.1394C37.0509 60.2862 37.3604 60.3759 37.6785 60.4033C37.9966 60.4308 38.3171 60.3956 38.6215 60.2996C38.9258 60.2036 39.208 60.0488 39.4517 59.8441L49.1291 51.8442C49.4017 51.619 49.621 51.3371 49.7715 51.0184C49.922 50.6997 50 50.3522 50 50.0003C50 49.6484 49.922 49.3008 49.7715 48.9821C49.621 48.6634 49.4017 48.3815 49.1291 48.1563ZM32.2783 30.1445C31.9796 30.0368 31.6625 29.9885 31.345 30.0023C31.0275 30.0162 30.7159 30.092 30.428 30.2253C30.14 30.3587 29.8814 30.547 29.6668 30.7795C29.4522 31.012 29.2859 31.2842 29.1774 31.5805L16.2742 66.78C16.0554 67.3781 16.0851 68.0379 16.3565 68.6143C16.6279 69.1907 17.119 69.6366 17.7217 69.854C17.9864 69.9509 18.2663 70.0004 18.5484 70C19.0451 70.0001 19.5298 69.8485 19.9367 69.5658C20.3435 69.2832 20.6528 68.8831 20.8226 68.42L33.7258 33.2205C33.8345 32.9242 33.8832 32.6096 33.8692 32.2947C33.8552 31.9798 33.7788 31.6707 33.6444 31.385C33.51 31.0994 33.3201 30.8428 33.0857 30.63C32.8513 30.4171 32.5769 30.2522 32.2783 30.1445Z" fill="white"/>
</svg>
