<svg width="96" height="96" viewBox="0 0 96 96" fill="none" xmlns="http://www.w3.org/2000/svg">
<circle cx="47.7685" cy="47.7685" r="47.7685" fill="#F2FFE2"/>
<path fill-rule="evenodd" clip-rule="evenodd" d="M24.7852 27.6448C24.7852 22.9066 28.6263 19.0654 33.3646 19.0654H61.9626C66.7009 19.0654 70.542 22.9066 70.542 27.6448V67.6821C70.542 72.4204 66.7009 76.2615 61.9626 76.2615H33.3646C28.6263 76.2615 24.7852 72.4204 24.7852 67.6821V27.6448ZM50.5234 24.785H61.9626C63.542 24.785 64.8224 26.0654 64.8224 27.6448V50.5233H50.5234V24.785ZM50.5234 56.2429V70.5419H61.9626C63.5421 70.5419 64.8224 69.2615 64.8224 67.6821V56.2429H50.5234ZM44.8038 24.785H33.3646C31.7851 24.785 30.5048 26.0654 30.5048 27.6448V36.2243H44.8038V24.785ZM30.5048 67.6821V41.9439H44.8038V70.5419H33.3646C31.7851 70.5419 30.5048 69.2615 30.5048 67.6821Z" fill="#006838"/>
</svg>
