<svg width="100" height="100" viewBox="0 0 100 100" fill="none" xmlns="http://www.w3.org/2000/svg">
<path d="M15.6522 28H4.8913C3.59405 28 2.34993 28.5153 1.43263 29.4326C0.515332 30.3499 0 31.594 0 32.8913V43.6522C0 44.9494 0.515332 46.1936 1.43263 47.1108C2.34993 48.0281 3.59405 48.5435 4.8913 48.5435H15.6522C16.9494 48.5435 18.1936 48.0281 19.1108 47.1108C20.0281 46.1936 20.5435 44.9494 20.5435 43.6522V32.8913C20.5435 31.594 20.0281 30.3499 19.1108 29.4326C18.1936 28.5153 16.9494 28 15.6522 28ZM14.6739 42.6739H5.86957V33.8696H14.6739V42.6739ZM40.1087 28H29.3478C28.0506 28 26.8064 28.5153 25.8892 29.4326C24.9719 30.3499 24.4565 31.594 24.4565 32.8913V43.6522C24.4565 44.9494 24.9719 46.1936 25.8892 47.1108C26.8064 48.0281 28.0506 48.5435 29.3478 48.5435H40.1087C41.4059 48.5435 42.6501 48.0281 43.5674 47.1108C44.4847 46.1936 45 44.9494 45 43.6522V32.8913C45 31.594 44.4847 30.3499 43.5674 29.4326C42.6501 28.5153 41.4059 28 40.1087 28ZM39.1304 42.6739H30.3261V33.8696H39.1304V42.6739ZM15.6522 52.4565H4.8913C3.59405 52.4565 2.34993 52.9719 1.43263 53.8892C0.515332 54.8064 0 56.0506 0 57.3478V68.1087C0 69.4059 0.515332 70.6501 1.43263 71.5674C2.34993 72.4847 3.59405 73 4.8913 73H15.6522C16.9494 73 18.1936 72.4847 19.1108 71.5674C20.0281 70.6501 20.5435 69.4059 20.5435 68.1087V57.3478C20.5435 56.0506 20.0281 54.8064 19.1108 53.8892C18.1936 52.9719 16.9494 52.4565 15.6522 52.4565ZM14.6739 67.1304H5.86957V58.3261H14.6739V67.1304ZM40.1087 52.4565H29.3478C28.0506 52.4565 26.8064 52.9719 25.8892 53.8892C24.9719 54.8064 24.4565 56.0506 24.4565 57.3478V68.1087C24.4565 69.4059 24.9719 70.6501 25.8892 71.5674C26.8064 72.4847 28.0506 73 29.3478 73H40.1087C41.4059 73 42.6501 72.4847 43.5674 71.5674C44.4847 70.6501 45 69.4059 45 68.1087V57.3478C45 56.0506 44.4847 54.8064 43.5674 53.8892C42.6501 52.9719 41.4059 52.4565 40.1087 52.4565ZM39.1304 67.1304H30.3261V58.3261H39.1304V67.1304Z" fill="white"/>
</svg>
