<svg width="96" height="96" viewBox="0 0 96 96" fill="none" xmlns="http://www.w3.org/2000/svg">
<circle cx="47.7685" cy="47.7685" r="47.7685" fill="#F2FFE2"/>
<path d="M42.7373 58.7964C39.2243 56.7633 36.8595 52.9675 36.8594 48.6167C36.8594 44.2657 39.2241 40.4691 42.7373 38.436V58.7964Z" stroke="#006838" stroke-opacity="0.3" stroke-width="11.757"/>
<path d="M54.4961 38.436C58.0092 40.4691 60.374 44.2658 60.374 48.6167C60.3739 52.9675 58.009 56.7633 54.4961 58.7964V38.436Z" stroke="#006838" stroke-opacity="0.6" stroke-width="11.757"/>
<path d="M48.6172 22.1636C63.2268 22.1636 75.0703 34.007 75.0703 48.6167C75.0702 63.2263 63.2268 75.0698 48.6172 75.0698C34.0075 75.0698 22.1641 63.2263 22.1641 48.6167C22.1641 34.007 34.0075 22.1636 48.6172 22.1636Z" stroke="#006838" stroke-width="5.87849"/>
</svg>
