<svg width="61" height="61" viewBox="0 0 61 61" fill="none" xmlns="http://www.w3.org/2000/svg">
<path fill-rule="evenodd" clip-rule="evenodd" d="M40.6668 30.5C40.6668 36.1148 36.115 40.6666 30.5002 40.6666C24.8853 40.6666 20.3335 36.1148 20.3335 30.5C20.3335 24.8851 24.8853 20.3333 30.5002 20.3333C36.115 20.3333 40.6668 24.8851 40.6668 30.5ZM35.5835 30.5C35.5835 33.3075 33.3077 35.5833 30.5002 35.5833C27.6926 35.5833 25.4168 33.3075 25.4168 30.5C25.4168 27.6925 27.6926 25.4166 30.5002 25.4166C33.3077 25.4166 35.5835 27.6925 35.5835 30.5Z" fill="#FF7676"/>
<path fill-rule="evenodd" clip-rule="evenodd" d="M30.5001 7.625C44.7118 7.625 56.6533 17.3451 60.0391 30.5C56.6533 43.6549 44.7118 53.375 30.5001 53.375C16.2883 53.375 4.34676 43.6549 0.960938 30.5C4.34676 17.3451 16.2883 7.625 30.5001 7.625ZM30.5001 48.2917C19.1246 48.2917 9.48383 40.8143 6.24552 30.5C9.48383 20.1856 19.1246 12.7083 30.5001 12.7083C41.8755 12.7083 51.5163 20.1856 54.7547 30.5C51.5163 40.8143 41.8755 48.2917 30.5001 48.2917Z" fill="#FF7676"/>
</svg>
