<svg width="99" height="27" viewBox="0 0 99 27" fill="none" xmlns="http://www.w3.org/2000/svg">
<path d="M2.99911 1.49488C3.00004 1.7917 2.91286 2.08211 2.74862 2.32935C2.58437 2.57658 2.35045 2.76951 2.07648 2.8837C1.80251 2.99789 1.50081 3.02821 1.20959 2.97082C0.918379 2.91342 0.650747 2.7709 0.440593 2.56129C0.230439 2.35168 0.0872156 2.08442 0.0290628 1.79336C-0.0290901 1.50229 0.000443197 1.20052 0.113922 0.926249C0.227401 0.651981 0.419721 0.417559 0.666526 0.252671C0.91333 0.0877832 1.20352 -0.000152629 1.50033 1.98866e-07C1.89716 -1.14252e-06 2.27779 0.157371 2.55876 0.437604C2.83972 0.717838 2.99808 1.09806 2.99911 1.49488Z" fill="white"/>
<path d="M36.3361 0.71875H34.4897V25.103H36.3361V0.71875Z" fill="white"/>
<path d="M64.9852 20.0164C63.1575 22.1068 60.4811 23.2572 57.4484 23.2572C51.5313 23.2572 47.3942 18.9939 47.3942 12.8912C47.3942 6.9093 51.6209 2.56806 57.4484 2.56806C60.0674 2.55276 62.5953 3.52866 64.5246 5.29985L64.8683 5.61161L66.0896 4.29754L65.7545 3.97721C63.555 1.87284 60.6058 0.717773 57.4484 0.717773C50.5812 0.717773 45.5969 5.83607 45.5969 12.8881C45.5969 19.965 50.5851 25.102 57.4484 25.102C60.9635 25.102 64.0998 23.7412 66.2806 21.2697L66.5619 20.9509L65.3289 19.6259L64.9852 20.0164Z" fill="white"/>
<path d="M85.9368 0.798828C79.2285 0.798828 73.7704 6.25461 73.7704 12.9644C73.7704 19.6743 79.2262 25.1308 85.9368 25.1308C92.6474 25.1308 98.1032 19.675 98.1032 12.9644C98.1032 6.25383 92.645 0.798828 85.9368 0.798828ZM96.3238 12.9644C96.3238 18.6922 91.6638 23.3515 85.9368 23.3515C80.2098 23.3515 75.5498 18.6922 75.5498 12.9644C75.5498 7.23665 80.2098 2.57819 85.9368 2.57819C91.6638 2.57819 96.3238 7.23743 96.3238 12.9644Z" fill="white"/>
<path d="M16.5379 1.5645C14.7683 0.947737 12.8769 0.762697 11.0214 1.0248C9.16581 1.2869 7.39972 1.98855 5.8702 3.07131C4.34068 4.15408 3.09199 5.58662 2.22814 7.24963C1.3643 8.91263 0.910287 10.758 0.903931 12.6319V25.1179H2.60458V12.6343C2.60458 9.96773 3.66386 7.4104 5.54939 5.52487C7.43492 3.63934 9.99225 2.58006 12.6588 2.58006C15.3253 2.58006 17.8827 3.63934 19.7682 5.52487C21.6537 7.4104 22.713 9.96773 22.713 12.6343V25.1202H24.4129V12.6273C24.4039 10.1957 23.642 7.82651 22.2318 5.84554C20.8217 3.86456 18.8325 2.36902 16.5379 1.5645V1.5645Z" fill="white"/>
<path d="M95.7053 24.5396C95.7053 24.243 95.7933 23.9531 95.958 23.7065C96.1228 23.4599 96.357 23.2677 96.631 23.1542C96.905 23.0407 97.2066 23.011 97.4974 23.0689C97.7883 23.1267 98.0555 23.2695 98.2652 23.4793C98.475 23.689 98.6178 23.9562 98.6756 24.247C98.7335 24.5379 98.7038 24.8394 98.5903 25.1135C98.4768 25.3875 98.2846 25.6217 98.038 25.7864C97.7914 25.9512 97.5015 26.0392 97.2049 26.0392C96.8072 26.0392 96.4258 25.8812 96.1445 25.5999C95.8633 25.3187 95.7053 24.9373 95.7053 24.5396Z" fill="white"/>
</svg>
