<svg width="96" height="96" viewBox="0 0 96 96" fill="none" xmlns="http://www.w3.org/2000/svg">
<circle cx="47.7685" cy="47.7685" r="47.7685" fill="#F2FFE2"/>
<path d="M30.4409 25.5449C29.996 25.0578 29.3952 24.741 28.7419 24.6492C28.0886 24.5574 27.4238 24.6962 26.8618 25.0418C26.2999 25.3874 25.876 25.9182 25.6633 26.5427C25.4505 27.1671 25.4622 27.8463 25.6963 28.4631C24.5893 28.6425 23.5823 29.2097 22.855 30.0633C22.1278 30.9169 21.7279 32.0013 21.7266 33.1227V70.9289C21.7228 71.8289 21.9784 72.7109 22.4629 73.4694C22.9473 74.2279 23.64 74.8307 24.4581 75.2058C25.0861 75.4998 25.7708 75.653 26.4642 75.6547C27.5739 75.6518 28.6468 75.2568 29.4934 74.5394L29.5218 74.5134L36.9602 68.0934H61.4586L64.0578 70.9455C64.5638 71.502 65.2702 71.8346 66.0215 71.8703C66.7729 71.906 67.5076 71.6417 68.0641 71.1357C68.6206 70.6296 68.9532 69.9232 68.9889 69.1719C69.0246 68.4206 68.7603 67.6859 68.2543 67.1294L30.4409 25.5449ZM35.9039 62.4225C35.2234 62.4213 34.5654 62.6664 34.0514 63.1125L27.3975 68.8567V34.0678H30.526L56.3028 62.4225H35.9039ZM72.765 33.1227V59.1428C72.765 59.8948 72.4663 60.616 71.9346 61.1478C71.4028 61.6796 70.6816 61.9783 69.9296 61.9783C69.1776 61.9783 68.4563 61.6796 67.9246 61.1478C67.3928 60.616 67.0941 59.8948 67.0941 59.1428V34.0678H44.5521C43.8001 34.0678 43.0789 33.7691 42.5471 33.2373C42.0154 32.7056 41.7167 31.9844 41.7167 31.2324C41.7167 30.4803 42.0154 29.7591 42.5471 29.2274C43.0789 28.6956 43.8001 28.3969 44.5521 28.3969H68.0393C69.2926 28.3969 70.4946 28.8948 71.3809 29.781C72.2671 30.6673 72.765 31.8693 72.765 33.1227Z" fill="#1E7B4D"/>
</svg>
