<svg width="106" height="34" viewBox="0 0 106 34" fill="none" xmlns="http://www.w3.org/2000/svg">
<path fill-rule="evenodd" clip-rule="evenodd" d="M86.7232 7.1213L86.7167 7.11805C87.4907 6.27305 88.3481 5.37563 89.2454 4.51219C88.1535 3.9799 87.1449 3.37653 86.1692 2.79284C84.0551 1.52809 82.0953 0.355701 79.7758 0.198804C77.9768 0.0874507 76.1757 0.385147 74.5081 1.06954C74.5081 1.06954 73.6064 -0.154447 70.83 0.242186C68.0534 0.63882 59.5011 4.21162 52.2129 15.8627C45.6251 26.3952 48.7207 32.4346 53.4524 32.3694C58.5808 32.2983 63.458 26.5966 65.1128 21.8959C66.7675 17.1952 64.8153 15.9216 63.3155 16.0425C61.6578 16.1819 58.7295 17.6569 57.1182 20.9168C55.5068 24.1766 55.5068 26.1845 55.5068 26.1845C56.1654 25.4936 56.8816 24.8601 57.6481 24.2912C58.3378 23.7526 59.0978 23.3106 59.907 22.9773C60.0963 22.135 60.378 21.3163 60.7467 20.5355C61.3293 19.3209 62.2528 18.0566 63.393 17.7716C65.7077 17.1921 64.5985 21.4125 62.8973 24.1642C61.9832 25.6329 58.7388 29.8812 55.9531 29.8812C53.1674 29.8812 52.6343 27.1977 53.22 24.6785C53.8056 22.1592 54.6205 18.9739 58.6923 13.1731C62.7641 7.3723 67.1672 3.93274 69.7174 2.49185C72.3359 1.00757 73.4018 1.65829 73.4018 1.65829C73.4018 1.65829 70.0584 3.70963 68.1558 6.18859C66.34 8.556 65.2523 11.2178 66.0951 12.5223C66.9007 13.7649 69.7299 13.7897 72.8502 9.29039C75.9303 4.84685 75.1557 2.20367 75.1557 2.20367C75.3585 2.13774 75.5655 2.08596 75.7754 2.04873C77.2783 1.84731 78.4806 2.24704 80.3397 3.20145C81.2466 3.66706 82.1365 4.26341 83.0869 4.9004C84.1781 5.63151 85.3492 6.4163 86.7167 7.11805L86.7139 7.1213H86.7232ZM74.1021 2.54762C74.1021 2.54762 72.1189 3.33779 69.8135 5.87872C67.5081 8.41965 66.1633 11.2798 67.1579 12.0358C67.5391 12.324 68.4191 12.3736 70.018 10.9358C71.4923 9.65535 72.6494 8.05055 73.3987 6.24747C74.3717 3.8751 74.1353 2.71203 74.1051 2.5635C74.1033 2.55449 74.1021 2.54922 74.1021 2.54762Z" fill="white"/>
<path d="M90.7403 8.55918L90.7389 8.56079C96.1553 9.63294 100.9 6.27704 103.422 3.42005C104.342 2.39763 105.134 1.26647 105.78 0.0517578C104.631 1.24772 103.346 2.30439 101.95 3.20004L101.934 3.19694C99.5857 4.70291 96.3352 6.06943 93.2117 5.76886C92.4215 6.58691 91.5756 7.53202 90.7328 8.55768L90.7403 8.55918Z" fill="white"/>
<path fill-rule="evenodd" clip-rule="evenodd" d="M92.6477 27.8109C92.1985 28.5297 91.6871 29.9085 93.1715 29.0503C94.978 28.006 97.553 24.0923 97.553 24.0923H98.7181C97.6563 25.7279 96.4734 27.2816 95.1794 28.7404C93.3482 30.7701 91.1139 32.6138 89.5398 32.4309C87.7023 32.2171 88.2786 29.8032 88.2786 29.8032C88.2786 29.8032 85.6384 32.592 83.8258 32.4031C81.3684 32.1303 82.1183 29.0936 82.1183 29.0936C82.1183 29.0936 79.3295 32.5023 77.4455 32.3999C74.4769 32.2295 75.2239 28.6072 76.0481 26.0724C76.4912 24.7121 76.9001 23.643 76.9001 23.643C76.9001 23.643 76.6058 23.7205 75.9706 23.8134C75.6389 23.8599 75.041 23.894 75.041 23.894C74.3597 25.0955 73.6171 26.261 72.8161 27.3863C71.8276 28.7001 67.629 33.2148 65.1499 32.3102C62.863 31.4735 63.6191 27.972 64.9516 25.1831C66.8945 21.1269 72.3605 15.2983 75.512 16.0636C78.7812 16.8569 75.5863 22.8188 75.5863 22.8188C75.5863 22.8188 75.5863 22.8404 75.6204 22.856C75.8267 22.8932 76.0391 22.8815 76.2402 22.8218C76.6488 22.7392 77.049 22.6199 77.4362 22.4655C77.4362 22.4655 80.7209 15.5864 84.3494 11.0871C87.978 6.5878 95.2259 -1.15275 98.0675 0.721964C98.7614 1.18367 98.4454 2.77021 97.5097 4.69759C97.088 4.83096 96.6598 4.94267 96.2267 5.03225C96.7457 4.17158 97.1381 3.24069 97.3919 2.26822C97.8194 -0.0558099 92.3906 4.84324 88.5111 10.1172C86.1778 13.2944 84.1052 16.655 82.3136 20.1664C83.0145 19.7403 83.6836 19.2638 84.3154 18.7409C86.0461 17.3057 87.6912 15.7702 89.2424 14.1424C90.7305 12.6092 92.1264 10.9888 93.4225 9.28987C93.8376 9.27034 94.2513 9.22794 94.6619 9.16282C93.2436 11.0862 91.6981 12.9123 90.0356 14.6289C89.8985 14.7659 89.7607 14.904 89.622 15.0429C88.192 16.4748 86.6841 17.9849 85.3566 19.1034C84.0604 20.2121 82.693 21.2349 81.2631 22.165C81.2631 22.165 77.8546 29.0069 79.7139 29.4468C80.7984 29.7071 82.9427 26.4072 82.9427 26.4072C82.9427 26.4072 85.7315 22.1401 87.4234 20.2097C89.7102 17.6068 91.6903 16.107 93.6579 16.0667C94.8106 16.045 95.4893 17.2752 95.4893 17.2752L96.0315 16.4355H99.3688C99.3688 16.4355 93.1373 27.0082 92.6384 27.8046L92.6477 27.8109ZM94.7394 18.4589C94.7801 18.387 94.8133 18.3112 94.8385 18.2328C94.8227 18.1088 94.7648 17.9942 94.6746 17.9079C94.5843 17.8216 94.4672 17.7689 94.3428 17.7586C93.8285 17.7339 93.1219 17.8329 91.2782 19.875C89.7461 21.5659 88.4285 23.4393 87.3552 25.4527C86.2986 27.3832 85.8709 28.8209 86.4783 29.1928C86.6752 29.294 86.9031 29.3173 87.1167 29.2579C87.5288 29.1587 87.9935 28.7744 88.7032 27.9534C88.9686 27.6456 89.258 27.2345 89.5888 26.7647L89.5919 26.7602C89.6732 26.6449 89.757 26.5258 89.8434 26.404C91.0643 24.7431 94.132 19.5125 94.7394 18.4559V18.4589ZM75.5708 20.6775C75.8807 19.8719 76.2712 18.2916 75.4561 17.6718C74.5793 17.0119 72.3575 18.5581 72.3358 20.1508C72.3141 21.7436 73.9069 22.5089 74.288 22.6111C74.5048 22.67 74.5793 22.6607 74.6847 22.4872C75.0216 21.9074 75.3178 21.3048 75.5708 20.6838V20.6775ZM73.882 23.6369C73.3289 23.3811 72.8129 23.0518 72.3482 22.6577C71.8802 22.2669 71.4884 21.793 71.1924 21.2602C71.1667 21.2165 71.1411 21.2451 71.1138 21.2754C71.1079 21.2819 71.1021 21.2884 71.0963 21.2942C71.0613 21.3292 70.9225 21.468 69.7329 23.2092C68.5368 24.96 66.7148 28.5669 68.3694 29.1836C69.4292 29.5771 71.1924 27.7209 72.1591 26.4908C72.8136 25.6327 73.4069 24.7299 73.9348 23.7887C73.9844 23.6834 73.9348 23.6585 73.882 23.6369Z" fill="white"/>
<path d="M55.0948 8.3877H51.9218L50.1277 11.2881H53.3008L55.0948 8.3877Z" fill="white"/>
<path fill-rule="evenodd" clip-rule="evenodd" d="M47.6454 16.323H48.7981C48.7981 16.323 42.9726 24.7422 39.6787 24.358C37.8412 24.1441 38.3865 21.8789 38.3865 21.8789C38.3865 21.8789 35.7991 24.9001 33.4286 24.2959C31.278 23.7443 32.6663 20.1715 32.6663 20.1715C32.6296 20.1863 32.4944 20.3162 32.2801 20.5223C31.0612 21.6935 27.2814 25.3255 24.5012 24.2556C21.0927 22.9357 22.8558 18.5447 23.5066 17.2246C24.0581 16.1122 24.6686 15.0277 24.6686 15.0277C24.6686 15.0277 24.1448 15.1764 23.8163 15.2508C23.488 15.3252 22.9953 15.4212 22.9953 15.4212C22.9953 15.4212 21.3777 18.052 20.3893 19.3628C19.4008 20.6736 15.1958 25.1853 12.7199 24.2866C10.2441 23.3879 10.8608 19.9237 12.2489 17.1596C14.5048 12.6975 19.8594 7.21278 23.0943 8.03704C26.3295 8.86128 23.6553 14.1508 23.6553 14.1508C23.6553 14.1508 24.3029 14.2344 25.8553 13.1747C26.4965 12.7384 27.1955 12.0909 27.9414 11.4001C29.8015 9.67721 31.9524 7.68489 34.2218 8.02773C35.7216 8.25394 37.1192 9.79399 35.2073 12.7161C34.5875 13.6457 33.568 14.4947 32.7809 13.6643C32.2914 13.153 32.7189 12.2079 33.2334 11.5634C33.4344 11.3007 33.6971 11.0915 33.998 10.9543C34.299 10.817 34.6291 10.7559 34.9593 10.7763C34.9593 10.7763 35.4862 9.56469 34.1443 9.58948C33.0567 9.61116 30.305 12.1428 28.7526 14.7023C27.3458 17.0605 25.1922 21.0639 27.3458 21.9377C29.3321 22.7404 33.1124 18.2534 34.8632 15.9015C36.614 13.5496 40.599 8.21986 43.9456 8.00605C45.0983 7.93167 45.7831 8.98214 45.7831 8.98214L46.1704 8.36239H49.5108C49.5108 8.36239 43.2204 18.8949 42.7277 19.6851C42.3405 20.3048 41.826 21.7085 43.2515 20.9246C44.6769 20.1405 47.6454 16.323 47.6454 16.323ZM40.0691 18.4208C41.42 16.5616 45.1447 10.0853 45.1447 10.0853C45.1288 9.96144 45.0709 9.8468 44.9807 9.76051C44.8904 9.67422 44.7735 9.6215 44.649 9.61118C44.1346 9.58638 43.2793 9.75991 41.5503 11.898C39.8212 14.0361 38.5322 15.7373 37.5716 17.5066C36.5118 19.4371 36.0501 20.8006 36.6575 21.1693C36.8549 21.2692 37.0822 21.2922 37.2957 21.2343C37.6924 21.1353 38.2098 20.7386 38.9195 19.9205C39.2542 19.5394 39.6321 19.025 40.0752 18.4208H40.0691ZM23.0479 9.65146C22.1709 8.98833 19.9493 10.5377 19.9276 12.1304C19.9058 13.7232 21.9416 14.2189 22.2051 14.2313C22.2638 14.2468 22.326 14.2424 22.3821 14.2189C22.4382 14.1954 22.4848 14.154 22.515 14.1012C22.7532 13.6343 22.9674 13.1554 23.1564 12.6665C23.4663 11.8608 23.8535 10.2805 23.0386 9.66075L23.0479 9.65146ZM21.7155 15.2384C21.111 15.0493 20.533 14.7838 19.9958 14.4482C19.4717 14.1098 19.0446 13.6411 18.7563 13.0879C18.7292 13.042 18.6999 13.0761 18.6722 13.1082C18.6682 13.1129 18.6642 13.1176 18.6602 13.122C18.6292 13.1561 18.4495 13.3916 17.2565 15.1424C16.0635 16.8931 14.2941 20.4751 15.9519 21.0888C17.0116 21.4823 18.7934 19.6199 19.7572 18.3897C20.4833 17.4297 21.1548 16.4292 21.7681 15.3934C21.8084 15.288 21.7681 15.2632 21.7092 15.2446L21.7155 15.2384Z" fill="white"/>
<path d="M45.8232 33.1807C43.3588 31.4752 40.4083 30.614 37.4134 30.7265C36.6028 30.7484 35.8086 30.9613 35.0957 31.348C34.3828 31.7345 33.7713 32.2838 33.3107 32.9514C32.0341 30.7235 29.5117 29.357 25.6105 29.3878C22.3073 29.4253 19.0171 30.2414 15.921 31.0092C13.1095 31.7065 10.458 32.3641 8.10284 32.3626C3.34937 32.3626 -0.111873 29.3756 0.0027659 24.0736C0.207325 14.7775 8.05938 6.41106 13.947 2.63684C17.3214 0.467754 20.1443 -0.170577 22.0036 0.0370348C23.3515 0.185772 24.9721 1.74443 23.9495 4.04055C22.4467 7.40265 20.3706 7.12066 20.4481 5.51553C20.4802 5.09681 20.6115 4.6917 20.8306 4.3335C21.05 3.97528 21.3511 3.67418 21.7091 3.45489C22.0893 3.24798 22.5159 3.14133 22.9487 3.14503C23.2585 2.89404 23.4723 1.05651 21.0553 1.66076C18.6384 2.265 15.6946 4.6417 12.9182 7.70941C10.1418 10.7771 5.82217 16.5717 4.75308 22.6576C4.25421 25.4805 4.58569 30.6275 11.2603 30.5716C13.8338 30.5505 16.9648 29.7697 20.3362 28.9291C24.3901 27.9184 28.7914 26.821 32.9884 26.8532C35.6656 26.8419 38.2948 27.5619 40.5926 28.9356C42.5821 30.175 44.965 31.9474 45.8109 33.1683L45.8232 33.1807Z" fill="white"/>
</svg>
