<svg width="119" height="33" viewBox="0 0 119 33" fill="none" xmlns="http://www.w3.org/2000/svg">
<path d="M37.3961 23.8222V6.88574H44.2656C47.7235 6.88574 49.4527 8.39778 49.4534 11.4218C49.4534 14.7146 47.0885 16.724 42.3588 17.45L41.9086 15.6031C45.3816 15.09 47.118 13.7281 47.118 11.5172C47.118 9.63787 46.0994 8.69822 44.0622 8.69822H39.5841V23.8222H37.3961Z" fill="white"/>
<path d="M50.0687 20.0687C50.0687 17.519 51.7505 16.2439 55.114 16.2432C56.1995 16.244 57.2835 16.3231 58.3576 16.4801V15.3075C58.3576 13.879 57.2403 13.1644 55.0059 13.1638C53.6738 13.1708 52.3497 13.3694 51.0742 13.7535V11.9794C52.3498 11.5957 53.6738 11.3971 55.0059 11.3896C58.7009 11.3896 60.5484 12.6766 60.5484 15.2505V23.8234H59.3149L58.5571 22.5918C57.3623 23.399 55.9524 23.8281 54.5105 23.8234C51.5487 23.8234 50.0681 22.5718 50.0687 20.0687ZM55.114 18.0243C53.2137 18.0243 52.2636 18.6952 52.2636 20.0372C52.2636 21.3792 53.0138 22.0506 54.5144 22.0512C56.03 22.0512 57.3131 21.6485 58.3635 20.8432V18.2572C57.2874 18.1008 56.2014 18.0229 55.114 18.0243V18.0243Z" fill="white"/>
<path d="M62.92 23.8222V11.3865H64.4013L64.7944 12.9739C65.3102 12.4596 65.9239 12.0541 66.5993 11.7815C67.2746 11.5088 67.9978 11.3745 68.7261 11.3865V13.2068C67.2419 13.2068 66.0378 13.731 65.1139 14.7795V23.8222H62.92Z" fill="white"/>
<path d="M70.7737 23.8222V11.3865H72.2549L72.6481 12.9739C73.1638 12.4596 73.7776 12.0541 74.4529 11.7815C75.1283 11.5088 75.8515 11.3745 76.5797 11.3865V13.2068C75.0942 13.2068 73.8901 13.731 72.9675 14.7795V23.8222H70.7737Z" fill="white"/>
<path d="M76.9896 17.6046C76.9896 13.4593 78.9636 11.3867 82.9116 11.3867C86.8596 11.3867 88.8336 13.4593 88.8336 17.6046C88.8336 21.7426 86.8596 23.8113 82.9116 23.8106C78.98 23.8106 77.006 21.7419 76.9896 17.6046ZM82.9116 22.0463C85.4016 22.0463 86.6467 20.55 86.6467 17.5574C86.6467 14.6283 85.4016 13.1635 82.9116 13.1628C80.4216 13.1622 79.1766 14.627 79.1766 17.5574C79.1799 20.55 80.4249 22.0463 82.9116 22.0463Z" fill="white"/>
<path d="M91.0154 9.37402H92.3914L92.8652 11.387H96.2287V13.1631H93.2082V20.3049C93.2082 21.4654 93.7095 22.046 94.7121 22.0466H96.2287V23.8227H94.144C92.0589 23.8227 91.0167 22.7055 91.0173 20.471L91.0154 9.37402Z" fill="white"/>
<path d="M98.5062 23.8214V10.7812C98.5062 7.77355 100.212 6.26937 103.623 6.26872C104.529 6.26267 105.429 6.42326 106.277 6.74248V8.51957C105.428 8.19151 104.523 8.03064 103.612 8.04581C101.67 8.04581 100.699 8.92616 100.699 10.6869V11.3857H104.548V13.1618H100.695V23.8214H98.5062Z" fill="white"/>
<path d="M106.789 11.3867H109.17L112.687 21.0988L116.323 11.3867H118.645L113.481 24.19C112.564 26.4474 111.19 27.8563 109.36 28.4165L108.516 26.8694C109.867 26.2989 110.951 25.2365 111.549 23.8971L106.789 11.3867Z" fill="white"/>
<path d="M33.6395 30.8524H20.8617V26.7389C24.127 24.8645 25.9729 22.4505 26.3454 19.5578C26.598 17.6028 26.1429 15.6616 25.39 13.9081C27.9927 12.762 28.8498 9.7052 29.1113 8.28785H30.0165C30.1258 8.28802 30.2339 8.26588 30.3343 8.22278C30.4346 8.17967 30.5252 8.11652 30.6003 8.03718C30.6754 7.95785 30.7335 7.86401 30.771 7.76142C30.8085 7.65883 30.8247 7.54966 30.8186 7.44059C30.5945 3.42542 28.4262 1.57756 26.4505 0.725384C26.3708 0.675546 26.283 0.639959 26.1911 0.620213C25.219 0.238592 24.188 0.0287348 23.1441 0H17.2358C12.971 0 9.44335 3.46965 9.37258 7.73448C9.13177 22.4407 4.11502 25.5044 4.07374 25.525C3.91628 25.61 3.7917 25.7451 3.71978 25.909C3.64786 26.0728 3.63272 26.256 3.67675 26.4294C3.72078 26.6028 3.82147 26.7566 3.96284 26.8662C4.1042 26.9759 4.27815 27.0352 4.45708 27.0348H11.7836V30.8485H0.832123C0.724239 30.8447 0.616699 30.8627 0.515916 30.9014C0.415134 30.94 0.323172 30.9986 0.245517 31.0736C0.167861 31.1486 0.106102 31.2384 0.0639204 31.3378C0.0217392 31.4372 0 31.544 0 31.652C0 31.7599 0.0217392 31.8668 0.0639204 31.9661C0.106102 32.0655 0.167861 32.1554 0.245517 32.2304C0.323172 32.3053 0.415134 32.3639 0.515916 32.4026C0.616699 32.4413 0.724239 32.4593 0.832123 32.4555H33.6395C33.7474 32.4593 33.8549 32.4413 33.9557 32.4026C34.0565 32.3639 34.1485 32.3053 34.2261 32.2304C34.3038 32.1554 34.3655 32.0655 34.4077 31.9661C34.4499 31.8668 34.4716 31.7599 34.4716 31.652C34.4716 31.544 34.4499 31.4372 34.4077 31.3378C34.3655 31.2384 34.3038 31.1486 34.2261 31.0736C34.1485 30.9986 34.0565 30.94 33.9557 30.9014C33.8549 30.8627 33.7474 30.8447 33.6395 30.8485V30.8524ZM24.7501 19.3524C24.5142 21.1786 23.5185 22.7926 21.7867 24.1785C22.5523 21.7536 22.4629 19.6237 21.5124 17.825C20.5846 16.0705 18.9952 14.9451 17.4953 14.2334C18.8203 13.8304 19.7953 13.1591 20.4096 12.2244C20.8292 11.5734 21.0705 10.8237 21.1094 10.0502C22.861 12.2146 25.2082 15.8425 24.7501 19.3524ZM24.6833 12.4613C23.8527 10.9685 22.8642 9.56932 21.7346 8.28785H27.4688C27.1966 9.51943 26.4761 11.6966 24.6833 12.4613V12.4613ZM26.2019 2.357C27.4796 3.02636 28.7623 4.29136 29.126 6.68178H21.825L26.2019 2.357ZM19.2537 30.8524H13.3927V27.0672H15.555C15.6042 27.0774 15.6543 27.0826 15.7044 27.0829C15.7527 27.0821 15.8007 27.0768 15.848 27.0672H19.2576L19.2537 30.8524ZM19.5555 25.4631L6.47596 25.4317C8.23732 23.2693 10.8076 18.3125 10.9806 7.76101C11.0169 6.12306 11.6909 4.5639 12.859 3.41518C14.0272 2.26646 15.5975 1.61881 17.2358 1.61H23.1608C23.6179 1.61075 24.0737 1.66084 24.5201 1.7594L19.3029 6.91768C19.293 6.92751 19.2852 6.93931 19.2763 6.94914C19.2675 6.95896 19.2459 6.98157 19.2321 6.99926C19.2183 7.01696 19.2105 7.0317 19.1997 7.04743C19.1876 7.06452 19.1764 7.08224 19.1662 7.1005C19.1564 7.11819 19.1476 7.13785 19.1387 7.15653C19.1299 7.1752 19.1259 7.1811 19.121 7.19486C19.1161 7.20862 19.121 7.20469 19.1161 7.21059C19.1112 7.21648 19.1033 7.25089 19.0974 7.27054C19.0915 7.2902 19.0856 7.3079 19.0817 7.32657C19.0778 7.34525 19.0758 7.36687 19.0729 7.38653C19.0699 7.40619 19.0679 7.42584 19.067 7.4455C19.066 7.46516 19.067 7.4858 19.067 7.50546C19.067 7.52512 19.067 7.54576 19.067 7.56542C19.067 7.58507 19.0729 7.60473 19.0758 7.62341C19.0787 7.64358 19.0826 7.6636 19.0876 7.68336C19.0925 7.70204 19.0984 7.72071 19.1043 7.73939C19.1102 7.75807 19.1181 7.77969 19.1259 7.79935L19.1338 7.81999C19.1427 7.83965 20.0184 9.89097 19.065 11.3466C18.2905 12.5261 16.42 13.1267 13.659 13.0834C13.4537 13.0787 13.2545 13.1535 13.1031 13.2921C12.9516 13.4308 12.8595 13.6226 12.8462 13.8275C12.8313 14.0318 12.8949 14.2341 13.024 14.3932C13.1531 14.5523 13.3381 14.6561 13.5411 14.6836C13.5902 14.6895 18.4015 15.3716 20.097 18.5867C21.0416 20.3835 20.8598 22.6933 19.5555 25.4631Z" fill="white"/>
<path d="M16.28 6.61703C17.206 6.58404 17.93 5.80659 17.897 4.88055C17.864 3.9545 17.0866 3.23053 16.1605 3.26352C15.2345 3.2965 14.5105 4.07395 14.5435 5C14.5765 5.92604 15.3539 6.65001 16.28 6.61703Z" fill="white"/>
</svg>
