<svg width="96" height="96" viewBox="0 0 96 96" fill="none" xmlns="http://www.w3.org/2000/svg">
<circle cx="47.7685" cy="47.7685" r="47.7685" fill="#F2FFE2"/>
<g clip-path="url(#clip0_2298_66720)">
<path d="M74.8127 41.733H68.9551L58.7025 27.6123C58.278 27.0292 57.7257 26.551 57.0878 26.2143C56.4499 25.8777 55.7434 25.6915 55.0225 25.6701C54.3015 25.6486 53.5852 25.7925 52.9284 26.0907C52.2717 26.3888 51.6919 26.8334 51.2335 27.3902L48.2042 30.9015C48.1806 30.9275 48.157 30.9558 48.1357 30.9842C48.0471 31.0929 47.9353 31.1805 47.8087 31.2406C47.682 31.3008 47.5435 31.332 47.4032 31.332C47.2629 31.332 47.1245 31.3008 46.9978 31.2406C46.8711 31.1805 46.7593 31.0929 46.6707 30.9842C46.6494 30.9558 46.6258 30.9275 46.6022 30.9015L43.573 27.3902C43.1145 26.8334 42.5347 26.3888 41.878 26.0907C41.2212 25.7925 40.5049 25.6486 39.784 25.6701C39.063 25.6915 38.3565 25.8777 37.7186 26.2143C37.0807 26.551 36.5284 27.0292 36.1039 27.6123L25.8513 41.733H19.9937C19.2417 41.733 18.5204 42.0317 17.9887 42.5635C17.4569 43.0952 17.1582 43.8164 17.1582 44.5684C17.1582 45.3204 17.4569 46.0417 17.9887 46.5734C18.5204 47.1052 19.2417 47.4039 19.9937 47.4039H74.8127C75.5647 47.4039 76.286 47.1052 76.8177 46.5734C77.3495 46.0417 77.6482 45.3204 77.6482 44.5684C77.6482 43.8164 77.3495 43.0952 76.8177 42.5635C76.286 42.0317 75.5647 41.733 74.8127 41.733ZM39.9885 31.9152L42.2781 34.571C42.8986 35.3311 43.6803 35.9436 44.5668 36.3643C45.4532 36.7849 46.422 37.0031 47.4032 37.0031C48.3844 37.0031 49.3532 36.7849 50.2397 36.3643C51.1261 35.9436 51.9078 35.3311 52.5283 34.571L54.818 31.9152L61.9468 41.733H32.8596L39.9885 31.9152ZM59.6902 50.2394C57.6795 50.2418 55.7218 50.8843 54.1006 52.0739C52.4795 53.2634 51.2791 54.9381 50.6734 56.8555H44.133C43.4555 54.7013 42.0292 52.8609 40.1123 51.6674C38.1953 50.4739 35.9144 50.0061 33.6824 50.3488C31.4504 50.6915 29.4149 51.822 27.9443 53.5356C26.4737 55.2493 25.6652 57.4328 25.6652 59.6909C25.6652 61.9491 26.4737 64.1326 27.9443 65.8462C29.4149 67.5599 31.4504 68.6903 33.6824 69.033C35.9144 69.3757 38.1953 68.908 40.1123 67.7145C42.0292 66.5209 43.4555 64.6805 44.133 62.5264H50.6734C51.1975 64.1928 52.1731 65.6814 53.492 66.8268C54.8109 67.9723 56.4214 68.7298 58.1447 69.0154C59.8681 69.3009 61.6369 69.1033 63.2547 68.4444C64.8725 67.7855 66.2761 66.6911 67.3096 65.2828C68.3431 63.8745 68.9661 62.2073 69.1094 60.4663C69.2527 58.7253 68.9107 56.9787 68.1214 55.4203C67.3321 53.862 66.1264 52.5528 64.638 51.6383C63.1497 50.7237 61.4371 50.2395 59.6902 50.2394ZM35.1162 63.4716C34.3684 63.4716 33.6375 63.2498 33.0158 62.8344C32.394 62.419 31.9095 61.8285 31.6233 61.1377C31.3372 60.4469 31.2623 59.6867 31.4082 58.9534C31.5541 58.22 31.9141 57.5464 32.4429 57.0176C32.9716 56.4889 33.6452 56.1288 34.3786 55.983C35.112 55.8371 35.8721 55.9119 36.563 56.1981C37.2538 56.4842 37.8442 56.9688 38.2596 57.5905C38.6751 58.2123 38.8968 58.9432 38.8968 59.6909C38.8968 60.6936 38.4985 61.6552 37.7895 62.3642C37.0805 63.0732 36.1189 63.4716 35.1162 63.4716ZM59.6902 63.4716C58.9425 63.4716 58.2116 63.2498 57.5898 62.8344C56.9681 62.419 56.4835 61.8285 56.1974 61.1377C55.9112 60.4469 55.8364 59.6867 55.9823 58.9534C56.1281 58.22 56.4882 57.5464 57.0169 57.0176C57.5457 56.4889 58.2193 56.1288 58.9527 55.983C59.686 55.8371 60.4462 55.9119 61.137 56.1981C61.8278 56.4842 62.4183 56.9688 62.8337 57.5905C63.2491 58.2123 63.4709 58.9432 63.4709 59.6909C63.4709 60.6936 63.0725 61.6552 62.3635 62.3642C61.6545 63.0732 60.6929 63.4716 59.6902 63.4716Z" fill="#1E7B4D"/>
</g>
<defs>
<clipPath id="clip0_2298_66720">
<rect width="60.49" height="60.49" fill="white" transform="translate(17.1582 17.1587)"/>
</clipPath>
</defs>
</svg>
