<svg width="172" height="34" viewBox="0 0 172 34" fill="none" xmlns="http://www.w3.org/2000/svg">
<path d="M18.002 9.70479L15.8178 15.1003C15.2706 16.4515 15.3746 17.9865 16.0982 19.2458L16.772 20.4223L21.1178 9.7002H18.002V9.70479Z" fill="white"/>
<path d="M18.002 9.71358L15.8178 15.1091C15.2706 16.4603 15.3746 17.9953 16.0982 19.2546L16.772 20.4311L21.1178 9.70898H18.002V9.71358Z" fill="white"/>
<path d="M16.1475 12.6228L17.3007 9.70898L9.5271 9.72277L9.916 10.3984C10.7074 11.7725 12.1545 12.6182 13.7236 12.6182L16.152 12.6274L16.1475 12.6228Z" fill="white"/>
<path d="M36.1172 24.1872V9.71484H37.9261V22.6935H44.1259V24.1826H36.1127L36.1172 24.1872Z" fill="white"/>
<path d="M46.6942 24.1899V9.74512H54.608L53.9975 11.2342H48.5031V16.0552H53.9613V17.5259H48.5031V22.7008H54.7798V24.1899H46.6942Z" fill="white"/>
<path d="M27.3983 9.69727H26.7743L20.6241 24.188H22.5234C22.5234 24.188 26.6702 13.7416 27.0637 12.7673H27.1089C28.0178 15.079 29.5509 18.9028 29.5509 18.9028H25.3091L24.7438 20.3275H30.1026L31.6536 24.1834H33.5529L27.3983 9.69727Z" fill="white"/>
<path d="M85.5898 9.69727H84.9658L78.8157 24.188H80.715C80.715 24.188 84.8618 13.7416 85.2552 12.7673H85.3004C86.2094 15.079 87.7424 18.9028 87.7424 18.9028H83.5006L82.9353 20.3275H88.2941L89.8452 24.1834H91.7445L85.5898 9.69727Z" fill="white"/>
<path d="M113.545 24.1899H109.901V9.74512H113.446C119.673 9.74512 122.35 12.8381 122.35 16.8273C122.35 20.8165 119.696 24.1945 113.545 24.1945V24.1899ZM113.767 11.2342H111.709V22.7008H113.717C118.75 22.7008 120.487 19.9387 120.487 16.8043C120.487 13.67 118.429 11.2388 113.767 11.2388V11.2342Z" fill="white"/>
<path d="M138.132 24.1886V9.70703H139.941V24.1886H138.132Z" fill="white"/>
<path d="M59.4563 12.965C59.4563 11.5633 60.8446 10.9934 62.4319 10.9934C63.4675 10.9934 64.5166 11.2416 65.3396 11.6001C65.4617 11.3013 65.6969 10.7269 65.9185 10.1891C65.1949 9.87203 64.0508 9.52734 62.3822 9.52734C59.4066 9.52734 57.6701 11.0853 57.6701 13.1213C57.6701 14.2381 58.1404 15.0745 58.8368 15.7317C60.8446 17.639 64.7653 18.163 64.7653 20.7091C64.7653 22.2441 63.0062 22.8783 61.5139 22.8783C59.8769 22.8783 58.5609 22.2625 57.9414 21.8718L57.8962 21.9407L57.3354 23.3149C58.2399 23.8021 59.601 24.3076 61.5365 24.3076C64.4895 24.3076 66.6963 22.7956 66.6963 20.5574C66.6963 16.2189 59.4518 16.1959 59.4518 12.9742L59.4563 12.965Z" fill="white"/>
<path d="M70.4134 12.965C70.4134 11.5633 71.8017 10.9934 73.3889 10.9934C74.4245 10.9934 75.4736 11.2416 76.2967 11.6001C76.4188 11.3013 76.6539 10.7269 76.8755 10.1891C76.152 9.87203 75.0079 9.52734 73.3392 9.52734C70.3636 9.52734 68.6271 11.0853 68.6271 13.1213C68.6271 14.2381 69.0974 15.0745 69.7938 15.7317C71.8017 17.639 75.7224 18.163 75.7224 20.7091C75.7224 22.2441 73.9632 22.8783 72.4709 22.8783C70.8339 22.8783 69.518 22.2625 68.8984 21.8718L68.8532 21.9407L68.2925 23.3149C69.1969 23.8021 70.5581 24.3076 72.4936 24.3076C75.4465 24.3076 77.6533 22.7956 77.6533 20.5574C77.6533 16.2189 70.4088 16.1959 70.4088 12.9742L70.4134 12.965Z" fill="white"/>
<path d="M104.872 24.1899C104.872 24.1899 96.3386 12.8611 96.0447 12.2912H95.9949C96.0175 12.7738 96.0447 13.1874 96.0447 13.9549V24.1899H94.2539V9.74512H96.117C96.117 9.74512 104.456 20.9912 104.75 21.5611H104.8C104.777 21.0785 104.75 20.5729 104.75 19.8054V9.74512H106.541V24.1899H104.872Z" fill="white"/>
<path d="M132.629 19.2504C133.534 18.8965 134.244 18.3496 134.75 17.6143C135.288 16.8284 135.564 15.854 135.564 14.7189C135.564 13.1655 135.062 11.9292 134.072 11.0376C133.086 10.1506 131.716 9.7002 129.993 9.7002H124.878V24.1863H126.601V22.9271V15.8862V11.3271H129.952C131.214 11.3271 132.191 11.6213 132.851 12.2049C133.502 12.784 133.837 13.6296 133.837 14.7189C133.837 15.8081 133.507 16.617 132.851 17.2006C132.191 17.7889 131.218 18.0876 129.952 18.0876H127.248V19.6916H129.988C130.323 19.6916 130.653 19.6732 130.965 19.641L133.981 24.1817H135.908L132.62 19.2458L132.629 19.2504Z" fill="white"/>
<path d="M160.151 24.1886V9.70703H161.96V24.1886H160.151Z" fill="white"/>
<path d="M154.648 19.2504C155.552 18.8965 156.262 18.3496 156.769 17.6143C157.307 16.8284 157.583 15.854 157.583 14.7189C157.583 13.1655 157.081 11.9292 156.09 11.0376C155.104 10.1506 153.734 9.7002 152.011 9.7002H146.897V24.1863H148.62V22.9271V15.8862V11.3271H151.971C153.232 11.3271 154.209 11.6213 154.869 12.2049C155.52 12.784 155.855 13.6296 155.855 14.7189C155.855 15.8081 155.525 16.617 154.869 17.2006C154.209 17.7889 153.237 18.0876 151.971 18.0876H149.266V19.6916H152.007C152.341 19.6916 152.672 19.6732 152.984 19.641H153.417L153.852 19.5254L154.639 19.2458L154.648 19.2504Z" fill="white"/>
</svg>
