<svg width="63" height="63" viewBox="0 0 63 63" fill="none" xmlns="http://www.w3.org/2000/svg">
<g clip-path="url(#clip0_2078_15734)">
<path d="M62.5816 26.556L56.3013 13.9904C56.0699 13.528 55.7497 13.1156 55.3589 12.7768C54.9682 12.4381 54.5145 12.1797 54.0239 12.0163C53.5333 11.8529 53.0152 11.7877 52.4994 11.8245C51.9836 11.8614 51.4801 11.9994 51.0176 12.2309L44.8973 15.2898L32.0044 11.879C31.6736 11.7929 31.3263 11.7929 30.9954 11.879L18.1026 15.2898L11.9822 12.2309C11.5198 11.9994 11.0163 11.8614 10.5004 11.8245C9.98461 11.7877 9.46659 11.8529 8.97595 12.0163C8.48531 12.1797 8.03166 12.4381 7.64091 12.7768C7.25015 13.1156 6.92996 13.528 6.69859 13.9904L0.418282 26.5535C0.186846 27.016 0.0487732 27.5195 0.0119489 28.0353C-0.0248754 28.5511 0.0402701 29.0692 0.203665 29.5598C0.36706 30.0504 0.625504 30.5041 0.964238 30.8948C1.30297 31.2856 1.71536 31.6058 2.17785 31.8372L8.82238 35.1619L22.4781 44.9146C22.6793 45.0577 22.9055 45.1621 23.145 45.2222L38.895 49.1597C39.2249 49.2424 39.5705 49.2383 39.8983 49.1477C40.2261 49.0572 40.5248 48.8832 40.7654 48.6429L54.3177 35.0881L60.8195 31.8372C61.7529 31.3699 62.4626 30.5511 62.7926 29.5608C63.1225 28.5705 63.0457 27.4897 62.5791 26.556H62.5816ZM49.0735 34.7681L40.6054 27.9858C40.226 27.682 39.7477 27.5292 39.2625 27.557C38.7772 27.5847 38.3194 27.7909 37.9771 28.1359C33.5942 32.5508 28.7092 31.9922 25.5937 30.0235L36.2348 19.6875H44.063L50.7592 33.0775L49.0735 34.7681ZM10.2202 15.75L15.2577 18.2651L8.96512 30.8282L3.93742 28.3156L10.2202 15.75ZM38.7671 45.0672L24.4666 41.4939L12.3588 32.8461L19.2494 19.0649L31.4999 15.8189L33.9116 16.4563L22.8374 27.2057L22.8177 27.2278C22.4009 27.6447 22.0829 28.1498 21.8874 28.706C21.6918 29.2622 21.6237 29.8552 21.6879 30.4412C21.7522 31.0272 21.9472 31.5913 22.2586 32.0919C22.57 32.5925 22.9898 33.0168 23.4871 33.3334C28.5468 36.5646 34.6524 36.0404 39.4611 32.1029L46.2655 37.5687L38.7671 45.0672ZM54.0249 30.8257L47.7446 18.2749L52.7796 15.75L59.0624 28.3156L54.0249 30.8257ZM32.4302 53.6312C32.3238 54.0567 32.0784 54.4345 31.7329 54.7047C31.3874 54.9749 30.9615 55.1219 30.5229 55.1226C30.3612 55.1223 30.2 55.1025 30.043 55.0635L19.7883 52.4992C19.5485 52.44 19.3221 52.3356 19.1214 52.1916L12.6368 47.5601C12.2381 47.247 11.9755 46.7922 11.9037 46.2904C11.8319 45.7886 11.9565 45.2784 12.2514 44.8661C12.5464 44.4538 12.989 44.1712 13.4871 44.0771C13.9852 43.983 14.5005 44.0846 14.9255 44.3609L21.1049 48.7758L31.0077 51.2466C31.5142 51.3733 31.9496 51.6959 32.2182 52.1436C32.4867 52.5912 32.5665 53.1272 32.44 53.6337L32.4302 53.6312Z" fill="#FF7676"/>
</g>
<defs>
<clipPath id="clip0_2078_15734">
<rect width="63" height="63" fill="white"/>
</clipPath>
</defs>
</svg>
