<svg width="61" height="61" viewBox="0 0 61 61" fill="none" xmlns="http://www.w3.org/2000/svg">
<path d="M42.4141 8.5781C40.348 8.57282 38.3014 8.97716 36.3926 9.76776C34.4839 10.5584 32.7507 11.7195 31.2935 13.1841L30.5 13.9776L29.7065 13.1841C27.5071 10.9846 24.7049 9.4867 21.6542 8.87985C18.6034 8.273 15.4413 8.58444 12.5676 9.77478C9.69387 10.9651 7.23768 12.9809 5.50963 15.5672C3.78158 18.1535 2.85929 21.1942 2.85938 24.3047C2.85938 41.5419 28.0719 55.3146 29.1442 55.8936C29.5609 56.118 30.0267 56.2355 30.5 56.2355C30.9733 56.2355 31.4391 56.118 31.8558 55.8936C32.9281 55.3146 58.1406 41.5419 58.1406 24.3047C58.1356 20.1353 56.4771 16.1381 53.5288 13.1899C50.5806 10.2417 46.5835 8.58314 42.4141 8.5781ZM41.1059 42.4998C37.7873 45.3159 34.2397 47.8505 30.5 50.0772C26.7603 47.8505 23.2127 45.3159 19.8941 42.4998C14.7305 38.0702 8.57812 31.3149 8.57812 24.3047C8.57798 22.3252 9.16485 20.3902 10.2645 18.7442C11.3642 17.0983 12.9272 15.8155 14.756 15.058C16.5848 14.3004 18.5971 14.1022 20.5386 14.4885C22.48 14.8747 24.2633 15.8279 25.6629 17.2277L26.4492 18.0212L24.6573 19.8131C24.3908 20.0787 24.1793 20.3944 24.0349 20.7419C23.8906 21.0895 23.8163 21.4621 23.8163 21.8385C23.8163 22.2148 23.8906 22.5874 24.0349 22.935C24.1793 23.2825 24.3908 23.5982 24.6573 23.8638L29.828 29.0345L26.5636 32.2966C26.2976 32.5626 26.0866 32.8784 25.9427 33.2259C25.7987 33.5734 25.7246 33.9459 25.7246 34.322C25.7246 34.6982 25.7987 35.0706 25.9427 35.4181C26.0866 35.7657 26.2976 36.0814 26.5636 36.3474C26.8296 36.6134 27.1453 36.8244 27.4928 36.9683C27.8404 37.1123 28.2128 37.1863 28.589 37.1863C28.9651 37.1863 29.3376 37.1123 29.6851 36.9683C30.0326 36.8244 30.3484 36.6134 30.6144 36.3474L35.8995 31.0599C36.166 30.7943 36.3775 30.4786 36.5219 30.1311C36.6662 29.7835 36.7405 29.4109 36.7405 29.0345C36.7405 28.6582 36.6662 28.2856 36.5219 27.938C36.3775 27.5905 36.166 27.2748 35.8995 27.0092L30.7383 21.8337L35.3371 17.2277C36.7367 15.8279 38.52 14.8747 40.4614 14.4885C42.4029 14.1022 44.4152 14.3004 46.244 15.058C48.0728 15.8155 49.6358 17.0983 50.7355 18.7442C51.8351 20.3902 52.422 22.3252 52.4219 24.3047C52.4219 31.3149 46.2695 38.0702 41.1059 42.4998Z" fill="#FF6363"/>
</svg>
