<svg width="70" height="70" viewBox="0 0 70 70" fill="none" xmlns="http://www.w3.org/2000/svg">
<path d="M35 23.8889C32.8024 23.8889 30.6542 24.5405 28.827 25.7614C26.9998 26.9824 25.5756 28.7177 24.7347 30.748C23.8937 32.7783 23.6737 35.0123 24.1024 37.1677C24.5311 39.323 25.5893 41.3028 27.1433 42.8567C28.6972 44.4107 30.677 45.4689 32.8323 45.8976C34.9877 46.3263 37.2217 46.1063 39.252 45.2653C41.2823 44.4244 43.0176 43.0002 44.2385 41.173C45.4595 39.3458 46.1111 37.1976 46.1111 35C46.108 32.0541 44.9364 29.2297 42.8534 27.1466C40.7703 25.0636 37.9459 23.892 35 23.8889ZM35 40.5556C33.9012 40.5556 32.8271 40.2297 31.9135 39.6193C30.9999 39.0088 30.2878 38.1412 29.8673 37.126C29.4468 36.1109 29.3368 34.9938 29.5512 33.9162C29.7656 32.8385 30.2947 31.8486 31.0716 31.0716C31.8486 30.2947 32.8385 29.7656 33.9162 29.5512C34.9938 29.3368 36.1109 29.4468 37.126 29.8673C38.1412 30.2878 39.0088 30.9999 39.6193 31.9135C40.2297 32.8271 40.5556 33.9012 40.5556 35C40.5556 36.4734 39.9702 37.8865 38.9284 38.9284C37.8865 39.9702 36.4734 40.5556 35 40.5556ZM46.1111 10H23.8889C20.2066 10.0043 16.6764 11.469 14.0727 14.0727C11.469 16.6764 10.0043 20.2066 10 23.8889V46.1111C10.0043 49.7934 11.469 53.3236 14.0727 55.9273C16.6764 58.531 20.2066 59.9957 23.8889 60H46.1111C49.7934 59.9957 53.3236 58.531 55.9273 55.9273C58.531 53.3236 59.9957 49.7934 60 46.1111V23.8889C59.9957 20.2066 58.531 16.6764 55.9273 14.0727C53.3236 11.469 49.7934 10.0043 46.1111 10ZM54.4444 46.1111C54.4444 48.3212 53.5665 50.4409 52.0037 52.0037C50.4409 53.5665 48.3212 54.4444 46.1111 54.4444H23.8889C21.6788 54.4444 19.5591 53.5665 17.9963 52.0037C16.4335 50.4409 15.5556 48.3212 15.5556 46.1111V23.8889C15.5556 21.6788 16.4335 19.5591 17.9963 17.9963C19.5591 16.4335 21.6788 15.5556 23.8889 15.5556H46.1111C48.3212 15.5556 50.4409 16.4335 52.0037 17.9963C53.5665 19.5591 54.4444 21.6788 54.4444 23.8889V46.1111ZM50.7407 22.963C50.7407 23.6955 50.5235 24.4116 50.1166 25.0206C49.7096 25.6297 49.1311 26.1044 48.4544 26.3847C47.7776 26.6651 47.0329 26.7384 46.3145 26.5955C45.596 26.4526 44.9361 26.0998 44.4181 25.5819C43.9002 25.0639 43.5474 24.404 43.4045 23.6855C43.2616 22.9671 43.3349 22.2224 43.6153 21.5456C43.8956 20.8689 44.3703 20.2904 44.9794 19.8834C45.5884 19.4765 46.3045 19.2593 47.037 19.2593C48.0193 19.2593 48.9614 19.6495 49.6559 20.344C50.3505 21.0386 50.7407 21.9807 50.7407 22.963Z" fill="#101943"/>
</svg>
