<svg width="122" height="122" viewBox="0 0 122 122" fill="none" xmlns="http://www.w3.org/2000/svg">
<path d="M120.094 60.9995C120.095 66.6553 118.418 72.1843 115.276 76.8872C112.134 81.59 107.668 85.2555 102.443 87.4199C97.2179 89.5844 91.4681 90.1507 85.921 89.0471C80.3739 87.9435 75.2787 85.2197 71.2798 81.2201L71.0463 80.9675L42.5193 48.7566C40.1075 46.389 37.0501 44.7865 33.7309 44.1501C30.4117 43.5138 26.9784 43.872 23.862 45.1797C20.7456 46.4875 18.0848 48.6866 16.2137 51.501C14.3425 54.3154 13.3443 57.6199 13.3443 60.9995C13.3443 64.3792 14.3425 67.6836 16.2137 70.4981C18.0848 73.3125 20.7456 75.5116 23.862 76.8193C26.9784 78.1271 30.4117 78.4853 33.7309 77.8489C37.0501 77.2126 40.1075 75.61 42.5193 73.2424L43.9871 71.584C44.9925 70.4465 46.4087 69.7549 47.924 69.6615C49.4393 69.5681 50.9297 70.0805 52.0672 71.086C53.2047 72.0914 53.8962 73.5076 53.9896 75.0229C54.083 76.5382 53.5706 78.0286 52.5652 79.1661L50.9687 80.9675L50.7352 81.2201C46.7361 85.2185 41.6412 87.9413 36.0947 89.0442C30.5481 90.1471 24.7991 89.5806 19.5746 87.4162C14.3501 85.2519 9.8846 81.587 6.7429 76.8849C3.60119 72.1828 1.92432 66.6546 1.92432 60.9995C1.92432 55.3444 3.60119 49.8163 6.7429 45.1142C9.8846 40.4121 14.3501 36.7472 19.5746 34.5828C24.7991 32.4185 30.5481 31.8519 36.0947 32.9548C41.6412 34.0578 46.7361 36.7806 50.7352 40.779L50.9687 41.0316L79.4957 73.2424C81.9075 75.61 84.9649 77.2126 88.2841 77.8489C91.6033 78.4853 95.0366 78.1271 98.153 76.8193C101.269 75.5116 103.93 73.3125 105.801 70.4981C107.672 67.6836 108.671 64.3792 108.671 60.9995C108.671 57.6199 107.672 54.3154 105.801 51.501C103.93 48.6866 101.269 46.4875 98.153 45.1797C95.0366 43.872 91.6033 43.5138 88.2841 44.1501C84.9649 44.7865 81.9075 46.389 79.4957 48.7566L78.0279 50.4151C77.5301 50.9783 76.9262 51.438 76.2507 51.7679C75.5752 52.0977 74.8413 52.2913 74.091 52.3375C73.3407 52.3838 72.5886 52.2818 71.8777 52.0374C71.1668 51.793 70.5111 51.4109 69.9478 50.9131C69.3846 50.4152 68.9249 49.8113 68.595 49.1358C68.2652 48.4603 68.0716 47.7265 68.0254 46.9762C67.9791 46.2259 68.0811 45.4738 68.3255 44.7629C68.5699 44.052 68.952 43.3962 69.4498 42.833L71.0463 41.0316L71.2798 40.779C75.2787 36.7794 80.3739 34.0555 85.921 32.952C91.4681 31.8484 97.2179 32.4146 102.443 34.5791C107.668 36.7436 112.134 40.4091 115.276 45.1119C118.418 49.8148 120.095 55.3437 120.094 60.9995Z" fill="white"/>
</svg>
