<svg width="96" height="96" viewBox="0 0 96 96" fill="none" xmlns="http://www.w3.org/2000/svg">
<circle cx="47.7685" cy="47.7685" r="47.7685" fill="#F2FFE2"/>
<path fill-rule="evenodd" clip-rule="evenodd" d="M23.355 31.458C23.355 28.4746 25.7735 26.0562 28.7568 26.0562H66.5698C69.5532 26.0562 71.9717 28.4746 71.9717 31.458V53.0654C71.9717 56.0488 69.5532 58.4673 66.5698 58.4673H28.7568C25.7735 58.4673 23.355 56.0488 23.355 53.0654V31.458ZM28.7568 31.458H66.5698V53.0654H28.7568V31.458Z" fill="#006838"/>
<path d="M20.6541 63.8691C19.1624 63.8691 17.9531 65.0784 17.9531 66.5701C17.9531 68.0617 19.1624 69.271 20.6541 69.271H74.6726C76.1643 69.271 77.3735 68.0617 77.3735 66.5701C77.3735 65.0784 76.1643 63.8691 74.6726 63.8691H20.6541Z" fill="#006838"/>
</svg>
