<svg width="426" height="285" viewBox="0 0 426 285" fill="none" xmlns="http://www.w3.org/2000/svg">
<path d="M221.948 133.38H244.309V81.3522H260.381V62.3559H244.309V32.9805H221.948V62.3559H205.87V81.3522H221.948V133.38Z" fill="white"/>
<path d="M304.877 83.9829L305.692 82.9532C307.597 76.1366 310.576 69.7659 314.436 64.0395C313.45 63.4228 312.41 62.9108 311.309 62.5033C308.776 61.4296 305.802 60.8955 302.394 60.8955C294.603 60.8955 288.513 63.1861 284.125 67.7617V62.3546H265.398V133.379H284.125V94.362C284.125 89.7809 285.198 86.3726 287.34 84.1316C289.581 81.7914 292.554 80.6241 296.255 80.6241C298.105 80.6241 299.762 80.916 301.221 81.4996C302.68 82.0833 303.903 82.9147 304.872 83.9829H304.877Z" fill="white"/>
<path d="M140.22 144.45C136.867 142.324 132.985 141.262 128.569 141.262C124.153 141.262 119.864 142.242 116.18 144.208C114.594 145.033 113.168 146.03 111.885 147.175V142.49H93.1204V202.094H111.885V168.121C111.885 166.078 112.337 164.278 113.234 162.725C114.132 161.089 115.36 159.862 116.913 159.047C118.465 158.149 120.266 157.698 122.309 157.698C125.254 157.698 127.666 158.678 129.544 160.643C131.504 162.521 132.484 165.015 132.484 168.126V202.099H151.249V163.958C151.249 159.873 150.269 156.106 148.303 152.676C146.343 149.24 143.645 146.504 140.209 144.461L140.22 144.45Z" fill="white"/>
<path d="M34.342 115.504L0 202.088H19.9929L25.7524 186.39H59.6924L65.3693 202.088H85.7256L51.7525 115.504H34.3365H34.342ZM31.5118 170.692L42.8435 139.814L54.0156 170.692H31.5173H31.5118Z" fill="white"/>
<path d="M265.398 176.823C265.398 179.929 264.583 182.384 262.948 184.179C261.312 185.897 259.104 186.756 256.324 186.756C254.364 186.756 252.684 186.349 251.297 185.528C249.909 184.708 248.847 183.568 248.109 182.092C247.453 180.622 247.129 178.86 247.129 176.818V142.476H228.364V177.06C228.364 182.208 229.547 186.789 231.921 190.798C234.294 194.724 237.559 197.829 241.733 200.12C245.983 202.328 250.851 203.429 256.329 203.429C261.808 203.429 266.631 202.322 270.8 200.12C274.968 197.829 278.238 194.724 280.612 190.798C282.985 186.789 284.169 182.17 284.169 176.939V142.476H265.404V176.818L265.398 176.823Z" fill="white"/>
<path d="M202.561 146.504C201.19 145.347 199.643 144.373 197.903 143.591C194.715 142.038 191.075 141.262 186.99 141.262C181.511 141.262 176.649 142.572 172.393 145.188C168.142 147.72 164.789 151.239 162.333 155.737C159.883 160.153 158.655 165.142 158.655 170.698C158.655 176.253 159.883 181.165 162.333 185.658C164.783 190.157 168.137 193.714 172.393 196.329C176.649 198.944 181.511 200.255 186.99 200.255C190.993 200.255 194.632 199.478 197.903 197.926C199.489 197.171 200.915 196.279 202.198 195.261V199.032C202.198 203.201 200.849 206.433 198.151 208.723C195.535 211.014 191.896 212.159 187.238 212.159C183.477 212.159 180.245 211.504 177.547 210.199C174.931 208.889 172.558 206.967 170.433 204.434L158.903 215.964C161.766 220.05 165.648 223.199 170.554 225.407C175.542 227.698 181.307 228.843 187.849 228.843C194.39 228.843 199.907 227.576 204.896 225.038C209.884 222.505 213.81 218.987 216.668 214.488C219.526 209.99 220.963 204.676 220.963 198.548V142.501H202.567V146.515L202.561 146.504ZM197.292 181.853C195.409 182.999 193.162 183.571 190.547 183.571C187.931 183.571 185.641 182.999 183.681 181.853C181.803 180.708 180.327 179.155 179.265 177.195C178.202 175.152 177.668 172.983 177.668 170.692C177.668 168.242 178.196 166.034 179.265 164.068C180.327 162.108 181.841 160.55 183.802 159.41C185.762 158.265 188.014 157.692 190.547 157.692C193.08 157.692 195.414 158.265 197.292 159.41C199.252 160.555 200.728 162.108 201.708 164.068C202.77 166.028 203.305 168.236 203.305 170.692C203.305 173.148 202.776 175.35 201.708 177.316C200.728 179.194 199.257 180.708 197.292 181.853Z" fill="white"/>
<path d="M310.322 113.051H291.557V202.091H310.322V113.051Z" fill="white"/>
<path d="M373.472 49.0176C345.05 49.0176 321.929 72.138 321.929 100.561V177.284C321.929 205.707 345.05 228.827 373.472 228.827C401.895 228.827 425.016 205.707 425.016 177.284V100.561C425.016 72.138 401.895 49.0176 373.472 49.0176ZM341.052 100.561C341.052 82.6823 355.594 68.1405 373.472 68.1405C391.351 68.1405 405.893 82.6823 405.893 100.561V177.284C405.893 195.162 391.351 209.704 373.472 209.704C355.594 209.704 341.052 195.162 341.052 177.284V100.561Z" fill="white"/>
<path opacity="0.8" d="M394.914 185.186C399.823 173.333 394.195 159.743 382.341 154.834C370.488 149.924 356.899 155.553 351.989 167.406C347.079 179.259 352.708 192.848 364.561 197.758C376.415 202.668 390.004 197.039 394.914 185.186Z" fill="white" fill-opacity="0.5"/>
<path d="M134.164 133.382C170.939 133.382 200.854 103.466 200.854 66.6908C200.854 29.915 170.934 0 134.164 0C97.3934 0 67.4728 29.915 67.4728 66.6908C67.4728 103.466 97.3879 133.382 134.164 133.382ZM134.164 21.2703C159.206 21.2703 179.578 41.6432 179.578 66.6853C179.578 91.7273 159.206 112.1 134.164 112.1C109.122 112.1 88.7487 91.7273 88.7487 66.6853C88.7487 41.6432 109.122 21.2703 134.164 21.2703Z" fill="white"/>
<path d="M35.0359 110.353L44.7158 88.8848H62.7045L48.7794 110.353H35.0359Z" fill="white"/>
<path opacity="0.8" d="M291.944 209.892H299.509V244.419H299.703C301.772 241.962 304.164 240.054 306.88 238.696C309.66 237.339 312.699 236.66 315.997 236.66C319.553 236.66 322.786 237.274 325.695 238.503C328.669 239.666 331.191 241.315 333.26 243.449C335.329 245.582 336.946 248.104 338.109 251.014C339.273 253.923 339.855 257.092 339.855 260.518C339.855 263.945 339.273 267.113 338.109 270.023C336.946 272.933 335.329 275.454 333.26 277.588C331.256 279.722 328.863 281.403 326.083 282.631C323.303 283.795 320.329 284.377 317.16 284.377C313.087 284.377 309.498 283.504 306.395 281.758C303.356 279.948 301.125 277.75 299.703 275.163H299.509V283.213H291.944V209.892ZM299.509 260.518C299.509 262.911 299.864 265.141 300.576 267.21C301.352 269.215 302.451 270.993 303.873 272.545C305.296 274.032 306.977 275.228 308.917 276.133C310.921 276.974 313.152 277.394 315.609 277.394C318.066 277.394 320.264 276.974 322.204 276.133C324.208 275.228 325.921 274.032 327.344 272.545C328.766 270.993 329.833 269.215 330.544 267.21C331.32 265.141 331.708 262.911 331.708 260.518C331.708 258.126 331.32 255.928 330.544 253.923C329.833 251.854 328.766 250.076 327.344 248.589C325.921 247.037 324.208 245.841 322.204 245.001C320.264 244.095 318.066 243.643 315.609 243.643C313.152 243.643 310.921 244.095 308.917 245.001C306.977 245.841 305.296 247.037 303.873 248.589C302.451 250.076 301.352 251.854 300.576 253.923C299.864 255.928 299.509 258.126 299.509 260.518Z" fill="white"/>
<path opacity="0.8" d="M278.98 274.969C276.265 278.46 273.291 280.917 270.058 282.34C266.825 283.697 263.075 284.376 258.807 284.376C255.251 284.376 252.051 283.762 249.206 282.534C246.361 281.24 243.936 279.527 241.932 277.393C239.992 275.26 238.473 272.738 237.373 269.828C236.339 266.919 235.822 263.815 235.822 260.518C235.822 257.026 236.404 253.826 237.567 250.916C238.731 247.942 240.348 245.42 242.417 243.351C244.486 241.218 246.943 239.569 249.788 238.405C252.633 237.241 255.736 236.659 259.098 236.659C262.266 236.659 265.176 237.209 267.827 238.308C270.478 239.342 272.741 240.894 274.616 242.963C276.556 244.968 278.043 247.457 279.077 250.431C280.112 253.341 280.629 256.671 280.629 260.421V262.845H243.968C244.098 264.785 244.55 266.66 245.326 268.471C246.167 270.216 247.234 271.768 248.527 273.126C249.82 274.419 251.339 275.454 253.085 276.23C254.831 277.005 256.738 277.393 258.807 277.393C262.105 277.393 264.885 276.811 267.148 275.648C269.411 274.484 271.448 272.77 273.258 270.507L278.98 274.969ZM272.482 256.444C272.353 252.565 271.092 249.461 268.7 247.134C266.308 244.806 263.01 243.642 258.807 243.642C254.605 243.642 251.21 244.806 248.624 247.134C246.037 249.461 244.486 252.565 243.968 256.444H272.482Z" fill="white"/>
<path opacity="0.8" d="M215.24 283.213H207.772L194.873 248.298H194.679L183.235 283.213H175.476L160.734 237.823H169.075L179.452 272.738H179.646L191.381 237.823H199.334L211.264 272.738H211.458L221.738 237.823H229.885L215.24 283.213Z" fill="white"/>
</svg>
