<svg width="60" height="60" viewBox="0 0 60 60" fill="none" xmlns="http://www.w3.org/2000/svg">
<path d="M54.4898 50.5102L43.3593 39.375C46.6966 35.0261 48.2547 29.5706 47.7175 24.1152C47.1803 18.6598 44.5881 13.6129 40.4668 9.99846C36.3454 6.38397 31.0034 4.47251 25.5245 4.65182C20.0457 4.83113 14.8401 7.08779 10.9639 10.964C7.08767 14.8402 4.83101 20.0458 4.6517 25.5247C4.47239 31.0035 6.38385 36.3455 9.99834 40.4669C13.6128 44.5882 18.6597 47.1804 24.1151 47.7176C29.5705 48.2548 35.026 46.6967 39.3749 43.3594L50.5148 54.5016C50.7764 54.7632 51.087 54.9707 51.4288 55.1123C51.7706 55.2539 52.137 55.3268 52.507 55.3268C52.8769 55.3268 53.2433 55.2539 53.5851 55.1123C53.9269 54.9707 54.2375 54.7632 54.4991 54.5016C54.7608 54.24 54.9683 53.9294 55.1099 53.5876C55.2515 53.2458 55.3243 52.8794 55.3243 52.5094C55.3243 52.1394 55.2515 51.7731 55.1099 51.4313C54.9683 51.0894 54.7608 50.7788 54.4991 50.5172L54.4898 50.5102ZM10.3124 26.25C10.3124 23.0979 11.2471 20.0166 12.9984 17.3956C14.7496 14.7747 17.2387 12.732 20.1509 11.5257C23.0631 10.3194 26.2676 10.0038 29.3592 10.6188C32.4508 11.2337 35.2905 12.7516 37.5194 14.9805C39.7483 17.2094 41.2662 20.0492 41.8812 23.1408C42.4961 26.2324 42.1805 29.4369 40.9743 32.3491C39.768 35.2613 37.7252 37.7504 35.1043 39.5016C32.4834 41.2528 29.4021 42.1875 26.2499 42.1875C22.0244 42.1832 17.9731 40.5027 14.9852 37.5148C11.9973 34.5268 10.3168 30.4756 10.3124 26.25Z" fill="#FF6363"/>
</svg>
