<svg width="100" height="100" viewBox="0 0 100 100" fill="none" xmlns="http://www.w3.org/2000/svg">
<path d="M0 35.7628C0 35.0301 0.292625 34.3273 0.8135 33.8092C1.33438 33.2911 2.04083 33 2.77746 33H43.5136C44.2502 33 44.9567 33.2911 45.4775 33.8092C45.9984 34.3273 46.291 35.0301 46.291 35.7628C46.291 36.4955 45.9984 37.1983 45.4775 37.7164C44.9567 38.2345 44.2502 38.5256 43.5136 38.5256H2.77746C2.04083 38.5256 1.33438 38.2345 0.8135 37.7164C0.292625 37.1983 0 36.4955 0 35.7628ZM2.77746 53.2606H17.5906C18.3272 53.2606 19.0337 52.9695 19.5546 52.4514C20.0754 51.9332 20.3681 51.2305 20.3681 50.4978C20.3681 49.765 20.0754 49.0623 19.5546 48.5442C19.0337 48.026 18.3272 47.735 17.5906 47.735H2.77746C2.04083 47.735 1.33438 48.026 0.8135 48.5442C0.292625 49.0623 0 49.765 0 50.4978C0 51.2305 0.292625 51.9332 0.8135 52.4514C1.33438 52.9695 2.04083 53.2606 2.77746 53.2606ZM21.2939 62.4699H2.77746C2.04083 62.4699 1.33438 62.761 0.8135 63.2791C0.292625 63.7972 0 64.5 0 65.2327C0 65.9655 0.292625 66.6682 0.8135 67.1863C1.33438 67.7044 2.04083 67.9955 2.77746 67.9955H21.2939C22.0305 67.9955 22.737 67.7044 23.2578 67.1863C23.7787 66.6682 24.0713 65.9655 24.0713 65.2327C24.0713 64.5 23.7787 63.7972 23.2578 63.2791C22.737 62.761 22.0305 62.4699 21.2939 62.4699ZM49.1819 67.1874C48.9239 67.445 48.6173 67.6493 48.2797 67.7888C47.9421 67.9282 47.5801 68 47.2146 68C46.849 68 46.487 67.9282 46.1494 67.7888C45.8118 67.6493 45.5052 67.445 45.2472 67.1874L41.0625 63.0248C38.916 64.2154 36.4091 64.5937 34.0042 64.09C31.5992 63.5863 29.4586 62.2344 27.977 60.2839C26.4955 58.3334 25.773 55.9157 25.9429 53.4769C26.1128 51.038 27.1636 48.7426 28.9014 47.0139C30.6392 45.2853 32.9469 44.24 35.3986 44.0711C37.8504 43.9021 40.2809 44.6207 42.2418 46.0944C44.2027 47.5682 45.5617 49.6975 46.0681 52.0897C46.5745 54.482 46.1941 56.9756 44.9972 59.1108L49.1819 63.2711C49.4412 63.5278 49.6469 63.833 49.7873 64.169C49.9277 64.505 50 64.8654 50 65.2293C50 65.5932 49.9277 65.9535 49.7873 66.2895C49.6469 66.6255 49.4412 66.9307 49.1819 67.1874ZM36.107 58.7862C37.0226 58.7862 37.9176 58.5161 38.6788 58.0101C39.4401 57.5042 40.0334 56.785 40.3838 55.9436C40.7341 55.1022 40.8258 54.1764 40.6472 53.2832C40.4686 52.3899 40.0277 51.5695 39.3803 50.9255C38.7329 50.2815 37.9081 49.843 37.0101 49.6653C36.1122 49.4876 35.1814 49.5788 34.3355 49.9273C33.4897 50.2759 32.7667 50.866 32.2581 51.6233C31.7494 52.3805 31.4779 53.2708 31.4779 54.1815C31.4779 54.7862 31.5976 55.385 31.8303 55.9436C32.0629 56.5023 32.4039 57.0099 32.8337 57.4375C33.2636 57.8651 33.7739 58.2043 34.3355 58.4357C34.8972 58.6671 35.4991 58.7862 36.107 58.7862Z" fill="white"/>
</svg>
