<svg width="100" height="100" viewBox="0 0 100 100" fill="none" xmlns="http://www.w3.org/2000/svg">
<path d="M44.1667 38.4348H41.6667V36.7826C41.6667 35.249 41.0521 33.7781 39.9581 32.6937C38.8642 31.6092 37.3804 31 35.8333 31H5.83333C4.28624 31 2.80251 31.6092 1.70854 32.6937C0.614581 33.7781 0 35.249 0 36.7826V54.9565C0 56.4902 0.614581 57.961 1.70854 59.0454C2.80251 60.1299 4.28624 60.7391 5.83333 60.7391H25.8333V63.2174C25.8333 64.751 26.4479 66.2219 27.5419 67.3063C28.6358 68.3908 30.1196 69 31.6667 69H44.1667C45.7138 69 47.1975 68.3908 48.2915 67.3063C49.3854 66.2219 50 64.751 50 63.2174V44.2174C50 42.6837 49.3854 41.2129 48.2915 40.1285C47.1975 39.044 45.7138 38.4348 44.1667 38.4348ZM5.83333 55.7826C5.61232 55.7826 5.40036 55.6956 5.24408 55.5407C5.0878 55.3857 5 55.1756 5 54.9565V36.7826C5 36.5635 5.0878 36.3534 5.24408 36.1985C5.40036 36.0436 5.61232 35.9565 5.83333 35.9565H35.8333C36.0543 35.9565 36.2663 36.0436 36.4226 36.1985C36.5789 36.3534 36.6667 36.5635 36.6667 36.7826V38.4348H31.6667C30.1196 38.4348 28.6358 39.044 27.5419 40.1285C26.4479 41.2129 25.8333 42.6837 25.8333 44.2174V55.7826H5.83333ZM45 63.2174C45 63.4365 44.9122 63.6466 44.7559 63.8015C44.5996 63.9564 44.3877 64.0435 44.1667 64.0435H31.6667C31.4457 64.0435 31.2337 63.9564 31.0774 63.8015C30.9211 63.6466 30.8333 63.4365 30.8333 63.2174V44.2174C30.8333 43.9983 30.9211 43.7882 31.0774 43.6333C31.2337 43.4783 31.4457 43.3913 31.6667 43.3913H44.1667C44.3877 43.3913 44.5996 43.4783 44.7559 43.6333C44.9122 43.7882 45 43.9983 45 44.2174V63.2174ZM23.3333 66.5217C23.3333 67.179 23.0699 67.8094 22.6011 68.2741C22.1323 68.7389 21.4964 69 20.8333 69H15.8333C15.1703 69 14.5344 68.7389 14.0656 68.2741C13.5967 67.8094 13.3333 67.179 13.3333 66.5217C13.3333 65.8645 13.5967 65.2341 14.0656 64.7693C14.5344 64.3046 15.1703 64.0435 15.8333 64.0435H20.8333C21.4964 64.0435 22.1323 64.3046 22.6011 64.7693C23.0699 65.2341 23.3333 65.8645 23.3333 66.5217ZM41.6667 49.1739C41.6667 49.8312 41.4033 50.4615 40.9344 50.9263C40.4656 51.3911 39.8297 51.6522 39.1667 51.6522H36.6667C36.0036 51.6522 35.3677 51.3911 34.8989 50.9263C34.4301 50.4615 34.1667 49.8312 34.1667 49.1739C34.1667 48.5166 34.4301 47.8863 34.8989 47.4215C35.3677 46.9568 36.0036 46.6957 36.6667 46.6957H39.1667C39.8297 46.6957 40.4656 46.9568 40.9344 47.4215C41.4033 47.8863 41.6667 48.5166 41.6667 49.1739Z" fill="white"/>
</svg>
