<svg width="100" height="100" viewBox="0 0 100 100" fill="none" xmlns="http://www.w3.org/2000/svg">
<path d="M49.9639 29.5409C49.8921 28.3697 49.3945 27.2651 48.5646 26.4353C47.7348 25.6055 46.6302 25.1079 45.4589 25.0361C42.3025 24.8511 34.2445 25.1371 27.5543 31.8246L26.6817 32.6924H13.0657C12.434 32.6903 11.8083 32.8137 11.2247 33.0555C10.6412 33.2974 10.1115 33.6527 9.66653 34.101L1.40898 42.3534C0.776831 42.9852 0.333324 43.7808 0.128256 44.6507C-0.0768115 45.5206 -0.0353205 46.4304 0.24807 47.2781C0.531461 48.1257 1.04553 48.8776 1.73257 49.4493C2.4196 50.0209 3.2524 50.3898 4.13746 50.5144L13.0657 51.7596L23.2392 61.9327L24.4868 70.8701C24.6084 71.7566 24.9763 72.591 25.5488 73.2787C26.1212 73.9663 26.8752 74.4794 27.725 74.7596C28.2192 74.9214 28.7362 75.0026 29.2563 74.9999C29.8864 74.9995 30.5101 74.8747 31.0918 74.6325C31.6735 74.3904 32.2016 74.0357 32.6458 73.5889L40.901 65.3317C41.3486 64.8864 41.7035 64.3566 41.9449 63.7731C42.1863 63.1897 42.3094 62.5641 42.3073 61.9327V48.3173L43.1727 47.4543C49.8629 40.7549 50.149 32.6924 49.9639 29.5409ZM13.46 38.4616H20.9122L13.3999 45.9808L6.85392 45.0673L13.46 38.4616ZM31.6338 35.9063C33.2799 34.2467 35.2439 32.9363 37.4084 32.0536C39.5728 31.171 41.8932 30.7341 44.2304 30.7693C44.267 33.1072 43.8306 35.4284 42.9473 37.5934C42.0641 39.7584 40.7523 41.7226 39.0908 43.3678L25.9605 56.4904L18.5082 49.0385L31.6338 35.9063ZM36.5378 61.5384L29.9294 68.1466L29.0159 61.6009L36.5378 54.0865V61.5384ZM19.2294 66.8269C17.1356 69.6754 12.9335 73.0769 4.80576 73.0769C4.04068 73.0769 3.30693 72.773 2.76594 72.232C2.22495 71.691 1.92102 70.9573 1.92102 70.1923C1.92102 62.0577 5.31539 57.8558 8.17128 55.7692C8.47343 55.5154 8.82446 55.3262 9.20264 55.2135C9.58082 55.1007 9.97812 55.0668 10.37 55.1137C10.7618 55.1606 11.1398 55.2874 11.4807 55.4863C11.8216 55.6852 12.118 55.9519 12.3516 56.2699C12.5853 56.5879 12.7512 56.9505 12.8391 57.3352C12.9271 57.7199 12.9351 58.1185 12.8628 58.5065C12.7905 58.8944 12.6393 59.2634 12.4187 59.5905C12.198 59.9177 11.9126 60.1962 11.5801 60.4086C10.1666 61.4495 8.53428 63.4134 7.93088 67.0673C11.5873 66.4639 13.5489 64.8317 14.5898 63.4182C14.8023 63.0857 15.0807 62.8003 15.4079 62.5797C15.7351 62.359 16.1041 62.2079 16.4921 62.1356C16.88 62.0633 17.2787 62.0713 17.6634 62.1592C18.0481 62.2472 18.4107 62.4131 18.7287 62.6467C19.0468 62.8804 19.3135 63.1768 19.5124 63.5176C19.7112 63.8585 19.8381 64.2365 19.885 64.6283C19.9319 65.0201 19.898 65.4174 19.7852 65.7956C19.6724 66.1737 19.4833 66.5247 19.2294 66.8269Z" fill="white"/>
</svg>
