<svg width="63" height="63" viewBox="0 0 63 63" fill="none" xmlns="http://www.w3.org/2000/svg">
<path d="M55.0881 11.5959C55.0298 10.636 54.6221 9.73056 53.9421 9.05053C53.2621 8.37049 52.3566 7.96285 51.3967 7.90451C48.3008 7.71994 40.3889 8.00295 33.8231 14.5663L32.6542 15.75H18.2995C17.7805 15.7471 17.266 15.8474 16.7861 16.0451C16.3061 16.2428 15.8703 16.534 15.5039 16.9017L7.06291 25.3476C6.54524 25.8649 6.18199 26.5163 6.01393 27.2286C5.84586 27.9408 5.87963 28.6859 6.11144 29.38C6.34325 30.0742 6.76393 30.69 7.32627 31.1584C7.88861 31.6267 8.57035 31.9291 9.29498 32.0315L18.7622 33.3531L29.642 44.2329L30.9635 53.705C31.0652 54.4297 31.3675 55.1115 31.8363 55.6734C32.3051 56.2352 32.9217 56.6548 33.6164 56.8845C34.0211 57.0197 34.4449 57.0887 34.8715 57.0888C35.3881 57.0898 35.8998 56.9885 36.377 56.7908C36.8543 56.5932 37.2877 56.303 37.6524 55.9371L46.0983 47.4961C46.466 47.1297 46.7572 46.6939 46.9549 46.2139C47.1526 45.734 47.2529 45.2195 47.25 44.7005V30.3458L48.4239 29.1719C54.9897 22.6062 55.2727 14.6942 55.0881 11.5959ZM18.2995 19.6875H28.7167L18.9886 29.4131L9.84377 28.1383L18.2995 19.6875ZM36.6114 17.3619C38.5032 15.4585 40.7793 13.9806 43.2879 13.027C45.7964 12.0734 48.4795 11.6661 51.158 11.8322C51.3305 14.5121 50.9274 17.1979 49.9757 19.709C49.0241 22.2202 47.5459 24.4986 45.6406 26.3911L31.5 40.5267L22.4733 31.5L36.6114 17.3619ZM43.3125 44.7005L34.8641 53.1562L33.5869 44.0089L43.3125 34.2833V44.7005ZM25.0622 47.0383C23.9548 49.4648 20.2511 55.125 9.84377 55.125C9.32162 55.125 8.82086 54.9176 8.45165 54.5483C8.08244 54.1791 7.87502 53.6784 7.87502 53.1562C7.87502 42.7489 13.5352 39.0452 15.9617 37.9353C16.1969 37.828 16.451 37.7681 16.7095 37.759C16.9679 37.75 17.2256 37.7918 17.4678 37.8823C17.71 37.9728 17.932 38.1101 18.1212 38.2865C18.3104 38.4628 18.463 38.6746 18.5702 38.9099C18.6775 39.1451 18.7374 39.3992 18.7465 39.6577C18.7556 39.9161 18.7137 40.1738 18.6232 40.416C18.5327 40.6582 18.3954 40.8803 18.2191 41.0694C18.0428 41.2586 17.831 41.4112 17.5957 41.5185C16.0133 42.2395 12.5213 44.5602 11.906 51.094C18.4398 50.4787 20.7654 46.9867 21.4815 45.4043C21.5888 45.169 21.7414 44.9572 21.9306 44.7809C22.1197 44.6046 22.3418 44.4672 22.584 44.3768C22.8262 44.2863 23.0839 44.2444 23.3423 44.2535C23.6008 44.2626 23.8549 44.3224 24.0901 44.4297C24.3254 44.537 24.5372 44.6896 24.7135 44.8788C24.8898 45.0679 25.0272 45.29 25.1177 45.5322C25.2081 45.7744 25.25 46.0321 25.241 46.2905C25.2319 46.549 25.172 46.8031 25.0647 47.0383H25.0622Z" fill="#FF7676"/>
</svg>
