<svg width="61" height="61" viewBox="0 0 61 61" fill="none" xmlns="http://www.w3.org/2000/svg">
<path d="M23.8281 8.57812H13.3438C12.0798 8.57813 10.8677 9.08022 9.97394 9.97394C9.08022 10.8677 8.57812 12.0798 8.57812 13.3438V23.8281C8.57813 25.092 9.08022 26.3042 9.97394 27.1979C10.8677 28.0917 12.0798 28.5938 13.3438 28.5938H23.8281C25.092 28.5938 26.3042 28.0917 27.1979 27.1979C28.0917 26.3042 28.5938 25.092 28.5938 23.8281V13.3438C28.5938 12.0798 28.0917 10.8677 27.1979 9.97394C26.3042 9.08022 25.092 8.57812 23.8281 8.57812ZM22.875 22.875H14.2969V14.2969H22.875V22.875ZM47.6562 8.57812H37.1719C35.908 8.57813 34.6958 9.08022 33.8021 9.97394C32.9083 10.8677 32.4062 12.0798 32.4062 13.3438V23.8281C32.4062 25.092 32.9083 26.3042 33.8021 27.1979C34.6958 28.0917 35.908 28.5938 37.1719 28.5938H47.6562C48.9202 28.5938 50.1323 28.0917 51.0261 27.1979C51.9198 26.3042 52.4219 25.092 52.4219 23.8281V13.3438C52.4219 12.0798 51.9198 10.8677 51.0261 9.97394C50.1323 9.08022 48.9202 8.57812 47.6562 8.57812ZM46.7031 22.875H38.125V14.2969H46.7031V22.875ZM23.8281 32.4062H13.3438C12.0798 32.4062 10.8677 32.9083 9.97394 33.8021C9.08022 34.6958 8.57812 35.908 8.57812 37.1719V47.6562C8.57813 48.9202 9.08022 50.1323 9.97394 51.0261C10.8677 51.9198 12.0798 52.4219 13.3438 52.4219H23.8281C25.092 52.4219 26.3042 51.9198 27.1979 51.0261C28.0917 50.1323 28.5938 48.9202 28.5938 47.6562V37.1719C28.5938 35.908 28.0917 34.6958 27.1979 33.8021C26.3042 32.9083 25.092 32.4062 23.8281 32.4062ZM22.875 46.7031H14.2969V38.125H22.875V46.7031ZM47.6562 32.4062H37.1719C35.908 32.4062 34.6958 32.9083 33.8021 33.8021C32.9083 34.6958 32.4062 35.908 32.4062 37.1719V47.6562C32.4062 48.9202 32.9083 50.1323 33.8021 51.0261C34.6958 51.9198 35.908 52.4219 37.1719 52.4219H47.6562C48.9202 52.4219 50.1323 51.9198 51.0261 51.0261C51.9198 50.1323 52.4219 48.9202 52.4219 47.6562V37.1719C52.4219 35.908 51.9198 34.6958 51.0261 33.8021C50.1323 32.9083 48.9202 32.4062 47.6562 32.4062ZM46.7031 46.7031H38.125V38.125H46.7031V46.7031Z" fill="#FF6363"/>
</svg>
