<svg width="100" height="100" viewBox="0 0 100 100" fill="none" xmlns="http://www.w3.org/2000/svg">
<path d="M1.10773 48.5069C1.39923 48.7262 1.73111 48.8859 2.08439 48.977C2.43768 49.068 2.80545 49.0885 3.16668 49.0374C3.52792 48.9863 3.87553 48.8645 4.18965 48.679C4.50377 48.4935 4.77825 48.248 4.99739 47.9564C6.03191 46.5771 7.37354 45.4575 8.91599 44.6864C10.4584 43.9153 12.1593 43.5139 13.8839 43.5139C15.6085 43.5139 17.3094 43.9153 18.8519 44.6864C20.3943 45.4575 21.736 46.5771 22.7705 47.9564C23.2127 48.545 23.8706 48.9338 24.5996 49.0375C25.3286 49.1412 26.069 48.9511 26.6578 48.5092C26.866 48.3512 27.0514 48.1652 27.2085 47.9564C28.2431 46.5771 29.5847 45.4575 31.1271 44.6864C32.6696 43.9153 34.3705 43.5139 36.0951 43.5139C37.8197 43.5139 39.5206 43.9153 41.063 44.6864C42.6055 45.4575 43.9471 46.5771 44.9816 47.9564C45.1986 48.2531 45.4723 48.5038 45.787 48.6939C46.1016 48.884 46.4509 49.0098 46.8145 49.0639C47.1782 49.118 47.5489 49.0994 47.9053 49.0091C48.2617 48.9188 48.5966 48.7587 48.8906 48.538C49.1846 48.3173 49.4318 48.0405 49.618 47.7236C49.8041 47.4066 49.9254 47.0559 49.9748 46.6917C50.0242 46.3275 50.0008 45.9572 49.9059 45.6021C49.811 45.247 49.6465 44.9143 49.422 44.6233C47.8773 42.556 45.8732 40.8757 43.5678 39.7151C44.5767 38.3358 45.1837 36.7042 45.3217 35.0011C45.4596 33.298 45.1231 31.59 44.3493 30.0664C43.5756 28.5428 42.3949 27.2632 40.9382 26.3693C39.4815 25.4755 37.8055 25.0023 36.0962 25.0023C34.3869 25.0023 32.711 25.4755 31.2543 26.3693C29.7975 27.2632 28.6169 28.5428 27.8431 30.0664C27.0694 31.59 26.7329 33.298 26.8708 35.0011C27.0088 36.7042 27.6158 38.3358 28.6247 39.7151C27.307 40.3756 26.0844 41.2104 24.9895 42.197C23.8948 41.2096 22.6721 40.374 21.3544 39.7128C22.3632 38.3335 22.9703 36.7018 23.1082 34.9988C23.2461 33.2957 22.9096 31.5877 22.1359 30.0641C21.3622 28.5405 20.1815 27.2609 18.7247 26.367C17.268 25.4732 15.5921 25 13.8828 25C12.1735 25 10.4976 25.4732 9.04082 26.367C7.58407 27.2609 6.4034 28.5405 5.62968 30.0641C4.85596 31.5877 4.51942 33.2957 4.65736 34.9988C4.7953 36.7018 5.40234 38.3335 6.41119 39.7128C4.10577 40.8734 2.10167 42.5537 0.557017 44.621C0.11467 45.2094 -0.0758107 45.9492 0.027462 46.6779C0.130735 47.4067 0.519305 48.0645 1.10773 48.5069ZM36.0962 30.5601C36.8285 30.5601 37.5443 30.7772 38.1531 31.1838C38.7619 31.5905 39.2365 32.1685 39.5167 32.8447C39.7969 33.521 39.8702 34.2651 39.7273 34.983C39.5845 35.7009 39.2319 36.3603 38.7141 36.8779C38.1964 37.3954 37.5367 37.7479 36.8185 37.8907C36.1003 38.0335 35.3559 37.9602 34.6795 37.6801C34.003 37.4 33.4247 36.9257 33.0179 36.3171C32.6111 35.7085 32.394 34.9929 32.394 34.261C32.394 33.2795 32.7841 32.3381 33.4784 31.6441C34.1727 30.95 35.1143 30.5601 36.0962 30.5601ZM13.8828 30.5601C14.615 30.5601 15.3308 30.7772 15.9396 31.1838C16.5485 31.5905 17.023 32.1685 17.3032 32.8447C17.5834 33.521 17.6567 34.2651 17.5139 34.983C17.371 35.7009 17.0184 36.3603 16.5007 36.8779C15.9829 37.3954 15.3232 37.7479 14.6051 37.8907C13.8869 38.0335 13.1425 37.9602 12.466 37.6801C11.7895 37.4 11.2113 36.9257 10.8045 36.3171C10.3977 35.7085 10.1805 34.9929 10.1805 34.261C10.1805 33.2795 10.5706 32.3381 11.2649 31.6441C11.9592 30.95 12.9009 30.5601 13.8828 30.5601ZM43.5678 65.6187C44.5767 64.2394 45.1837 62.6077 45.3217 60.9046C45.4596 59.2016 45.1231 57.4936 44.3493 55.97C43.5756 54.4464 42.3949 53.1668 40.9382 52.2729C39.4815 51.379 37.8055 50.9059 36.0962 50.9059C34.3869 50.9059 32.711 51.379 31.2543 52.2729C29.7975 53.1668 28.6169 54.4464 27.8431 55.97C27.0694 57.4936 26.7329 59.2016 26.8708 60.9046C27.0088 62.6077 27.6158 64.2394 28.6247 65.6187C27.3075 66.2799 26.0849 67.1147 24.9895 68.1005C23.8941 67.1147 22.6715 66.2799 21.3544 65.6187C22.3632 64.2394 22.9703 62.6077 23.1082 60.9046C23.2461 59.2016 22.9096 57.4936 22.1359 55.97C21.3622 54.4464 20.1815 53.1668 18.7247 52.2729C17.268 51.379 15.5921 50.9059 13.8828 50.9059C12.1735 50.9059 10.4976 51.379 9.04082 52.2729C7.58407 53.1668 6.4034 54.4464 5.62968 55.97C4.85596 57.4936 4.51942 59.2016 4.65736 60.9046C4.7953 62.6077 5.40234 64.2394 6.41119 65.6187C4.10577 66.7793 2.10167 68.4596 0.557017 70.5269C0.11455 71.1155 -0.0758828 71.8557 0.0276121 72.5847C0.131107 73.3136 0.520052 73.9716 1.10888 74.4139C1.69771 74.8562 2.4382 75.0466 3.16743 74.9431C3.89667 74.8397 4.55493 74.4509 4.99739 73.8623C6.03191 72.483 7.37354 71.3634 8.91599 70.5923C10.4584 69.8212 12.1593 69.4197 13.8839 69.4197C15.6085 69.4197 17.3094 69.8212 18.8519 70.5923C20.3943 71.3634 21.736 72.483 22.7705 73.8623C23.2127 74.4508 23.8706 74.8397 24.5996 74.9434C25.3286 75.0471 26.069 74.857 26.6578 74.4151C26.866 74.2571 27.0514 74.0711 27.2085 73.8623C28.2431 72.483 29.5847 71.3634 31.1271 70.5923C32.6696 69.8212 34.3705 69.4197 36.0951 69.4197C37.8197 69.4197 39.5206 69.8212 41.063 70.5923C42.6055 71.3634 43.9471 72.483 44.9816 73.8623C45.1986 74.159 45.4723 74.4097 45.787 74.5998C46.1016 74.7899 46.4509 74.9156 46.8145 74.9698C47.1782 75.0239 47.5489 75.0052 47.9053 74.915C48.2617 74.8247 48.5966 74.6646 48.8906 74.4439C49.1846 74.2232 49.4318 73.9464 49.618 73.6294C49.8041 73.3125 49.9254 72.9618 49.9748 72.5976C50.0242 72.2334 50.0008 71.863 49.9059 71.508C49.811 71.1529 49.6465 70.8202 49.422 70.5292C47.8782 68.4605 45.8739 66.7793 43.5678 65.6187ZM13.8828 56.466C14.615 56.466 15.3308 56.6831 15.9396 57.0897C16.5485 57.4964 17.023 58.0744 17.3032 58.7506C17.5834 59.4268 17.6567 60.171 17.5139 60.8889C17.371 61.6068 17.0184 62.2662 16.5007 62.7838C15.9829 63.3013 15.3232 63.6538 14.6051 63.7966C13.8869 63.9394 13.1425 63.8661 12.466 63.586C11.7895 63.3059 11.2113 62.8315 10.8045 62.2229C10.3977 61.6143 10.1805 60.8988 10.1805 60.1669C10.1805 59.1853 10.5706 58.244 11.2649 57.55C11.9592 56.8559 12.9009 56.466 13.8828 56.466ZM36.0962 56.466C36.8285 56.466 37.5443 56.6831 38.1531 57.0897C38.7619 57.4964 39.2365 58.0744 39.5167 58.7506C39.7969 59.4268 39.8702 60.171 39.7273 60.8889C39.5845 61.6068 39.2319 62.2662 38.7141 62.7838C38.1964 63.3013 37.5367 63.6538 36.8185 63.7966C36.1003 63.9394 35.3559 63.8661 34.6795 63.586C34.003 63.3059 33.4247 62.8315 33.0179 62.2229C32.6111 61.6143 32.394 60.8988 32.394 60.1669C32.394 59.1853 32.7841 58.244 33.4784 57.55C34.1727 56.8559 35.1143 56.466 36.0962 56.466Z" fill="white"/>
</svg>
