<svg width="100" height="100" viewBox="0 0 100 100" fill="none" xmlns="http://www.w3.org/2000/svg">
<path d="M25.0012 30.4135C20.7396 30.4135 16.5737 31.6623 13.0303 34.002C9.48693 36.3418 6.72519 39.6673 5.09434 43.5582C3.46349 47.449 3.03679 51.7304 3.86819 55.8608C4.69959 59.9913 6.75174 63.7854 9.76515 66.7633C12.7786 69.7413 16.6179 71.7692 20.7976 72.5908C24.9773 73.4125 29.3097 72.9908 33.2469 71.3791C37.1841 69.7675 40.5493 67.0383 42.9169 63.5366C45.2846 60.035 46.5483 55.9181 46.5483 51.7067C46.542 46.0613 44.2699 40.6489 40.2304 36.657C36.1909 32.6651 30.7139 30.4197 25.0012 30.4135ZM25.0012 67.8896C21.7624 67.8896 18.5963 66.9405 15.9033 65.1623C13.2104 63.3841 11.1114 60.8567 9.87199 57.8997C8.63255 54.9426 8.30826 51.6888 8.94012 48.5496C9.57198 45.4104 11.1316 42.5269 13.4218 40.2637C15.712 38.0005 18.6299 36.4592 21.8065 35.8348C24.9831 35.2104 28.2757 35.5309 31.268 36.7557C34.2602 37.9806 36.8178 40.0548 38.6172 42.716C40.4166 45.3773 41.377 48.5061 41.377 51.7067C41.3724 55.9973 39.6457 60.1109 36.5756 63.1448C33.5055 66.1787 29.3429 67.8851 25.0012 67.8896ZM4.42163 38.1834C4.18112 38.4211 3.89558 38.6096 3.58133 38.7382C3.26708 38.8669 2.93027 38.9331 2.59013 38.9331C2.24999 38.9331 1.91318 38.8669 1.59893 38.7382C1.28468 38.6096 0.999148 38.4211 0.758632 38.1834C0.518116 37.9457 0.327328 37.6635 0.197162 37.353C0.0669956 37.0424 -2.53425e-09 36.7096 0 36.3735C2.53425e-09 36.0373 0.0669956 35.7045 0.197162 35.3939C0.327328 35.0834 0.518116 34.8012 0.758632 34.5635L7.65369 27.7497C8.13943 27.2697 8.79824 27 9.48519 27C10.1721 27 10.8309 27.2697 11.3167 27.7497C11.8024 28.2297 12.0753 28.8808 12.0753 29.5596C12.0753 30.2385 11.8024 30.8895 11.3167 31.3695L4.42163 38.1834ZM49.2395 38.1834C48.9993 38.4216 48.7139 38.6106 48.3996 38.7396C48.0853 38.8685 47.7483 38.9349 47.408 38.9349C47.0677 38.9349 46.7307 38.8685 46.4165 38.7396C46.1022 38.6106 45.8167 38.4216 45.5765 38.1834L38.6814 31.3695C38.4409 31.1319 38.2501 30.8497 38.12 30.5391C37.9898 30.2286 37.9228 29.8958 37.9228 29.5596C37.9228 29.2235 37.9898 28.8906 38.12 28.5801C38.2501 28.2695 38.4409 27.9874 38.6814 27.7497C38.922 27.512 39.2075 27.3235 39.5217 27.1948C39.836 27.0662 40.1728 27 40.5129 27C40.8531 27 41.1899 27.0662 41.5041 27.1948C41.8184 27.3235 42.1039 27.512 42.3444 27.7497L49.2395 34.5635C49.4806 34.8009 49.6718 35.083 49.8023 35.3936C49.9328 35.7042 50 36.0372 50 36.3735C50 36.7098 49.9328 37.0428 49.8023 37.3533C49.6718 37.6639 49.4806 37.946 49.2395 38.1834ZM35.3438 49.1515C36.0296 49.1515 36.6872 49.4208 37.1721 49.8999C37.657 50.3791 37.9295 51.0291 37.9295 51.7067C37.9295 52.3844 37.657 53.0343 37.1721 53.5135C36.6872 53.9927 36.0296 54.2619 35.3438 54.2619H25.0012C24.3155 54.2619 23.6578 53.9927 23.1729 53.5135C22.688 53.0343 22.4156 52.3844 22.4156 51.7067V41.486C22.4156 40.8083 22.688 40.1584 23.1729 39.6792C23.6578 39.2 24.3155 38.9308 25.0012 38.9308C25.687 38.9308 26.3446 39.2 26.8295 39.6792C27.3145 40.1584 27.5869 40.8083 27.5869 41.486V49.1515H35.3438Z" fill="white"/>
</svg>
