<svg width="100" height="100" viewBox="0 0 100 100" fill="none" xmlns="http://www.w3.org/2000/svg">
<path d="M35.7701 39.2299C35.0766 36.0572 33.5419 33.1297 31.3271 30.7544C29.1124 28.3791 26.2991 26.6438 23.1826 25.7304C20.0661 24.817 16.7612 24.7592 13.6146 25.5632C10.4681 26.3671 7.59594 28.0031 5.29952 30.2995C3.00311 32.5959 1.3671 35.4681 0.563159 38.6146C-0.240785 41.7612 -0.183026 45.0661 0.730376 48.1826C1.64378 51.2991 3.37915 54.1124 5.7544 56.3271C8.12966 58.5419 11.0572 60.0766 14.2299 60.7701C14.9234 63.9428 16.4581 66.8703 18.6729 69.2456C20.8876 71.6208 23.7009 73.3562 26.8174 74.2696C29.9339 75.183 33.2388 75.2408 36.3854 74.4368C39.5319 73.6329 42.4041 71.9969 44.7005 69.7005C46.9969 67.4041 48.6329 64.5319 49.4368 61.3854C50.2408 58.2388 50.183 54.9339 49.2696 51.8174C48.3562 48.7009 46.6208 45.8876 44.2456 43.6729C41.8703 41.4581 38.9428 39.9234 35.7701 39.2299ZM44.8169 56.8928C44.8158 57.3714 44.7885 57.8496 44.7351 58.3253L35.2574 48.8476C35.709 47.4944 35.9982 46.0924 36.119 44.671C38.663 45.5455 40.8696 47.1942 42.4294 49.386C43.9893 51.5778 44.8241 54.2027 44.8169 56.8928ZM5.18308 43.1072C5.18308 40.551 5.94106 38.0523 7.36118 35.9269C8.7813 33.8016 10.7998 32.1451 13.1613 31.1669C15.5229 30.1887 18.1215 29.9327 20.6285 30.4314C23.1355 30.9301 25.4384 32.161 27.2459 33.9685C29.0533 35.7759 30.2842 38.0788 30.7829 40.5858C31.2816 43.0928 31.0256 45.6914 30.0474 48.053C29.0693 50.4146 27.4127 52.433 25.2874 53.8531C23.162 55.2733 20.6633 56.0312 18.1072 56.0312C14.6807 56.0272 11.3957 54.6643 8.97286 52.2415C6.54999 49.8186 5.18707 46.5336 5.18308 43.1072ZM19.6753 61.1276C21.0967 61.0068 22.4987 60.7176 23.8519 60.266L33.3296 69.7437C32.8524 69.7944 32.3727 69.8189 31.8928 69.8169C29.2045 69.8238 26.5813 68.9898 24.3905 67.4317C22.1997 65.8736 20.551 63.6694 19.6753 61.1276ZM38.7448 67.8438L28.6791 57.7781C30.2516 56.6395 31.6331 55.2581 32.7717 53.6855L42.8374 63.7512C41.7975 65.4052 40.3987 66.8039 38.7448 67.8438Z" fill="white"/>
</svg>
