<svg width="96" height="96" viewBox="0 0 96 96" fill="none" xmlns="http://www.w3.org/2000/svg">
<circle cx="47.7685" cy="47.7685" r="47.7685" fill="#F2FFE2"/>
<path d="M58.8643 39.7287C59.1287 39.9922 59.3385 40.3052 59.4816 40.6499C59.6247 40.9946 59.6984 41.3641 59.6984 41.7373C59.6984 42.1106 59.6247 42.4801 59.4816 42.8248C59.3385 43.1695 59.1287 43.4825 58.8643 43.7459L45.6312 56.9791C45.3677 57.2435 45.0547 57.4532 44.71 57.5963C44.3653 57.7395 43.9958 57.8131 43.6226 57.8131C43.2494 57.8131 42.8798 57.7395 42.5352 57.5963C42.1905 57.4532 41.8774 57.2435 41.614 56.9791L35.9426 51.3077C35.6789 51.044 35.4696 50.7308 35.3269 50.3862C35.1841 50.0416 35.1106 49.6722 35.1106 49.2991C35.1106 48.9261 35.1841 48.5567 35.3269 48.2121C35.4696 47.8675 35.6789 47.5543 35.9426 47.2905C36.2064 47.0268 36.5196 46.8175 36.8642 46.6748C37.2088 46.532 37.5782 46.4586 37.9512 46.4586C38.3243 46.4586 38.6937 46.532 39.0383 46.6748C39.3829 46.8175 39.6961 47.0268 39.9598 47.2905L43.625 50.9509L54.8519 39.7217C55.1157 39.4585 55.4288 39.2499 55.7733 39.1078C56.1178 38.9657 56.4869 38.8929 56.8596 38.8935C57.2322 38.8942 57.6011 38.9683 57.9451 39.1116C58.2891 39.2549 58.6015 39.4646 58.8643 39.7287ZM72.9269 47.4063C72.9269 52.4539 71.4301 57.3882 68.6259 61.5851C65.8216 65.782 61.8357 69.0531 57.1723 70.9847C52.509 72.9164 47.3775 73.4218 42.4269 72.437C37.4763 71.4523 32.9289 69.0216 29.3597 65.4525C25.7905 61.8833 23.3599 57.3359 22.3752 52.3852C21.3904 47.4346 21.8958 42.3032 23.8275 37.6398C25.7591 32.9765 29.0302 28.9906 33.2271 26.1863C37.424 23.382 42.3583 21.8853 47.4059 21.8853C54.1722 21.8928 60.6592 24.584 65.4437 29.3685C70.2282 34.153 72.9194 40.64 72.9269 47.4063ZM67.2556 47.4063C67.2556 43.4804 66.0914 39.6427 63.9103 36.3784C61.7292 33.1141 58.6291 30.57 55.002 29.0676C51.375 27.5652 47.3838 27.1721 43.5334 27.938C39.6829 28.7039 36.146 30.5944 33.37 33.3705C30.5939 36.1465 28.7034 39.6834 27.9375 43.5338C27.1716 47.3843 27.5647 51.3754 29.0671 55.0025C30.5695 58.6296 33.1137 61.7297 36.3779 63.9108C39.6422 66.0919 43.4799 67.2561 47.4059 67.2561C52.6686 67.2504 57.7142 65.1573 61.4355 61.436C65.1568 57.7147 67.25 52.6691 67.2556 47.4063Z" fill="#006838"/>
</svg>
