<svg width="96" height="96" viewBox="0 0 96 96" fill="none" xmlns="http://www.w3.org/2000/svg">
<circle cx="47.7685" cy="47.7685" r="47.7685" fill="#F2FFE2"/>
<g clip-path="url(#clip0_2298_66711)">
<path fill-rule="evenodd" clip-rule="evenodd" d="M30.5052 36.2241C25.7669 36.2241 21.9258 40.0653 21.9258 44.8035V50.5231C21.9258 55.2614 25.7669 59.1026 30.5052 59.1026C35.2435 59.1026 39.0846 55.2614 39.0846 50.5231H56.2434V56.2428H61.9631V50.5231H64.8229V56.2428H70.5425V44.8035H39.0846C39.0846 40.0653 35.2435 36.2241 30.5052 36.2241ZM33.365 50.5231V44.8035C33.365 43.2241 32.0846 41.9437 30.5052 41.9437C28.9258 41.9437 27.6454 43.2241 27.6454 44.8035V50.5231C27.6454 52.1026 28.9258 53.383 30.5052 53.383C32.0846 53.383 33.365 52.1026 33.365 50.5231Z" fill="#006838"/>
</g>
<defs>
<clipPath id="clip0_2298_66711">
<rect width="60.5026" height="60.5026" fill="white" transform="translate(17.1582 17.1587)"/>
</clipPath>
</defs>
</svg>
