<svg width="76" height="35" viewBox="0 0 76 35" fill="none" xmlns="http://www.w3.org/2000/svg">
<path d="M70.9598 7.49211C70.9598 6.09336 72.0671 4.92773 73.3958 4.92773C74.7402 4.92773 75.8474 6.07671 75.8316 7.49211C75.8316 8.89087 74.7244 10.0565 73.3958 10.0565C72.0671 10.0565 70.9598 8.89087 70.9598 7.49211Z" fill="white"/>
<path d="M66.009 18.7307C64.7278 17.3818 63.5099 16.7824 62.023 16.7824C59.176 16.7824 56.93 19.2635 56.9457 22.4274V22.4773C56.9457 25.6245 59.2551 28.1889 62.0864 28.1889C63.4308 28.1889 64.5855 27.6727 65.7401 26.5403L68.9035 29.7542C66.9422 31.7856 64.712 32.7848 62.0389 32.7848C56.7718 32.7848 52.4852 28.1722 52.4852 22.5272V22.4773C52.4852 16.8157 56.7718 12.2197 62.0705 12.2197C65.4396 12.2197 67.5749 13.8017 69.0617 15.3504L66.009 18.7307Z" fill="white"/>
<path fill-rule="evenodd" clip-rule="evenodd" d="M50.1277 13.7188C50.1277 15.4672 49.5425 17.2322 48.277 18.5811C50.096 19.9133 50.9026 22.1779 50.8869 24.4925C50.8869 28.8886 48.6409 32.3688 42.1241 32.3688H33.314V6.27539H41.966C48.0714 6.27539 50.1277 9.63906 50.1277 13.7188ZM42.0609 10.9046H37.7586V16.5829H42.3298C44.734 16.5829 45.3034 15.1008 45.3034 13.7188C45.3034 12.2867 44.8289 10.9046 42.0609 10.9046ZM37.7745 27.7563H42.2666C45.4457 27.7563 46.0943 26.1411 46.1259 24.5092C46.1259 22.2611 45.0977 21.2121 42.3455 21.2121H37.7745V27.7563Z" fill="white"/>
<path d="M71.1962 12.1865H75.6408V32.3852H71.1962V12.1865Z" fill="white"/>
<path d="M0.0047513 31.4672C0.0606856 33.2 1.29124 34.6769 2.93197 34.9526C3.15572 34.9919 3.37946 35.0116 3.60319 34.9919C4.53542 34.9526 5.39308 34.539 6.00836 33.8302C6.64228 33.1212 6.95925 32.176 6.92195 31.2111C6.92195 28.5724 8.3576 26.7805 10.3153 24.7523C12.3663 23.1572 15.2935 21.2077 19.414 18.7857C24.5412 15.9106 27.8787 12.504 28.6057 9.72742L28.6244 9.64865C28.7176 9.29419 28.755 8.93975 28.7363 8.58529C28.6804 6.85241 27.4499 5.37553 25.8091 5.09985C25.5853 5.06046 25.3616 5.04077 25.1378 5.06046C24.2057 5.09985 23.348 5.51338 22.7327 6.22228C22.0988 6.93118 21.7818 7.87639 21.8191 8.84128C21.8191 11.6178 20.2343 13.4689 18.0902 15.6153C13.5222 19.3764 9.30849 21.2668 9.30849 21.2668C4.18118 24.1418 0.843766 27.5485 0.11662 30.3251L0.097975 30.4038C0.023396 30.7779 -0.0138934 31.1324 0.0047513 31.4672Z" fill="white"/>
<path d="M20.6631 20.3618C20.6631 20.3618 24.392 21.4054 23.2174 26.9389C23.1614 27.2341 23.1242 27.5295 23.1614 27.8446C23.292 29.4791 24.6531 30.6802 26.2006 30.5425C27.748 30.4046 28.8854 28.967 28.7549 27.3326C28.4938 23.4928 21.6325 18.7865 20.7003 18.9045C20.7003 18.9045 20.1597 18.9242 20.1597 19.6529C20.1597 20.2436 20.6631 20.3618 20.6631 20.3618Z" fill="white"/>
<path d="M20.0417 21.9317C20.0417 21.9317 22.4841 22.6209 21.7196 26.2245C21.7196 26.2245 20.9179 29.6312 15.7534 30.5173C9.91754 31.5412 10.0108 29.2767 10.0108 29.2767C9.95484 28.1543 9.5633 26.7956 15.3619 23.0936C15.3619 23.0936 18.2891 21.2031 20.0417 21.9317Z" fill="white"/>
<path d="M5.43065 5.4338C5.76626 10.3567 12.441 16.2446 16.431 18.5289C17.5125 19.159 18.8549 19.0211 19.2464 18.8636C21.0736 17.9774 19.1159 17.2291 19.1159 17.2291C19.1159 17.2291 12.8327 15.4569 14.7903 6.12301C14.9022 5.63071 14.9395 5.11873 14.9022 4.58705C14.6784 1.8302 12.3852 -0.217743 9.77488 0.0185578C7.14597 0.254859 5.20692 2.67695 5.43065 5.4338Z" fill="white"/>
</svg>
