<svg width="60" height="60" viewBox="0 0 60 60" fill="none" xmlns="http://www.w3.org/2000/svg">
<path d="M37.4999 48.75C37.4999 49.4959 37.2035 50.2113 36.6761 50.7387C36.1487 51.2662 35.4333 51.5625 34.6874 51.5625H28.1249C27.3789 51.5625 26.6636 51.2662 26.1361 50.7387C25.6087 50.2113 25.3124 49.4959 25.3124 48.75V35.625C25.3124 34.8791 25.6087 34.1637 26.1361 33.6363C26.6636 33.1088 27.3789 32.8125 28.1249 32.8125C28.8708 32.8125 29.5862 33.1088 30.1136 33.6363C30.641 34.1637 30.9374 34.8791 30.9374 35.625V45.9375H34.6874C35.4333 45.9375 36.1487 46.2338 36.6761 46.7613C37.2035 47.2887 37.4999 48.0041 37.4999 48.75ZM21.328 33.3328C21.0274 33.1173 20.6873 32.9631 20.3271 32.8792C19.9669 32.7953 19.5936 32.7833 19.2288 32.8438C18.8639 32.9043 18.5146 33.0362 18.2007 33.2319C17.8869 33.4276 17.6147 33.6833 17.3999 33.9844L14.9999 37.3453L12.6022 33.9844C12.1671 33.3774 11.5087 32.9681 10.7718 32.8466C10.0349 32.725 9.27991 32.9012 8.67291 33.3363C8.06592 33.7714 7.65664 34.4299 7.5351 35.1668C7.41357 35.9036 7.58974 36.6586 8.02487 37.2656L11.5405 42.1875L8.02487 47.1094C7.80942 47.4099 7.65527 47.75 7.57124 48.1101C7.48721 48.4702 7.47493 48.8434 7.5351 49.2082C7.59528 49.5731 7.72673 49.9225 7.92196 50.2366C8.11719 50.5507 8.37236 50.8232 8.67291 51.0387C8.97346 51.2541 9.31351 51.4083 9.67363 51.4923C10.0338 51.5763 10.4069 51.5886 10.7718 51.5284C11.1366 51.4683 11.4861 51.3368 11.8002 51.1416C12.1142 50.9464 12.3868 50.6912 12.6022 50.3906L14.9999 47.0203L17.3999 50.3906C17.835 50.9976 18.4934 51.4069 19.2303 51.5284C19.9672 51.65 20.7222 51.4738 21.3292 51.0387C21.9362 50.6036 22.3454 49.9451 22.467 49.2082C22.5885 48.4714 22.4123 47.7164 21.9772 47.1094L18.4616 42.1875L21.9772 37.2656C22.1936 36.965 22.3485 36.6247 22.433 36.2641C22.5175 35.9035 22.5299 35.5298 22.4696 35.1644C22.4093 34.7989 22.2774 34.449 22.0815 34.1347C21.8856 33.8204 21.6295 33.5479 21.328 33.3328ZM50.046 40.8445C48.846 40.0359 47.3928 39.6164 46.1108 39.2461C45.4819 39.0763 44.8623 38.8736 44.2546 38.6391C44.8288 38.3625 46.5303 38.3344 48.021 38.7164C48.7305 38.8738 49.4734 38.7504 50.0939 38.3721C50.7145 37.9938 51.1645 37.39 51.3496 36.6872C51.5348 35.9844 51.4407 35.2373 51.0872 34.6023C50.7336 33.9674 50.1479 33.4939 49.453 33.2812C48.5301 33.0536 47.589 32.9077 46.6405 32.8453C44.3131 32.6906 42.4217 33.0984 40.9921 34.057C40.295 34.525 39.7093 35.1403 39.2764 35.8596C38.8434 36.5789 38.5738 37.3845 38.4866 38.2195C38.2288 40.268 39.0702 42.0328 40.8561 43.1859C41.9764 43.9102 43.2842 44.2875 44.5475 44.6531C45.2506 44.8617 46.4085 45.1922 46.8631 45.4805C46.8552 45.5381 46.8386 45.5942 46.8139 45.6469C46.4928 46.0102 44.5686 46.0664 42.9725 45.6328C42.6145 45.5256 42.2387 45.4908 41.8671 45.5304C41.4955 45.57 41.1356 45.6834 40.8082 45.8637C40.4809 46.044 40.1928 46.2878 39.9608 46.5808C39.7288 46.8737 39.5574 47.21 39.4568 47.5699C39.3562 47.9298 39.3283 48.3061 39.3748 48.677C39.4213 49.0478 39.5413 49.4056 39.7276 49.7295C39.914 50.0535 40.163 50.337 40.4602 50.5636C40.7574 50.7902 41.0967 50.9553 41.4585 51.0492C42.6976 51.3827 43.9745 51.5553 45.2577 51.5625C46.7717 51.5625 48.4756 51.2883 49.8819 50.3555C50.5939 49.8846 51.1932 49.2624 51.6368 48.5331C52.0805 47.8038 52.3576 46.9855 52.4483 46.1367C52.7342 43.9523 51.8741 42.0773 50.0413 40.8445H50.046ZM8.43737 25.3125V9.375C8.43737 8.1318 8.93123 6.93951 9.8103 6.06044C10.6894 5.18136 11.8817 4.6875 13.1249 4.6875H35.6249C35.9943 4.68721 36.3602 4.75971 36.7016 4.90087C37.0431 5.04202 37.3533 5.24906 37.6147 5.51016L50.7397 18.6352C51.0008 18.8965 51.2078 19.2068 51.349 19.5482C51.4902 19.8897 51.5627 20.2555 51.5624 20.625V25.3125C51.5624 26.0584 51.266 26.7738 50.7386 27.3012C50.2112 27.8287 49.4958 28.125 48.7499 28.125C48.0039 28.125 47.2886 27.8287 46.7611 27.3012C46.2337 26.7738 45.9374 26.0584 45.9374 25.3125V24.375H34.6874C33.9414 24.375 33.2261 24.0787 32.6986 23.5512C32.1712 23.0238 31.8749 22.3084 31.8749 21.5625V10.3125H14.0624V25.3125C14.0624 26.0584 13.766 26.7738 13.2386 27.3012C12.7112 27.8287 11.9958 28.125 11.2499 28.125C10.5039 28.125 9.78857 27.8287 9.26113 27.3012C8.73368 26.7738 8.43737 26.0584 8.43737 25.3125ZM37.4999 18.75H42.8905L37.4999 13.3594V18.75Z" fill="#FF6363"/>
</svg>
