<svg width="680" height="2299" viewBox="0 0 680 2299" fill="none" xmlns="http://www.w3.org/2000/svg">
<path d="M660.541 16H18.541L339.767 2188L448.797 1434.32L613.921 316.209L660.541 16Z" stroke="white" stroke-width="32" stroke-miterlimit="16"/>
<path d="M464.889 154.523C497.372 156.93 514.065 177.686 515.269 216.941V218.145C515.72 259.656 496.771 280.863 458.272 281.916H405.787V154.523H464.889ZM431.953 175.58V259.506H461.579C479.625 259.506 488.498 245.819 488.047 218.145C488.197 191.673 479.625 177.535 462.03 175.58H431.953Z" fill="white"/>
<path d="M358.565 46.9834H317.66V324.631L95.2383 324.481L101.254 365.391H317.66V1838.61L337.21 1966.75L358.565 1838.31V365.391H574.219L582.039 324.481L358.565 324.631V82.479V46.9834Z" fill="white"/>
<path d="M194.042 193.628C201.712 180.543 211.337 173.925 222.766 173.625C223.217 173.625 223.819 173.625 224.42 173.625C240.06 176.783 248.783 183.401 250.437 193.628H279.161C274.198 164.149 255.4 149.71 222.766 150.011C187.425 150.161 167.724 172.873 163.664 217.844C168.176 262.364 187.876 284.624 222.766 284.624C255.55 283.571 274.349 267.477 279.161 236.494H250.437C247.429 253.189 238.256 261.612 222.916 262.063H222.766C209.081 260.559 199.606 251.986 194.042 236.494C190.583 222.205 190.583 207.917 194.042 193.628Z" fill="white"/>
<path d="M245.926 493.235C247.129 508.125 239.158 516.548 222.014 518.503C206.675 516.398 198.253 509.329 197.05 497.296V407.805H169.68V492.032C170.281 521.361 182.914 537.605 207.126 540.613C218.104 542.418 228.932 542.418 239.91 540.613C261.415 536.552 272.544 520.759 273.446 493.235V407.805H245.926V493.235Z" fill="white"/>
<path d="M433.759 494.288C430.3 479.849 430.3 465.561 433.759 451.272C441.278 438.187 450.753 431.569 462.032 431.419C462.784 431.269 463.385 431.269 463.987 431.419C479.777 434.427 488.5 441.195 490.154 451.272H518.727C513.614 421.943 494.816 407.505 462.032 407.805C426.841 407.956 407.141 430.667 403.23 475.638C407.742 520.158 427.292 542.418 462.032 542.418C494.966 541.365 513.765 525.272 518.727 494.288H490.154C487.146 510.983 477.822 519.406 462.483 519.857H462.032C448.647 518.353 439.173 509.78 433.759 494.288Z" fill="white"/>
</svg>
