<svg width="991" height="1503" viewBox="0 0 991 1503" fill="none" xmlns="http://www.w3.org/2000/svg">
<path fill-rule="evenodd" clip-rule="evenodd" d="M233.445 530.145C332.976 514.754 420.108 467.326 494.841 387.861C614.552 515.039 765.785 560.073 948.543 522.963C962.851 676.021 945.351 819.074 896.042 952.124C842.229 1096.46 751.021 1228.97 622.418 1349.65C581.99 1387.62 539.423 1423.25 494.927 1456.36C450.539 1423.24 408.06 1387.65 367.692 1349.73C238.918 1228.94 147.71 1096.43 94.0684 952.209C52.8998 840.431 33.483 721.812 36.864 602.741C37.4626 576.405 38.9162 549.812 41.5669 523.048C104.608 536.704 169.567 539.106 233.445 530.145ZM233.445 494.147C164.526 506.203 89.9641 499.277 9.41617 473.881C3.85702 516.623 0.716745 559.645 0.0103666 602.741V619.329C-0.515835 732.816 18.9941 845.505 57.6423 952.209C114.248 1107.78 212.667 1251.6 352.899 1383.68C398.123 1425.94 445.622 1465.71 495.183 1502.79C544.68 1465.73 592.094 1425.96 637.211 1383.68C777.614 1251.66 876.118 1107.83 932.724 952.209C971.193 845.462 990.642 732.796 990.185 619.329C990.173 570.718 986.974 522.16 980.608 473.967C783.827 536.159 621.962 486.765 495.012 325.783C419.766 420.867 332.577 477.017 233.445 494.232V494.147Z" fill="white"/>
<path fill-rule="evenodd" clip-rule="evenodd" d="M562.221 743.914H513.824L506.214 717.406H453.199L446.188 743.914H398.731L455.166 584.956H505.872L562.221 743.914ZM658.417 743.914V584.528H719.726L743.24 681.408L766.498 584.528H827.379V743.914H789.414V622.408L760.085 743.914H725.882L696.468 622.75V743.914H658.417ZM921.181 776.834C932.735 701.781 935.003 625.591 927.936 549.983C757.89 584.471 613.582 541.09 495.012 419.841C418.455 498.109 331.266 543.883 233.445 557.166C176.419 564.204 118.618 561.66 62.4308 549.641C60.8061 567.426 59.78 585.212 59.096 602.741C56.8599 660.848 60.2388 719.035 69.1858 776.492L921.181 776.834ZM233.445 586.58H238.747C249.824 586.511 260.797 588.723 270.983 593.079C279.739 597.177 287.7 602.793 294.498 609.667C297.302 612.268 299.85 615.131 302.108 618.218L269.016 638.654C267.99 637.628 267.135 636.431 266.109 635.405C262.77 631.728 258.839 628.636 254.48 626.256C247.099 622.723 238.765 621.705 230.75 623.358C222.736 625.01 215.484 629.241 210.102 635.405C202.609 643.976 198.479 654.974 198.479 666.358C198.479 677.743 202.609 688.741 210.102 697.312C213.433 701.11 217.517 704.173 222.095 706.307C226.673 708.442 231.645 709.601 236.695 709.711H238.148C243.473 709.755 248.741 708.62 253.575 706.388C258.41 704.155 262.69 700.881 266.109 696.799C267.932 694.851 269.565 692.732 270.983 690.472L301.851 712.361C299.573 715.356 297.118 718.212 294.498 720.912C287.266 728.347 278.589 734.223 269.001 738.178C259.413 742.134 249.117 744.086 238.747 743.914H235.84C215.869 743.38 196.888 735.101 182.911 720.827C175.579 713.546 169.76 704.887 165.789 695.349C161.818 685.81 159.773 675.579 159.773 665.247C159.773 654.914 161.818 644.684 165.789 635.145C169.76 625.606 175.579 616.947 182.911 609.667C185.234 607.28 187.689 605.025 190.264 602.912C202.498 593.227 217.437 587.58 233.018 586.751L233.445 586.58Z" fill="white"/>
<path fill-rule="evenodd" clip-rule="evenodd" d="M463.545 683.032H496.465L480.134 625.828L463.545 683.032ZM561.622 808.728H428.145V1372.22L429.428 1373.25C450.291 1391.43 472.096 1409.42 494.841 1427.2C517.643 1409.42 539.504 1391.43 560.425 1373.25C560.865 1373.02 561.223 1372.66 561.451 1372.22V808.728H561.622ZM873.724 952.21C891.878 905.721 905.843 857.703 915.451 808.728H763.163V1154.35C792.913 1112.97 819.36 1069.31 842.257 1023.78C853.886 1000.44 864.318 976.579 873.724 952.637V952.21ZM726.822 1202.58V808.728H593.944V1343.41C594.705 1342.68 595.504 1341.99 596.338 1341.35C643.179 1298.36 686.792 1251.97 726.822 1202.58ZM74.5723 808.728C84.2008 857.679 98.1063 905.69 116.129 952.21C125.535 976.152 136.138 1000.01 147.767 1023.35C170.584 1069.03 196.974 1112.83 226.69 1154.35V808.728H74.5723ZM263.458 808.728V1202.58C303.37 1251.89 346.777 1298.27 393.344 1341.35C394.169 1341.97 394.941 1342.66 395.652 1343.41V808.728H263.458Z" fill="white"/>
<path fill-rule="evenodd" clip-rule="evenodd" d="M494.926 0L534.601 94.4001L636.612 102.951L559.142 169.818L582.485 269.605L494.926 216.505L407.366 269.605L430.795 169.818L353.24 102.951L455.25 94.4001L494.926 0Z" fill="white"/>
</svg>
