<svg width="1053" height="1175" viewBox="0 0 1053 1175" fill="none" xmlns="http://www.w3.org/2000/svg">
<path d="M526.162 1163.02C222.321 1018.28 10.1309 696.584 10.1309 324.532C10.1309 252.159 18.1563 181.717 33.3196 114.094C82.6482 129.785 139.81 138.746 200.931 138.746C346.17 138.746 472.778 88.1581 526.15 16.9004C579.509 88.1581 706.117 138.746 851.356 138.746C912.501 138.746 969.639 129.773 1018.98 114.094C1034.14 181.717 1042.18 252.159 1042.18 324.532C1042.18 696.584 829.991 1018.28 526.162 1163.02Z" stroke="white" stroke-width="20.2617"/>
<path d="M929.603 693.71C901.239 756.581 865.9 815.484 824.611 869.383V167.625C832.931 167.925 841.329 168.09 849.792 168.09C877.254 168.09 903.948 166.444 929.603 163.35V693.71Z" fill="white" stroke="white" stroke-width="11.9963"/>
<path d="M122.689 163.349C148.356 166.444 175.061 168.09 202.524 168.09C210.976 168.09 219.37 167.925 227.681 167.625V869.359C186.394 815.456 151.065 756.523 122.689 693.661V163.349Z" fill="white" stroke="white" stroke-width="11.9963"/>
<path d="M701.614 1008.01C665.05 1039.33 625.918 1067.6 584.639 1092.51V837.021C627.582 829.183 667.316 811.947 701.614 787.532V1008.01ZM584.639 101.331C617.868 119.709 657.552 134.716 701.614 145.213V309.155C667.316 284.737 627.582 267.497 584.639 259.657V101.331Z" fill="white"/>
<path d="M350.689 778.824C384.505 805.49 424.289 824.897 467.653 834.654V1092.5C426.398 1067.59 387.254 1039.33 350.689 1008V778.824ZM467.653 262.023C424.288 271.783 384.504 291.194 350.689 317.863V145.225C394.752 134.728 434.448 119.733 467.653 101.354V262.023Z" fill="white"/>
<path d="M590.521 783.498V747.689C571.939 753.171 552.277 756.135 531.967 756.135C417.547 756.135 324.192 662.792 324.192 548.359C324.192 433.927 417.547 340.572 531.967 340.572C552.289 340.572 571.951 343.523 590.521 349.018V313.185C571.759 308.506 552.145 306.011 531.967 306.011C398.497 306.011 289.631 414.865 289.631 548.359C289.631 681.83 398.497 790.684 531.967 790.684C552.145 790.672 571.759 788.177 590.521 783.498Z" fill="white"/>
<path d="M556.875 364.37C568.451 365.942 579.704 368.569 590.524 372.192V695.119C611.794 686.589 630.856 673.55 646.427 657.175V694.339C621.031 714.301 590.345 727.785 556.875 732.295V364.37Z" fill="white"/>
<path d="M416.546 534.572V440.533C393.081 465.665 377.666 498.403 374.523 534.572H416.546ZM443.202 711.289C433.809 706.13 424.895 700.192 416.546 693.546V562.127H374.523C377.09 591.842 387.971 619.253 404.802 642.022H371.824C355.629 614.491 346.332 582.485 346.332 548.344C346.332 478.213 385.572 416.973 443.202 385.398V404.904V711.289Z" fill="white"/>
<path d="M541.334 404.305V476.355H513.346V425.755L513.322 421.94C513.322 415.462 504.145 412.487 500.271 412.487C496.348 412.487 487.627 413.914 487.627 422.156C487.627 422.432 487.639 452.83 487.674 453.118V496.532C487.998 498.284 488.598 500.263 489.462 502.387C490.722 505.422 492.353 508.253 494.069 510.508L534.784 554.054C536.463 556.31 538.071 559.093 539.282 562.08C540.422 564.827 541.082 567.334 541.322 569.398V702.844C539.426 719.315 529.709 725.793 513.478 727.52C507.564 728.084 500.978 727.844 499.383 727.304C477.862 720.346 460.935 704.871 457.672 683.326V610.101H488.574V674.233C488.526 674.701 488.514 675.157 488.514 675.612C488.514 682.918 496.528 687.477 501.71 687.477C506.893 687.477 514.762 686.889 514.906 675.612C514.918 675.325 514.906 675.037 514.894 674.749V590.139C514.57 588.4 513.958 586.42 513.083 584.333C512.243 582.294 511.223 580.338 510.131 578.575L463.31 527.843C461.979 525.839 460.719 523.548 459.723 521.101C458.548 518.294 457.876 515.702 457.684 513.603V398.715C459.195 386.215 466.477 375.802 476.266 371.256C481.7 368.952 486.415 367.813 492.509 366.937C517.905 364.418 538.587 380.517 541.334 404.305Z" fill="white"/>
<path d="M739.037 531.047C735.942 493.907 723.01 459.525 702.88 430.459V531.047H739.037ZM667.431 347.564C731.827 391.207 774.318 464.972 774.318 548.346C774.318 640.477 722.446 720.864 646.426 761.831V721.596C698.058 687.346 733.627 630.652 739.037 565.644H702.88V620.695C694.291 640.897 682.223 659.263 667.431 675.05V347.564Z" fill="white"/>
<path d="M785.828 548.343C785.828 408.553 671.776 294.49 531.975 294.49C392.173 294.49 278.121 408.553 278.121 548.343C278.121 688.134 392.185 802.208 531.975 802.208C671.775 802.208 785.828 688.135 785.828 548.343ZM819.416 548.343C819.416 706.682 690.329 835.796 531.975 835.796C373.633 835.796 244.533 706.683 244.533 548.343C244.533 390.003 373.622 260.902 531.975 260.902C690.328 260.902 819.416 390.003 819.416 548.343Z" fill="white"/>
<path d="M614.972 574.459C620.01 574.459 623.837 572.239 626.476 567.789C629.103 563.338 630.411 556.86 630.411 548.319C630.411 539.466 629.019 532.736 626.212 528.105C623.453 523.451 619.41 521.135 614.096 521.135H598.885V574.459H614.972ZM618.954 536.598C620.418 539.106 621.162 542.908 621.162 547.983C621.162 553.177 620.454 556.944 619.051 559.271C617.659 561.611 615.392 562.774 612.285 562.774H607.918V532.808H612.285C615.248 532.82 617.479 534.079 618.954 536.598Z" fill="white"/>
<path d="M634.148 574.459V521.135H657.901V532.604H643.098V541.109H656.749V552.481H643.098V562.774H658.417V574.459H634.148Z" fill="white"/>
</svg>
