<svg width="70" height="70" viewBox="0 0 70 70" fill="none" xmlns="http://www.w3.org/2000/svg">
<path d="M55.3704 10H14.6296C13.4018 10 12.2242 10.4878 11.356 11.356C10.4878 12.2242 10 13.4018 10 14.6296V55.3704C10 56.5982 10.4878 57.7758 11.356 58.644C12.2242 59.5122 13.4018 60 14.6296 60H55.3704C56.5982 60 57.7758 59.5122 58.644 58.644C59.5122 57.7758 60 56.5982 60 55.3704V14.6296C60 13.4018 59.5122 12.2242 58.644 11.356C57.7758 10.4878 56.5982 10 55.3704 10ZM54.4444 54.4444H15.5556V15.5556H54.4444V54.4444ZM31.2963 46.1111V33.1481C31.2968 32.5709 31.4772 32.0081 31.8124 31.5381C32.1475 31.0681 32.6207 30.7141 33.1663 30.5255C33.7119 30.3368 34.3027 30.3229 34.8566 30.4855C35.4105 30.6481 35.8999 30.9792 36.2569 31.4329C37.6678 30.6933 39.2457 30.3303 40.8379 30.3789C42.4301 30.4274 43.9828 30.886 45.346 31.7101C46.7092 32.5343 47.8367 33.6962 48.6196 35.0835C49.4024 36.4708 49.8141 38.0367 49.8148 39.6296V46.1111C49.8148 46.8478 49.5222 47.5544 49.0012 48.0753C48.4803 48.5962 47.7737 48.8889 47.037 48.8889C46.3003 48.8889 45.5938 48.5962 45.0729 48.0753C44.5519 47.5544 44.2593 46.8478 44.2593 46.1111V39.6296C44.2593 38.6473 43.869 37.7053 43.1745 37.0107C42.4799 36.3161 41.5378 35.9259 40.5556 35.9259C39.5733 35.9259 38.6312 36.3161 37.9366 37.0107C37.2421 37.7053 36.8519 38.6473 36.8519 39.6296V46.1111C36.8519 46.8478 36.5592 47.5544 36.0383 48.0753C35.5173 48.5962 34.8108 48.8889 34.0741 48.8889C33.3374 48.8889 32.6308 48.5962 32.1099 48.0753C31.589 47.5544 31.2963 46.8478 31.2963 46.1111ZM27.5926 33.1481V46.1111C27.5926 46.8478 27.2999 47.5544 26.779 48.0753C26.2581 48.5962 25.5515 48.8889 24.8148 48.8889C24.0781 48.8889 23.3716 48.5962 22.8506 48.0753C22.3297 47.5544 22.037 46.8478 22.037 46.1111V33.1481C22.037 32.4114 22.3297 31.7049 22.8506 31.184C23.3716 30.663 24.0781 30.3704 24.8148 30.3704C25.5515 30.3704 26.2581 30.663 26.779 31.184C27.2999 31.7049 27.5926 32.4114 27.5926 33.1481ZM21.1111 23.8889C21.1111 23.1564 21.3283 22.4403 21.7353 21.8312C22.1423 21.2222 22.7207 20.7474 23.3975 20.4671C24.0742 20.1868 24.8189 20.1134 25.5374 20.2564C26.2558 20.3993 26.9158 20.752 27.4337 21.27C27.9517 21.7879 28.3044 22.4479 28.4474 23.1663C28.5903 23.8848 28.5169 24.6295 28.2366 25.3062C27.9563 25.983 27.4816 26.5614 26.8725 26.9684C26.2634 27.3754 25.5473 27.5926 24.8148 27.5926C23.8325 27.5926 22.8905 27.2024 22.1959 26.5078C21.5013 25.8132 21.1111 24.8712 21.1111 23.8889Z" fill="#101943"/>
</svg>
