<svg width="61" height="61" viewBox="0 0 61 61" fill="none" xmlns="http://www.w3.org/2000/svg">
<path d="M27.6406 4.76562V2.85938C27.6406 2.10102 27.9419 1.37373 28.4781 0.837492C29.0144 0.301255 29.7416 0 30.5 0C31.2584 0 31.9856 0.301255 32.5219 0.837492C33.0581 1.37373 33.3594 2.10102 33.3594 2.85938V4.76562C33.3594 5.52398 33.0581 6.25127 32.5219 6.78751C31.9856 7.32375 31.2584 7.625 30.5 7.625C29.7416 7.625 29.0144 7.32375 28.4781 6.78751C27.9419 6.25127 27.6406 5.52398 27.6406 4.76562ZM47.6562 13.3438C48.0319 13.344 48.4038 13.2703 48.751 13.1268C49.0981 12.9833 49.4135 12.7728 49.6793 12.5074L51.5855 10.6011C51.8515 10.3352 52.0625 10.0194 52.2064 9.67188C52.3504 9.32436 52.4245 8.95189 52.4245 8.57574C52.4245 8.19959 52.3504 7.82713 52.2064 7.47961C52.0625 7.13209 51.8515 6.81633 51.5855 6.55035C51.3195 6.28437 51.0038 6.07339 50.6563 5.92944C50.3087 5.7855 49.9363 5.71141 49.5601 5.71141C49.184 5.71141 48.8115 5.7855 48.464 5.92944C48.1165 6.07339 47.8007 6.28437 47.5347 6.55035L45.6285 8.4566C45.2262 8.85653 44.952 9.36708 44.8406 9.9233C44.7293 10.4795 44.786 11.0563 45.0034 11.5802C45.2208 12.1042 45.5891 12.5516 46.0615 12.8656C46.5339 13.1797 47.089 13.3461 47.6562 13.3438ZM11.3207 12.5074C11.8579 13.0446 12.5865 13.3463 13.3461 13.3463C14.1058 13.3463 14.8344 13.0446 15.3715 12.5074C15.9087 11.9702 16.2105 11.2417 16.2105 10.482C16.2105 9.72232 15.9087 8.99377 15.3715 8.4566L13.4653 6.55035C12.9281 6.01318 12.1996 5.71141 11.4399 5.71141C10.6802 5.71141 9.95166 6.01318 9.41449 6.55035C8.87732 7.08752 8.57555 7.81607 8.57555 8.57574C8.57555 9.33541 8.87732 10.064 9.41449 10.6011L11.3207 12.5074ZM56.2344 41.9375V47.6562C56.2344 48.9202 55.7323 50.1323 54.8386 51.0261C53.9448 51.9198 52.7327 52.4219 51.4688 52.4219H9.53125C8.26733 52.4219 7.05517 51.9198 6.16144 51.0261C5.26772 50.1323 4.76563 48.9202 4.76563 47.6562V41.9375C4.7654 40.8389 5.14476 39.7739 5.83951 38.9229C6.53425 38.0718 7.5017 37.4869 8.57812 37.2672V33.3594C8.57813 27.5453 10.8877 21.9694 14.9989 17.8583C19.11 13.7471 24.686 11.4375 30.5 11.4375H30.6692C42.6523 11.528 52.4219 21.4691 52.4219 33.5977V37.2672C53.4983 37.4869 54.4658 38.0718 55.1605 38.9229C55.8552 39.7739 56.2346 40.8389 56.2344 41.9375ZM14.2969 33.3594V37.1719H46.7031V33.5977C46.7031 24.5978 39.4904 17.223 30.6239 17.1562H30.5C26.2027 17.1563 22.0813 18.8634 19.0427 21.902C16.004 24.9407 14.2969 29.062 14.2969 33.3594ZM50.5156 42.8906H10.4844V46.7031H50.5156V42.8906ZM32.5016 26.9925C33.527 27.3147 34.4594 27.8798 35.2195 28.6399C35.9795 29.3999 36.5447 30.3324 36.8669 31.3578C37.0944 32.0814 37.6 32.685 38.2725 33.0358C38.9451 33.3866 39.7294 33.4558 40.453 33.2283C41.1766 33.0008 41.7802 32.4952 42.131 31.8226C42.4818 31.1501 42.551 30.3658 42.3235 29.6422C41.725 27.7394 40.6759 26.0092 39.2654 24.5988C37.8549 23.1883 36.1247 22.1392 34.222 21.5406C33.4984 21.3131 32.714 21.3824 32.0415 21.7332C31.369 22.084 30.8633 22.6875 30.6358 23.4111C30.4083 24.1347 30.4776 24.9191 30.8284 25.5916C31.1791 26.2641 31.7827 26.7698 32.5063 26.9973L32.5016 26.9925Z" fill="#FF6363"/>
</svg>
