<svg width="96" height="96" viewBox="0 0 96 96" fill="none" xmlns="http://www.w3.org/2000/svg">
<circle cx="47.7685" cy="47.7685" r="47.7685" fill="#F2FFE2"/>
<path d="M68.7748 35.9482L55.5426 22.716C55.2793 22.4524 54.9665 22.2432 54.6223 22.1005C54.2781 21.9578 53.9091 21.8843 53.5365 21.8843H30.8527C29.5994 21.8843 28.3974 22.3822 27.5111 23.2684C26.6248 24.1547 26.127 25.3567 26.127 26.6101V68.1969C26.127 69.4503 26.6248 70.6523 27.5111 71.5386C28.3974 72.4248 29.5994 72.9227 30.8527 72.9227H64.8784C66.1317 72.9227 67.3337 72.4248 68.22 71.5386C69.1062 70.6523 69.6041 69.4503 69.6041 68.1969V37.9519C69.6041 37.2005 69.3058 36.4798 68.7748 35.9482ZM55.4268 30.627L60.8614 36.0616H55.4268V30.627ZM31.7979 67.2518V27.5552H49.7559V38.8971C49.7559 39.6491 50.0546 40.3703 50.5864 40.9021C51.1181 41.4338 51.8393 41.7326 52.5913 41.7326H63.9332V67.2518H31.7979Z" fill="#1E7B4D"/>
</svg>
