<svg width="61" height="61" viewBox="0 0 61 61" fill="none" xmlns="http://www.w3.org/2000/svg">
<path d="M55.8577 38.6017C56.0455 38.9277 56.1672 39.2876 56.2159 39.6606C56.2646 40.0337 56.2393 40.4128 56.1415 40.7761C56.0437 41.1394 55.8753 41.4799 55.6459 41.7781C55.4165 42.0763 55.1306 42.3265 54.8045 42.5142C54.4785 42.702 54.1186 42.8237 53.7456 42.8724C53.3725 42.921 52.9935 42.8957 52.6301 42.7979C52.2668 42.7001 51.9263 42.5317 51.6281 42.3024C51.3299 42.073 51.0797 41.7871 50.892 41.461L46.8745 34.4317C44.6328 35.842 42.2159 36.9523 39.6856 37.7343L40.9461 45.2735C41.0701 46.0214 40.892 46.788 40.451 47.4046C40.01 48.0212 39.3421 48.4375 38.5943 48.5618C38.437 48.5895 38.2775 48.6031 38.1177 48.6023C37.4425 48.6016 36.7893 48.362 36.2738 47.9259C35.7583 47.4898 35.4138 46.8853 35.3012 46.2195L34.0741 38.8804C31.6938 39.1441 29.2916 39.1441 26.9113 38.8804L25.6961 46.2267C25.5834 46.8932 25.2382 47.4984 24.7217 47.9346C24.2053 48.3708 23.5509 48.6099 22.8749 48.6095C22.7151 48.6102 22.5556 48.5967 22.3983 48.569C22.0279 48.5066 21.6735 48.3719 21.3552 48.1725C21.0369 47.9731 20.761 47.713 20.5433 47.407C20.3256 47.1009 20.1702 46.755 20.0862 46.389C20.0022 46.0229 19.9911 45.6439 20.0536 45.2735L21.3141 37.7152C18.7838 36.9332 16.3669 35.8229 14.1252 34.4127L10.1078 41.461C9.72858 42.1195 9.10334 42.6004 8.36959 42.7979C7.63584 42.9955 6.85368 42.8934 6.19518 42.5142C5.53667 42.1351 5.05577 41.5098 4.85825 40.7761C4.66074 40.0423 4.7628 39.2602 5.14197 38.6017L9.53111 30.9409C8.04349 29.5975 6.66432 28.1386 5.40647 26.578C4.96241 25.9857 4.76534 25.2443 4.85671 24.5098C4.94808 23.7752 5.32076 23.1047 5.89637 22.6392C6.47199 22.1738 7.20567 21.9497 7.9431 22.0142C8.68053 22.0786 9.36423 22.4265 9.85041 22.9847C13.6724 27.717 20.3586 33.3595 30.4999 33.3595C40.6411 33.3595 47.3273 27.717 51.1493 22.9847C51.6276 22.4004 52.3176 22.029 53.0688 21.9516C53.8199 21.8742 54.5712 22.097 55.1586 22.5715C55.746 23.046 56.1219 23.7335 56.2042 24.4842C56.2866 25.2348 56.0686 25.9875 55.598 26.578C54.3387 28.1388 52.9579 29.5977 51.4686 30.9409L55.8577 38.6017Z" fill="#2743B2"/>
</svg>
