<svg width="3906" height="3685" viewBox="0 0 3906 3685" fill="none" xmlns="http://www.w3.org/2000/svg">
<g clip-path="url(#clip0_8069_29674)">
<path d="M2905.75 2354.81V2419.13C2998.5 2247.6 3051.12 2051.03 3051.12 1842.36C3051.12 1633.69 2998.41 1437.22 2905.75 1265.59V1329.91C2723.14 991.682 2365.46 761.887 1953.96 761.887V932.488C2197.19 932.488 2425.71 1027.05 2597.71 1198.86C2769.52 1370.67 2864.31 1599.16 2864.31 1842.27C2864.31 2085.37 2769.52 2313.77 2597.71 2485.67C2425.71 2657.49 2197.1 2752.14 1953.96 2752.14V2922.74C2365.56 2922.74 2723.24 2692.95 2905.75 2354.72V2354.81Z" fill="url(#paint0_linear_8069_29674)"/>
<path d="M2905.76 67.9425V266.093C2627.98 98.1909 2302.24 1.396 1953.87 1.396V171.997C2179.6 171.997 2398.62 216.113 2604.32 303.229C2710.85 348.182 2811.52 403.839 2905.66 469.176V296.62C2997.76 360.561 3084.18 432.599 3164.54 512.92C3337.56 685.755 3473.24 886.697 3567.94 1110.63C3665.91 1342.28 3715.73 1588.55 3715.73 1842.45C3715.73 2096.35 3665.91 2342.62 3567.94 2574.28C3473.14 2798.21 3337.56 2999.34 3164.54 3171.99C3084.18 3252.22 2997.76 3324.44 2905.66 3388.29V3215.73C2811.52 3280.97 2710.85 3336.63 2604.32 3381.77C2398.53 3468.89 2179.5 3513 1953.87 3513V3683.6C2302.24 3683.6 2627.98 3587 2905.66 3419V3617.15C3506.11 3254.08 3907.74 2595.22 3907.74 1842.55C3907.74 1089.87 3506.39 431.016 2905.76 67.9425Z" fill="url(#paint1_linear_8069_29674)"/>
<path d="M2905.76 67.9425V266.093C2627.98 98.1909 2302.24 1.396 1953.87 1.396V171.997C2179.6 171.997 2398.62 216.113 2604.32 303.229C2710.85 348.182 2811.52 403.839 2905.66 469.176V296.62C2997.76 360.561 3084.18 432.599 3164.54 512.92C3337.56 685.755 3473.24 886.697 3567.94 1110.63C3665.91 1342.28 3715.73 1588.55 3715.73 1842.45C3715.73 2096.35 3665.91 2342.62 3567.94 2574.28C3473.14 2798.21 3337.56 2999.34 3164.54 3171.99C3084.18 3252.22 2997.76 3324.44 2905.66 3388.29V3215.73C2811.52 3280.97 2710.85 3336.63 2604.32 3381.77C2398.53 3468.89 2179.5 3513 1953.87 3513V3683.6C2302.24 3683.6 2627.98 3587 2905.66 3419V3617.15C3506.11 3254.08 3907.74 2595.22 3907.74 1842.55C3907.74 1089.87 3506.39 431.016 2905.76 67.9425Z" fill="url(#paint2_linear_8069_29674)"/>
<path d="M2905.75 3098.83C3261.01 2795.98 3486.27 2345.51 3486.27 1842.36C3486.27 1339.21 3261.01 888.652 2905.75 585.888V726.148C2649.58 507.708 2317.04 375.639 1953.96 375.639V546.24C2300.28 546.24 2626.02 681.008 2870.83 925.881C2882.85 937.701 2894.39 949.986 2905.85 962.272V851.609C3156.53 1121.98 3294.26 1471.56 3294.26 1842.36C3294.26 2213.16 3156.62 2562.74 2905.85 2833.11V2722.45C2894.49 2734.74 2882.85 2746.83 2870.83 2758.84C2626.02 3003.62 2300.28 3138.48 1953.96 3138.48V3309.08C2317.13 3309.08 2649.58 3177.2 2905.75 2958.57V3098.83Z" fill="url(#paint3_linear_8069_29674)"/>
<path d="M1953.87 2422.85C2274.58 2422.85 2534.57 2162.99 2534.57 1842.45C2534.57 1521.91 2274.49 1262.06 1953.87 1262.06C1633.25 1262.06 1373.17 1521.91 1373.17 1842.45C1373.17 2162.99 1633.25 2422.85 1953.87 2422.85Z" fill="#76B7CD"/>
<path d="M1002.08 1330.19V1265.87C909.328 1437.5 856.715 1633.97 856.715 1842.64C856.715 2051.31 909.421 2247.78 1002.08 2419.41V2355.09C1184.69 2693.32 1542.37 2923.11 1953.87 2923.11V2752.51C1710.92 2752.51 1482.12 2657.95 1310.12 2486.14C1138.31 2314.33 1043.7 2085.93 1043.7 1842.73C1043.7 1599.54 1138.22 1371.23 1310.12 1199.33C1482.12 1027.52 1710.73 932.954 1953.87 932.954V762.353C1542.27 762.353 1184.59 992.148 1002.08 1330.37V1330.19Z" fill="url(#paint4_linear_8069_29674)"/>
<path d="M1002.08 266V67.8495C401.632 430.83 0 1089.78 0 1842.45C0 2595.13 401.353 3253.98 1002.08 3617.06V3418.91C1279.86 3586.81 1605.6 3683.51 1953.87 3683.51V3512.91C1728.14 3512.91 1509.12 3468.79 1303.42 3381.68C1196.89 3336.72 1096.22 3281.16 1002.08 3215.73V3388.29C909.981 3324.35 823.565 3252.31 743.015 3171.99C570.182 2999.25 434.504 2798.21 339.8 2574.28C241.743 2342.62 192.016 2096.35 192.016 1842.45C192.016 1588.55 241.836 1342.28 339.8 1110.63C434.597 886.697 570.182 685.568 743.015 512.92C823.378 432.599 909.981 360.375 1002.08 296.62V469.176C1096.22 403.933 1196.89 348.275 1303.42 303.229C1509.22 216.113 1728.24 171.997 1953.87 171.997V1.30298C1605.6 1.30298 1279.77 97.9117 1002.08 265.907V266Z" fill="url(#paint5_linear_8069_29674)"/>
<path d="M1002.08 266V67.8495C401.632 430.83 0 1089.78 0 1842.45C0 2595.13 401.353 3253.98 1002.08 3617.06V3418.91C1279.86 3586.81 1605.6 3683.51 1953.87 3683.51V3512.91C1728.14 3512.91 1509.12 3468.79 1303.42 3381.68C1196.89 3336.72 1096.22 3281.16 1002.08 3215.73V3388.29C909.981 3324.35 823.565 3252.31 743.015 3171.99C570.182 2999.25 434.504 2798.21 339.8 2574.28C241.743 2342.62 192.016 2096.35 192.016 1842.45C192.016 1588.55 241.836 1342.28 339.8 1110.63C434.597 886.697 570.182 685.568 743.015 512.92C823.378 432.599 909.981 360.375 1002.08 296.62V469.176C1096.22 403.933 1196.89 348.275 1303.42 303.229C1509.22 216.113 1728.24 171.997 1953.87 171.997V1.30298C1605.6 1.30298 1279.77 97.9117 1002.08 265.907V266Z" fill="url(#paint6_linear_8069_29674)"/>
<path d="M1002.08 586.075C646.82 888.931 421.746 1339.4 421.746 1842.55C421.746 2345.69 647.006 2796.26 1002.08 3099.02V2958.76C1258.25 3177.2 1590.79 3309.27 1953.87 3309.27V3138.67C1607.55 3138.67 1281.81 3003.9 1036.81 2759.03C1024.99 2747.21 1013.44 2734.92 1002.08 2722.64V2833.3C751.395 2562.92 613.669 2213.35 613.669 1842.55C613.669 1471.75 751.302 1122.17 1002.08 851.795V962.458C1013.44 950.172 1024.89 938.073 1036.81 926.067C1281.81 681.287 1607.55 546.426 1953.87 546.426V375.825C1590.7 375.825 1258.25 507.708 1002.08 726.334V586.075Z" fill="url(#paint7_linear_8069_29674)"/>
</g>
<defs>
<linearGradient id="paint0_linear_8069_29674" x1="2491.36" y1="3061.42" x2="2505.04" y2="900.658" gradientUnits="userSpaceOnUse">
<stop offset="0.12" stop-color="#76B7CD" stop-opacity="0"/>
<stop offset="0.9" stop-color="#76B7CD"/>
</linearGradient>
<linearGradient id="paint1_linear_8069_29674" x1="2912.74" y1="3920.1" x2="2934.97" y2="237.985" gradientUnits="userSpaceOnUse">
<stop offset="0.12" stop-color="#76B7CD" stop-opacity="0"/>
<stop offset="0.9" stop-color="#76B7CD"/>
</linearGradient>
<linearGradient id="paint2_linear_8069_29674" x1="2912.74" y1="3920.1" x2="2934.97" y2="237.985" gradientUnits="userSpaceOnUse">
<stop offset="0.09" stop-color="#76B7CD" stop-opacity="0"/>
<stop offset="0.74" stop-color="#76B7CD"/>
</linearGradient>
<linearGradient id="paint3_linear_8069_29674" x1="2705.54" y1="3496.34" x2="2723.4" y2="562.899" gradientUnits="userSpaceOnUse">
<stop offset="0.12" stop-color="#76B7CD" stop-opacity="0"/>
<stop offset="0.9" stop-color="#76B7CD"/>
</linearGradient>
<linearGradient id="paint4_linear_8069_29674" x1="1401.01" y1="3061.6" x2="1414.59" y2="900.844" gradientUnits="userSpaceOnUse">
<stop offset="0.5" stop-color="#76B7CD"/>
<stop offset="1" stop-color="#76B7CD" stop-opacity="0"/>
</linearGradient>
<linearGradient id="paint5_linear_8069_29674" x1="969.951" y1="3919.82" x2="992.091" y2="237.706" gradientUnits="userSpaceOnUse">
<stop offset="0.5" stop-color="#76B7CD"/>
<stop offset="1" stop-color="#76B7CD" stop-opacity="0"/>
</linearGradient>
<linearGradient id="paint6_linear_8069_29674" x1="969.951" y1="3919.82" x2="992.091" y2="237.706" gradientUnits="userSpaceOnUse">
<stop offset="0.5" stop-color="#76B7CD"/>
<stop offset="1" stop-color="#76B7CD" stop-opacity="0"/>
</linearGradient>
<linearGradient id="paint7_linear_8069_29674" x1="1182.08" y1="3498.76" x2="1200.13" y2="565.319" gradientUnits="userSpaceOnUse">
<stop offset="0.5" stop-color="#76B7CD"/>
<stop offset="1" stop-color="#76B7CD" stop-opacity="0"/>
</linearGradient>
<clipPath id="clip0_8069_29674">
<rect width="3905.67" height="3685" fill="white"/>
</clipPath>
</defs>
</svg>
