<svg width="3909" height="3685" viewBox="0 0 3909 3685" fill="none" xmlns="http://www.w3.org/2000/svg">
<g clip-path="url(#clip0_8069_29684)">
<path d="M2906.15 2354.86V2419.22C2998.9 2247.56 3051.51 2050.85 3051.51 1842.03C3051.51 1633.21 2998.81 1436.59 2906.15 1264.84V1329.2C2723.73 990.73 2365.86 760.767 1954.36 760.767V931.493C2197.59 931.493 2426.11 1026.12 2598.11 1198.06C2770.1 1370 2864.71 1598.66 2864.71 1841.94C2864.71 2085.22 2770.19 2313.79 2598.11 2485.82C2426.11 2657.75 2197.69 2752.48 1954.36 2752.48V2923.2C2365.96 2923.2 2723.82 2693.24 2906.15 2354.77V2354.86Z" fill="url(#paint0_linear_8069_29684)"/>
<path d="M2906.15 66.3135V264.609C2628.37 96.584 2302.82 -0.374939 1954.27 -0.374939V170.351C2179.99 170.351 2399.01 214.5 2604.72 301.679C2711.25 346.666 2811.91 402.363 2906.06 467.748V295.066C2998.16 359.053 3084.57 431.144 3165.12 511.524C3337.96 684.485 3473.63 885.575 3568.34 1109.67C3666.4 1341.5 3716.12 1587.95 3716.12 1842.03C3716.12 2096.12 3666.3 2342.57 3568.34 2574.39C3473.54 2798.49 3337.96 2999.77 3165.12 3172.54C3084.85 3252.83 2998.16 3325.1 2906.06 3389V3216.32C2811.91 3281.61 2711.25 3337.31 2604.72 3382.48C2398.92 3469.66 2179.99 3513.81 1954.27 3513.81V3684.53C2302.82 3684.53 2628.37 3587.85 2906.06 3419.73V3618.03C3506.51 3254.69 3908.14 2595.35 3908.14 1842.13C3908.14 1088.9 3506.79 429.56 2906.15 66.3135Z" fill="url(#paint1_linear_8069_29684)"/>
<path d="M2906.15 66.3135V264.609C2628.37 96.584 2302.82 -0.374939 1954.27 -0.374939V170.351C2179.99 170.351 2399.01 214.5 2604.72 301.679C2711.25 346.666 2811.91 402.363 2906.06 467.748V295.066C2998.16 359.053 3084.57 431.144 3165.12 511.524C3337.96 684.485 3473.63 885.575 3568.34 1109.67C3666.4 1341.5 3716.12 1587.95 3716.12 1842.03C3716.12 2096.12 3666.3 2342.57 3568.34 2574.39C3473.54 2798.49 3337.96 2999.77 3165.12 3172.54C3084.85 3252.83 2998.16 3325.1 2906.06 3389V3216.32C2811.91 3281.61 2711.25 3337.31 2604.72 3382.48C2398.92 3469.66 2179.99 3513.81 1954.27 3513.81V3684.53C2302.82 3684.53 2628.37 3587.85 2906.06 3419.73V3618.03C3506.51 3254.69 3908.14 2595.35 3908.14 1842.13C3908.14 1088.9 3506.79 429.56 2906.15 66.3135Z" fill="url(#paint2_linear_8069_29684)"/>
<path d="M2906.15 3099.42C3261.41 2796.35 3486.67 2345.55 3486.67 1842.03C3486.67 1338.52 3261.41 887.624 2906.15 584.639V725.001C2649.98 506.401 2317.72 374.235 1954.36 374.235V544.961C2300.68 544.961 2626.42 679.828 2871.42 924.88C2883.24 936.709 2894.79 949.003 2906.15 961.298V850.554C3157.11 1121.13 3294.56 1470.96 3294.56 1842.03C3294.56 2213.1 3157.11 2562.94 2906.15 2833.51V2722.77C2894.79 2735.06 2883.34 2747.17 2871.42 2759.18C2626.42 3004.14 2300.68 3139.1 1954.36 3139.1V3309.83C2317.72 3309.83 2649.98 3177.85 2906.15 2959.06V3099.42Z" fill="url(#paint3_linear_8069_29684)"/>
<path d="M1954.27 2422.95C2275.16 2422.95 2534.97 2162.9 2534.97 1842.13C2534.97 1521.35 2275.07 1261.3 1954.27 1261.3C1633.47 1261.3 1373.56 1521.35 1373.56 1842.13C1373.56 2162.9 1633.65 2422.95 1954.27 2422.95Z" fill="white"/>
<path d="M1002.47 1329.39V1265.03C909.726 1436.78 857.299 1633.4 857.299 1842.22C857.299 2051.04 909.726 2247.66 1002.47 2419.41V2355.05C1185.09 2693.52 1542.95 2923.48 1954.27 2923.48V2752.76C1711.31 2752.76 1482.52 2658.13 1310.71 2486.19C1138.71 2314.25 1044.1 2085.69 1044.1 1842.31C1044.1 1598.94 1138.62 1370.46 1310.71 1198.43C1482.52 1026.5 1711.13 931.865 1954.27 931.865V761.139C1542.95 761.139 1184.99 991.103 1002.47 1329.57V1329.39Z" fill="url(#paint4_linear_8069_29684)"/>
<path d="M1002.48 264.423V66.1272C402.03 429.467 0.398438 1088.81 0.398438 1842.03C0.398438 2595.26 401.751 3254.6 1002.48 3617.94V3419.64C1280.26 3587.67 1606 3684.44 1954.27 3684.44V3513.71C1728.73 3513.71 1509.8 3469.56 1303.82 3382.38C1197.29 3337.4 1096.81 3281.79 1002.48 3216.32V3389C910.566 3325.01 823.963 3252.92 743.599 3172.54C570.766 2999.67 434.902 2798.49 340.198 2574.39C242.141 2342.57 192.415 2096.12 192.415 1842.03C192.415 1587.95 242.234 1341.5 340.198 1109.67C434.902 885.575 570.766 684.299 743.599 511.524C823.963 431.144 910.566 358.867 1002.48 295.066V467.748C1096.81 402.456 1197.29 346.759 1303.82 301.679C1509.8 214.5 1728.82 170.351 1954.27 170.351V-0.374939C1606 -0.374939 1280.26 96.3046 1002.48 264.423Z" fill="url(#paint5_linear_8069_29684)"/>
<path d="M1002.48 264.423V66.1272C402.03 429.467 0.398438 1088.81 0.398438 1842.03C0.398438 2595.26 401.751 3254.6 1002.48 3617.94V3419.64C1280.26 3587.67 1606 3684.44 1954.27 3684.44V3513.71C1728.73 3513.71 1509.8 3469.56 1303.82 3382.38C1197.29 3337.4 1096.81 3281.79 1002.48 3216.32V3389C910.566 3325.01 823.963 3252.92 743.599 3172.54C570.766 2999.67 434.902 2798.49 340.198 2574.39C242.141 2342.57 192.415 2096.12 192.415 1842.03C192.415 1587.95 242.234 1341.5 340.198 1109.67C434.902 885.575 570.766 684.299 743.599 511.524C823.963 431.144 910.566 358.867 1002.48 295.066V467.748C1096.81 402.456 1197.29 346.759 1303.82 301.679C1509.8 214.5 1728.82 170.351 1954.27 170.351V-0.374939C1606 -0.374939 1280.26 96.3046 1002.48 264.423Z" fill="url(#paint6_linear_8069_29684)"/>
<path d="M1002.48 584.825C647.219 887.903 422.145 1338.7 422.145 1842.22C422.145 2345.73 647.405 2796.63 1002.48 3099.61V2959.25C1258.65 3177.85 1591.19 3310.01 1954.27 3310.01V3139.29C1607.95 3139.29 1282.21 3004.42 1037.4 2759.37C1025.57 2747.54 1014.02 2735.25 1002.38 2722.95V2833.7C751.701 2563.12 613.974 2213.29 613.974 1842.22C613.974 1471.15 751.608 1121.31 1002.38 850.74V961.484C1013.93 949.19 1025.38 937.081 1037.4 925.066C1282.21 680.108 1607.95 545.147 1954.27 545.147V374.421C1591.1 374.421 1258.65 506.401 1002.48 725.187V584.825Z" fill="url(#paint7_linear_8069_29684)"/>
</g>
<defs>
<linearGradient id="paint0_linear_8069_29684" x1="2491.76" y1="3061.98" x2="2505.46" y2="899.639" gradientUnits="userSpaceOnUse">
<stop offset="0.12" stop-color="white" stop-opacity="0"/>
<stop offset="0.9" stop-color="white"/>
</linearGradient>
<linearGradient id="paint1_linear_8069_29684" x1="2913.04" y1="3922.51" x2="2935.4" y2="237.692" gradientUnits="userSpaceOnUse">
<stop offset="0.12" stop-color="white" stop-opacity="0"/>
<stop offset="0.9" stop-color="white"/>
</linearGradient>
<linearGradient id="paint2_linear_8069_29684" x1="2913.04" y1="3922.51" x2="2935.4" y2="237.692" gradientUnits="userSpaceOnUse">
<stop offset="0.09" stop-color="white" stop-opacity="0"/>
<stop offset="0.74" stop-color="white"/>
</linearGradient>
<linearGradient id="paint3_linear_8069_29684" x1="2705.76" y1="3499.28" x2="2723.83" y2="563.682" gradientUnits="userSpaceOnUse">
<stop offset="0.12" stop-color="white" stop-opacity="0"/>
<stop offset="0.9" stop-color="white"/>
</linearGradient>
<linearGradient id="paint4_linear_8069_29684" x1="1401.5" y1="3062.08" x2="1415.1" y2="899.732" gradientUnits="userSpaceOnUse">
<stop offset="0.5" stop-color="white"/>
<stop offset="1" stop-color="white" stop-opacity="0"/>
</linearGradient>
<linearGradient id="paint5_linear_8069_29684" x1="970.35" y1="3920.27" x2="992.521" y2="235.456" gradientUnits="userSpaceOnUse">
<stop offset="0.5" stop-color="white"/>
<stop offset="1" stop-color="white" stop-opacity="0"/>
</linearGradient>
<linearGradient id="paint6_linear_8069_29684" x1="970.35" y1="3920.27" x2="992.521" y2="235.456" gradientUnits="userSpaceOnUse">
<stop offset="0.5" stop-color="white"/>
<stop offset="1" stop-color="white" stop-opacity="0"/>
</linearGradient>
<linearGradient id="paint7_linear_8069_29684" x1="1182.48" y1="3499.56" x2="1200.55" y2="563.962" gradientUnits="userSpaceOnUse">
<stop offset="0.5" stop-color="white"/>
<stop offset="1" stop-color="white" stop-opacity="0"/>
</linearGradient>
<clipPath id="clip0_8069_29684">
<rect width="3908.14" height="3684.62" fill="white"/>
</clipPath>
</defs>
</svg>
