<svg width="100" height="100" viewBox="0 0 100 100" fill="none" xmlns="http://www.w3.org/2000/svg">
<path d="M25 25C20.0555 25 15.222 26.4662 11.1108 29.2133C6.99952 31.9603 3.79521 35.8648 1.90302 40.4329C0.0108321 45.0011 -0.484251 50.0277 0.480379 54.8773C1.44501 59.7268 3.82603 64.1814 7.32234 67.6777C10.8187 71.174 15.2732 73.555 20.1227 74.5196C24.9723 75.4842 29.9989 74.9892 34.5671 73.097C39.1352 71.2048 43.0397 68.0005 45.7867 63.8892C48.5338 59.778 50 54.9445 50 50C49.9926 43.3718 47.3564 37.0173 42.6696 32.3304C37.9827 27.6436 31.6282 25.0074 25 25ZM25 69.4444C21.1543 69.4444 17.3949 68.304 14.1973 66.1675C10.9996 64.0309 8.50739 60.9941 7.03569 57.4411C5.56398 53.8881 5.17892 49.9784 5.92919 46.2066C6.67945 42.4347 8.53136 38.9701 11.2507 36.2507C13.9701 33.5313 17.4347 31.6794 21.2066 30.9292C24.9784 30.1789 28.8881 30.564 32.4411 32.0357C35.9941 33.5074 39.0309 35.9996 41.1675 39.1972C43.3041 42.3949 44.4444 46.1542 44.4444 50C44.4389 55.1553 42.3886 60.0979 38.7432 63.7432C35.0979 67.3885 30.1553 69.4389 25 69.4444ZM20.3704 38.8889C20.3704 37.9732 20.6419 37.0781 21.1506 36.3168C21.6593 35.5555 22.3824 34.9621 23.2283 34.6117C24.0743 34.2613 25.0051 34.1696 25.9032 34.3482C26.8013 34.5268 27.6262 34.9678 28.2736 35.6152C28.9211 36.2627 29.362 37.0876 29.5407 37.9857C29.7193 38.8837 29.6276 39.8146 29.2772 40.6606C28.9268 41.5065 28.3334 42.2296 27.5721 42.7383C26.8108 43.247 25.9157 43.5185 25 43.5185C23.7722 43.5185 22.5946 43.0308 21.7264 42.1625C20.8581 41.2943 20.3704 40.1167 20.3704 38.8889ZM37.963 48.1481C37.963 48.8849 37.6703 49.5914 37.1494 50.1123C36.6284 50.6333 35.9219 50.9259 35.1852 50.9259H27.7778V51.044L33.8241 60.5463C34.2192 61.1677 34.3514 61.9205 34.1916 62.6393C34.0319 63.3581 33.5933 63.9841 32.9722 64.3796C32.5277 64.6655 32.01 64.8166 31.4815 64.8148C31.0139 64.815 30.5538 64.6971 30.1439 64.4721C29.734 64.2471 29.3875 63.9223 29.1366 63.5278L25 57.0255L20.8611 63.5278C20.4559 64.1269 19.833 64.5444 19.1248 64.6914C18.4166 64.8385 17.679 64.7035 17.0688 64.3152C16.4586 63.9269 16.0239 63.3158 15.8572 62.612C15.6904 61.9082 15.8048 61.1671 16.1759 60.5463L22.2222 51.044V50.9259H14.8148C14.0781 50.9259 13.3716 50.6333 12.8506 50.1123C12.3297 49.5914 12.037 48.8849 12.037 48.1481C12.037 47.4114 12.3297 46.7049 12.8506 46.184C13.3716 45.663 14.0781 45.3704 14.8148 45.3704H35.1852C35.9219 45.3704 36.6284 45.663 37.1494 46.184C37.6703 46.7049 37.963 47.4114 37.963 48.1481Z" fill="white"/>
</svg>
