<svg width="100" height="100" viewBox="0 0 100 100" fill="none" xmlns="http://www.w3.org/2000/svg">
<path d="M44.5652 25H5.43478C3.99339 25 2.61103 25.5726 1.59181 26.5918C0.572591 27.611 0 28.9934 0 30.4348V69.5652C0 71.0066 0.572591 72.389 1.59181 73.4082C2.61103 74.4274 3.99339 75 5.43478 75H44.5652C46.0066 75 47.389 74.4274 48.4082 73.4082C49.4274 72.389 50 71.0066 50 69.5652V30.4348C50 28.9934 49.4274 27.611 48.4082 26.5918C47.389 25.5726 46.0066 25 44.5652 25ZM28.2609 42.3913H43.4783V46.7391H28.2609V42.3913ZM28.2609 53.2609H43.4783V57.6087H28.2609V53.2609ZM43.4783 35.8696H28.2609V31.5217H43.4783V35.8696ZM6.52174 31.5217H21.7391V68.4783H6.52174V31.5217ZM28.2609 68.4783V64.1304H43.4783V68.4783H28.2609Z" fill="white"/>
</svg>
